{"glyphs":{"0":{"ha":694,"x_min":53,"x_max":642,"o":"m 221 19 l 473 19 q 533 39 511 19 q 555 87 555 60 q 533 134 555 114 q 473 155 511 155 l 221 155 q 161 134 183 155 q 140 87 140 114 q 161 39 140 60 q 221 19 183 19 m 122 193 l 225 193 q 275 213 255 193 q 294 260 294 233 q 275 308 294 288 q 225 328 255 328 l 122 328 q 73 308 92 328 q 53 260 53 288 q 73 213 53 233 q 122 193 92 193 m 469 193 l 572 193 q 622 213 602 193 q 642 260 642 233 q 622 308 642 288 q 572 328 602 328 l 469 328 q 420 308 439 328 q 400 260 400 288 q 420 213 400 233 q 469 193 439 193 m 122 366 l 312 366 q 361 387 342 366 q 381 434 381 407 q 361 481 381 461 q 312 502 342 502 l 122 502 q 73 481 92 502 q 53 434 53 461 q 73 387 53 407 q 122 366 92 366 m 469 366 l 572 366 q 622 387 602 366 q 642 434 642 407 q 622 481 642 461 q 572 502 602 502 l 469 502 q 420 481 439 502 q 400 434 400 461 q 420 387 400 407 q 469 366 439 366 m 134 540 l 560 540 q 620 560 598 540 q 642 608 642 581 q 620 655 642 635 q 560 675 598 675 l 134 675 q 75 655 96 675 q 53 608 53 635 q 75 560 53 581 q 134 540 96 540 m 122 713 l 225 713 q 275 734 255 713 q 294 781 294 754 q 275 829 294 808 q 225 849 255 849 l 122 849 q 73 829 92 849 q 53 781 53 808 q 73 734 53 754 q 122 713 92 713 m 382 713 l 572 713 q 622 734 602 713 q 642 781 642 754 q 622 829 642 808 q 572 849 602 849 l 382 849 q 333 829 353 849 q 313 781 313 808 q 333 734 313 754 q 382 713 353 713 m 122 887 l 225 887 q 275 907 255 887 q 294 955 294 928 q 275 1002 294 982 q 225 1023 255 1023 l 122 1023 q 73 1002 92 1023 q 53 955 53 982 q 73 907 53 928 q 122 887 92 887 m 469 887 l 572 887 q 622 907 602 887 q 642 955 642 928 q 622 1002 642 982 q 572 1023 602 1023 l 469 1023 q 420 1002 439 1023 q 400 955 400 982 q 420 907 400 928 q 469 887 439 887 m 221 1061 l 473 1061 q 533 1081 511 1061 q 555 1128 555 1101 q 533 1176 555 1156 q 473 1196 511 1196 l 221 1196 q 161 1176 183 1196 q 140 1128 140 1156 q 161 1081 140 1101 q 221 1061 183 1061 z "},"1":{"ha":694,"x_min":53,"x_max":642,"o":"m 134 19 l 560 19 q 620 39 598 19 q 642 87 642 60 q 620 134 642 114 q 560 155 598 155 l 134 155 q 75 134 96 155 q 53 87 53 114 q 75 39 53 60 q 134 19 96 19 m 296 193 l 399 193 q 448 213 429 193 q 468 260 468 233 q 448 308 468 288 q 399 328 429 328 l 296 328 q 246 308 266 328 q 227 260 227 288 q 246 213 227 233 q 296 193 266 193 m 296 366 l 399 366 q 448 387 429 366 q 468 434 468 407 q 448 481 468 461 q 399 502 429 502 l 296 502 q 246 481 266 502 q 227 434 227 461 q 246 387 227 407 q 296 366 266 366 m 296 540 l 399 540 q 448 560 429 540 q 468 608 468 581 q 448 655 468 635 q 399 675 429 675 l 296 675 q 246 655 266 675 q 227 608 227 635 q 246 560 227 581 q 296 540 266 540 m 296 713 l 399 713 q 448 734 429 713 q 468 781 468 754 q 448 829 468 808 q 399 849 429 849 l 296 849 q 246 829 266 849 q 227 781 227 808 q 246 734 227 754 q 296 713 266 713 m 209 887 l 399 887 q 448 907 429 887 q 468 955 468 928 q 448 1002 468 982 q 399 1023 429 1023 l 209 1023 q 159 1002 179 1023 q 140 955 140 982 q 159 907 140 928 q 209 887 179 887 m 296 1061 l 399 1061 q 448 1081 429 1061 q 468 1128 468 1101 q 448 1176 468 1156 q 399 1196 429 1196 l 296 1196 q 246 1176 266 1196 q 227 1128 227 1156 q 246 1081 227 1101 q 296 1061 266 1061 z "},"2":{"ha":694,"x_min":53,"x_max":642,"o":"m 134 19 l 560 19 q 620 39 598 19 q 642 87 642 60 q 620 134 642 114 q 560 155 598 155 l 134 155 q 75 134 96 155 q 53 87 53 114 q 75 39 53 60 q 134 19 96 19 m 122 193 l 225 193 q 275 213 255 193 q 294 260 294 233 q 275 308 294 288 q 225 328 255 328 l 122 328 q 73 308 92 328 q 53 260 53 288 q 73 213 53 233 q 122 193 92 193 m 469 193 l 572 193 q 622 213 602 193 q 642 260 642 233 q 622 308 642 288 q 572 328 602 328 l 469 328 q 420 308 439 328 q 400 260 400 288 q 420 213 400 233 q 469 193 439 193 m 209 366 l 312 366 q 361 387 342 366 q 381 434 381 407 q 361 481 381 461 q 312 502 342 502 l 209 502 q 159 481 179 502 q 140 434 140 461 q 159 387 140 407 q 209 366 179 366 m 296 540 l 486 540 q 535 560 515 540 q 555 608 555 581 q 535 655 555 635 q 486 675 515 675 l 296 675 q 246 655 266 675 q 227 608 227 635 q 246 560 227 581 q 296 540 266 540 m 469 713 l 572 713 q 622 734 602 713 q 642 781 642 754 q 622 829 642 808 q 572 849 602 849 l 469 849 q 420 829 439 849 q 400 781 400 808 q 420 734 400 754 q 469 713 439 713 m 122 887 l 225 887 q 275 907 255 887 q 294 955 294 928 q 275 1002 294 982 q 225 1023 255 1023 l 122 1023 q 73 1002 92 1023 q 53 955 53 982 q 73 907 53 928 q 122 887 92 887 m 469 887 l 572 887 q 622 907 602 887 q 642 955 642 928 q 622 1002 642 982 q 572 1023 602 1023 l 469 1023 q 420 1002 439 1023 q 400 955 400 982 q 420 907 400 928 q 469 887 439 887 m 221 1061 l 473 1061 q 533 1081 511 1061 q 555 1128 555 1101 q 533 1176 555 1156 q 473 1196 511 1196 l 221 1196 q 161 1176 183 1196 q 140 1128 140 1156 q 161 1081 140 1101 q 221 1061 183 1061 z "},"3":{"ha":694,"x_min":53,"x_max":642,"o":"m 221 19 l 473 19 q 533 39 511 19 q 555 87 555 60 q 533 134 555 114 q 473 155 511 155 l 221 155 q 161 134 183 155 q 140 87 140 114 q 161 39 140 60 q 221 19 183 19 m 122 193 l 225 193 q 275 213 255 193 q 294 260 294 233 q 275 308 294 288 q 225 328 255 328 l 122 328 q 73 308 92 328 q 53 260 53 288 q 73 213 53 233 q 122 193 92 193 m 469 193 l 572 193 q 622 213 602 193 q 642 260 642 233 q 622 308 642 288 q 572 328 602 328 l 469 328 q 420 308 439 328 q 400 260 400 288 q 420 213 400 233 q 469 193 439 193 m 469 366 l 572 366 q 622 387 602 366 q 642 434 642 407 q 622 481 642 461 q 572 502 602 502 l 469 502 q 420 481 439 502 q 400 434 400 461 q 420 387 400 407 q 469 366 439 366 m 296 540 l 486 540 q 535 560 515 540 q 555 608 555 581 q 535 655 555 635 q 486 675 515 675 l 296 675 q 246 655 266 675 q 227 608 227 635 q 246 560 227 581 q 296 540 266 540 m 469 713 l 572 713 q 622 734 602 713 q 642 781 642 754 q 622 829 642 808 q 572 849 602 849 l 469 849 q 420 829 439 849 q 400 781 400 808 q 420 734 400 754 q 469 713 439 713 m 122 887 l 225 887 q 275 907 255 887 q 294 955 294 928 q 275 1002 294 982 q 225 1023 255 1023 l 122 1023 q 73 1002 92 1023 q 53 955 53 982 q 73 907 53 928 q 122 887 92 887 m 469 887 l 572 887 q 622 907 602 887 q 642 955 642 928 q 622 1002 642 982 q 572 1023 602 1023 l 469 1023 q 420 1002 439 1023 q 400 955 400 982 q 420 907 400 928 q 469 887 439 887 m 221 1061 l 473 1061 q 533 1081 511 1061 q 555 1128 555 1101 q 533 1176 555 1156 q 473 1196 511 1196 l 221 1196 q 161 1176 183 1196 q 140 1128 140 1156 q 161 1081 140 1101 q 221 1061 183 1061 z "},"4":{"ha":694,"x_min":-34,"x_max":642,"o":"m 308 19 l 560 19 q 620 39 598 19 q 642 87 642 60 q 620 134 642 114 q 560 155 598 155 l 308 155 q 248 134 270 155 q 227 87 227 114 q 248 39 227 60 q 308 19 270 19 m 382 193 l 486 193 q 535 213 515 193 q 555 260 555 233 q 535 308 555 288 q 486 328 515 328 l 382 328 q 333 308 353 328 q 313 260 313 288 q 333 213 313 233 q 382 193 353 193 m 47 366 l 560 366 q 620 387 598 366 q 642 434 642 407 q 620 481 642 461 q 560 502 598 502 l 47 502 q -12 481 9 502 q -34 434 -34 461 q -12 387 -34 407 q 47 366 9 366 m 35 540 l 138 540 q 188 560 168 540 q 208 608 208 581 q 188 655 208 635 q 138 675 168 675 l 35 675 q -14 655 5 675 q -34 608 -34 635 q -14 560 -34 581 q 35 540 5 540 m 382 540 l 486 540 q 535 560 515 540 q 555 608 555 581 q 535 655 555 635 q 486 675 515 675 l 382 675 q 333 655 353 675 q 313 608 313 635 q 333 560 313 581 q 382 540 353 540 m 122 713 l 225 713 q 275 734 255 713 q 294 781 294 754 q 275 829 294 808 q 225 849 255 849 l 122 849 q 73 829 92 849 q 53 781 53 808 q 73 734 53 754 q 122 713 92 713 m 382 713 l 486 713 q 535 734 515 713 q 555 781 555 754 q 535 829 555 808 q 486 849 515 849 l 382 849 q 333 829 353 849 q 313 781 313 808 q 333 734 313 754 q 382 713 353 713 m 221 887 l 473 887 q 533 907 511 887 q 555 955 555 928 q 533 1002 555 982 q 473 1023 511 1023 l 221 1023 q 161 1002 183 1023 q 140 955 140 982 q 161 907 140 928 q 221 887 183 887 m 296 1061 l 486 1061 q 535 1081 515 1061 q 555 1128 555 1101 q 535 1176 555 1156 q 486 1196 515 1196 l 296 1196 q 246 1176 266 1196 q 227 1128 227 1156 q 246 1081 227 1101 q 296 1061 266 1061 z "},"5":{"ha":694,"x_min":53,"x_max":642,"o":"m 221 19 l 473 19 q 533 39 511 19 q 555 87 555 60 q 533 134 555 114 q 473 155 511 155 l 221 155 q 161 134 183 155 q 140 87 140 114 q 161 39 140 60 q 221 19 183 19 m 122 193 l 225 193 q 275 213 255 193 q 294 260 294 233 q 275 308 294 288 q 225 328 255 328 l 122 328 q 73 308 92 328 q 53 260 53 288 q 73 213 53 233 q 122 193 92 193 m 469 193 l 572 193 q 622 213 602 193 q 642 260 642 233 q 622 308 642 288 q 572 328 602 328 l 469 328 q 420 308 439 328 q 400 260 400 288 q 420 213 400 233 q 469 193 439 193 m 469 366 l 572 366 q 622 387 602 366 q 642 434 642 407 q 622 481 642 461 q 572 502 602 502 l 469 502 q 420 481 439 502 q 400 434 400 461 q 420 387 400 407 q 469 366 439 366 m 469 540 l 572 540 q 622 560 602 540 q 642 608 642 581 q 622 655 642 635 q 572 675 602 675 l 469 675 q 420 655 439 675 q 400 608 400 635 q 420 560 400 581 q 469 540 439 540 m 134 713 l 473 713 q 533 734 511 713 q 555 781 555 754 q 533 829 555 808 q 473 849 511 849 l 134 849 q 75 829 96 849 q 53 781 53 808 q 75 734 53 754 q 134 713 96 713 m 122 887 l 225 887 q 275 907 255 887 q 294 955 294 928 q 275 1002 294 982 q 225 1023 255 1023 l 122 1023 q 73 1002 92 1023 q 53 955 53 982 q 73 907 53 928 q 122 887 92 887 m 134 1061 l 560 1061 q 620 1081 598 1061 q 642 1128 642 1101 q 620 1176 642 1156 q 560 1196 598 1196 l 134 1196 q 75 1176 96 1196 q 53 1128 53 1156 q 75 1081 53 1101 q 134 1061 96 1061 z "},"6":{"ha":694,"x_min":53,"x_max":642,"o":"m 221 19 l 473 19 q 533 39 511 19 q 555 87 555 60 q 533 134 555 114 q 473 155 511 155 l 221 155 q 161 134 183 155 q 140 87 140 114 q 161 39 140 60 q 221 19 183 19 m 122 193 l 225 193 q 275 213 255 193 q 294 260 294 233 q 275 308 294 288 q 225 328 255 328 l 122 328 q 73 308 92 328 q 53 260 53 288 q 73 213 53 233 q 122 193 92 193 m 469 193 l 572 193 q 622 213 602 193 q 642 260 642 233 q 622 308 642 288 q 572 328 602 328 l 469 328 q 420 308 439 328 q 400 260 400 288 q 420 213 400 233 q 469 193 439 193 m 122 366 l 225 366 q 275 387 255 366 q 294 434 294 407 q 275 481 294 461 q 225 502 255 502 l 122 502 q 73 481 92 502 q 53 434 53 461 q 73 387 53 407 q 122 366 92 366 m 469 366 l 572 366 q 622 387 602 366 q 642 434 642 407 q 622 481 642 461 q 572 502 602 502 l 469 502 q 420 481 439 502 q 400 434 400 461 q 420 387 400 407 q 469 366 439 366 m 134 540 l 473 540 q 533 560 511 540 q 555 608 555 581 q 533 655 555 635 q 473 675 511 675 l 134 675 q 75 655 96 675 q 53 608 53 635 q 75 560 53 581 q 134 540 96 540 m 122 713 l 225 713 q 275 734 255 713 q 294 781 294 754 q 275 829 294 808 q 225 849 255 849 l 122 849 q 73 829 92 849 q 53 781 53 808 q 73 734 53 754 q 122 713 92 713 m 209 887 l 312 887 q 361 907 342 887 q 381 955 381 928 q 361 1002 381 982 q 312 1023 342 1023 l 209 1023 q 159 1002 179 1023 q 140 955 140 982 q 159 907 140 928 q 209 887 179 887 m 296 1061 l 486 1061 q 535 1081 515 1061 q 555 1128 555 1101 q 535 1176 555 1156 q 486 1196 515 1196 l 296 1196 q 246 1176 266 1196 q 227 1128 227 1156 q 246 1081 227 1101 q 296 1061 266 1061 z "},"7":{"ha":694,"x_min":53,"x_max":642,"o":"m 296 19 l 399 19 q 448 39 429 19 q 468 87 468 60 q 448 134 468 114 q 399 155 429 155 l 296 155 q 246 134 266 155 q 227 87 227 114 q 246 39 227 60 q 296 19 266 19 m 296 193 l 399 193 q 448 213 429 193 q 468 260 468 233 q 448 308 468 288 q 399 328 429 328 l 296 328 q 246 308 266 328 q 227 260 227 288 q 246 213 227 233 q 296 193 266 193 m 296 366 l 399 366 q 448 387 429 366 q 468 434 468 407 q 448 481 468 461 q 399 502 429 502 l 296 502 q 246 481 266 502 q 227 434 227 461 q 246 387 227 407 q 296 366 266 366 m 382 540 l 486 540 q 535 560 515 540 q 555 608 555 581 q 535 655 555 635 q 486 675 515 675 l 382 675 q 333 655 353 675 q 313 608 313 635 q 333 560 313 581 q 382 540 353 540 m 469 713 l 572 713 q 622 734 602 713 q 642 781 642 754 q 622 829 642 808 q 572 849 602 849 l 469 849 q 420 829 439 849 q 400 781 400 808 q 420 734 400 754 q 469 713 439 713 m 122 887 l 225 887 q 275 907 255 887 q 294 955 294 928 q 275 1002 294 982 q 225 1023 255 1023 l 122 1023 q 73 1002 92 1023 q 53 955 53 982 q 73 907 53 928 q 122 887 92 887 m 469 887 l 572 887 q 622 907 602 887 q 642 955 642 928 q 622 1002 642 982 q 572 1023 602 1023 l 469 1023 q 420 1002 439 1023 q 400 955 400 982 q 420 907 400 928 q 469 887 439 887 m 134 1061 l 560 1061 q 620 1081 598 1061 q 642 1128 642 1101 q 620 1176 642 1156 q 560 1196 598 1196 l 134 1196 q 75 1176 96 1196 q 53 1128 53 1156 q 75 1081 53 1101 q 134 1061 96 1061 z "},"8":{"ha":694,"x_min":53,"x_max":642,"o":"m 221 19 l 473 19 q 533 39 511 19 q 555 87 555 60 q 533 134 555 114 q 473 155 511 155 l 221 155 q 161 134 183 155 q 140 87 140 114 q 161 39 140 60 q 221 19 183 19 m 122 193 l 225 193 q 275 213 255 193 q 294 260 294 233 q 275 308 294 288 q 225 328 255 328 l 122 328 q 73 308 92 328 q 53 260 53 288 q 73 213 53 233 q 122 193 92 193 m 469 193 l 572 193 q 622 213 602 193 q 642 260 642 233 q 622 308 642 288 q 572 328 602 328 l 469 328 q 420 308 439 328 q 400 260 400 288 q 420 213 400 233 q 469 193 439 193 m 122 366 l 225 366 q 275 387 255 366 q 294 434 294 407 q 275 481 294 461 q 225 502 255 502 l 122 502 q 73 481 92 502 q 53 434 53 461 q 73 387 53 407 q 122 366 92 366 m 469 366 l 572 366 q 622 387 602 366 q 642 434 642 407 q 622 481 642 461 q 572 502 602 502 l 469 502 q 420 481 439 502 q 400 434 400 461 q 420 387 400 407 q 469 366 439 366 m 221 540 l 473 540 q 533 560 511 540 q 555 608 555 581 q 533 655 555 635 q 473 675 511 675 l 221 675 q 161 655 183 675 q 140 608 140 635 q 161 560 140 581 q 221 540 183 540 m 122 713 l 225 713 q 275 734 255 713 q 294 781 294 754 q 275 829 294 808 q 225 849 255 849 l 122 849 q 73 829 92 849 q 53 781 53 808 q 73 734 53 754 q 122 713 92 713 m 469 713 l 572 713 q 622 734 602 713 q 642 781 642 754 q 622 829 642 808 q 572 849 602 849 l 469 849 q 420 829 439 849 q 400 781 400 808 q 420 734 400 754 q 469 713 439 713 m 122 887 l 225 887 q 275 907 255 887 q 294 955 294 928 q 275 1002 294 982 q 225 1023 255 1023 l 122 1023 q 73 1002 92 1023 q 53 955 53 982 q 73 907 53 928 q 122 887 92 887 m 469 887 l 572 887 q 622 907 602 887 q 642 955 642 928 q 622 1002 642 982 q 572 1023 602 1023 l 469 1023 q 420 1002 439 1023 q 400 955 400 982 q 420 907 400 928 q 469 887 439 887 m 221 1061 l 473 1061 q 533 1081 511 1061 q 555 1128 555 1101 q 533 1176 555 1156 q 473 1196 511 1196 l 221 1196 q 161 1176 183 1196 q 140 1128 140 1156 q 161 1081 140 1101 q 221 1061 183 1061 z "},"9":{"ha":694,"x_min":53,"x_max":642,"o":"m 209 19 l 399 19 q 448 39 429 19 q 468 87 468 60 q 448 134 468 114 q 399 155 429 155 l 209 155 q 159 134 179 155 q 140 87 140 114 q 159 39 140 60 q 209 19 179 19 m 382 193 l 486 193 q 535 213 515 193 q 555 260 555 233 q 535 308 555 288 q 486 328 515 328 l 382 328 q 333 308 353 328 q 313 260 313 288 q 333 213 313 233 q 382 193 353 193 m 469 366 l 572 366 q 622 387 602 366 q 642 434 642 407 q 622 481 642 461 q 572 502 602 502 l 469 502 q 420 481 439 502 q 400 434 400 461 q 420 387 400 407 q 469 366 439 366 m 221 540 l 560 540 q 620 560 598 540 q 642 608 642 581 q 620 655 642 635 q 560 675 598 675 l 221 675 q 161 655 183 675 q 140 608 140 635 q 161 560 140 581 q 221 540 183 540 m 122 713 l 225 713 q 275 734 255 713 q 294 781 294 754 q 275 829 294 808 q 225 849 255 849 l 122 849 q 73 829 92 849 q 53 781 53 808 q 73 734 53 754 q 122 713 92 713 m 469 713 l 572 713 q 622 734 602 713 q 642 781 642 754 q 622 829 642 808 q 572 849 602 849 l 469 849 q 420 829 439 849 q 400 781 400 808 q 420 734 400 754 q 469 713 439 713 m 122 887 l 225 887 q 275 907 255 887 q 294 955 294 928 q 275 1002 294 982 q 225 1023 255 1023 l 122 1023 q 73 1002 92 1023 q 53 955 53 982 q 73 907 53 928 q 122 887 92 887 m 469 887 l 572 887 q 622 907 602 887 q 642 955 642 928 q 622 1002 642 982 q 572 1023 602 1023 l 469 1023 q 420 1002 439 1023 q 400 955 400 982 q 420 907 400 928 q 469 887 439 887 m 221 1061 l 473 1061 q 533 1081 511 1061 q 555 1128 555 1101 q 533 1176 555 1156 q 473 1196 511 1196 l 221 1196 q 161 1176 183 1196 q 140 1128 140 1156 q 161 1081 140 1101 q 221 1061 183 1061 z "},"\u0000":{"ha":0,"x_min":0,"x_max":0,"o":""}," ":{"ha":694,"x_min":0,"x_max":0,"o":""},"A":{"ha":694,"x_min":-34,"x_max":728,"o":"m 35 19 l 138 19 q 188 39 168 19 q 208 87 208 60 q 188 134 208 114 q 138 155 168 155 l 35 155 q -14 134 5 155 q -34 87 -34 114 q -14 39 -34 60 q 35 19 5 19 m 556 19 l 659 19 q 709 39 689 19 q 728 87 728 60 q 709 134 728 114 q 659 155 689 155 l 556 155 q 507 134 526 155 q 487 87 487 114 q 507 39 487 60 q 556 19 526 19 m 35 193 l 138 193 q 188 213 168 193 q 208 260 208 233 q 188 308 208 288 q 138 328 168 328 l 35 328 q -14 308 5 328 q -34 260 -34 288 q -14 213 -34 233 q 35 193 5 193 m 556 193 l 659 193 q 709 213 689 193 q 728 260 728 233 q 709 308 728 288 q 659 328 689 328 l 556 328 q 507 308 526 328 q 487 260 487 288 q 507 213 487 233 q 556 193 526 193 m 134 366 l 560 366 q 620 387 598 366 q 642 434 642 407 q 620 481 642 461 q 560 502 598 502 l 134 502 q 75 481 96 502 q 53 434 53 461 q 75 387 53 407 q 134 366 96 366 m 122 540 l 225 540 q 275 560 255 540 q 294 608 294 581 q 275 655 294 635 q 225 675 255 675 l 122 675 q 73 655 92 675 q 53 608 53 635 q 73 560 53 581 q 122 540 92 540 m 469 540 l 572 540 q 622 560 602 540 q 642 608 642 581 q 622 655 642 635 q 572 675 602 675 l 469 675 q 420 655 439 675 q 400 608 400 635 q 420 560 400 581 q 469 540 439 540 m 221 713 l 473 713 q 533 734 511 713 q 555 781 555 754 q 533 829 555 808 q 473 849 511 849 l 221 849 q 161 829 183 849 q 140 781 140 808 q 161 734 140 754 q 221 713 183 713 m 221 887 l 473 887 q 533 907 511 887 q 555 955 555 928 q 533 1002 555 982 q 473 1023 511 1023 l 221 1023 q 161 1002 183 1023 q 140 955 140 982 q 161 907 140 928 q 221 887 183 887 m 296 1061 l 399 1061 q 448 1081 429 1061 q 468 1128 468 1101 q 448 1176 468 1156 q 399 1196 429 1196 l 296 1196 q 246 1176 266 1196 q 227 1128 227 1156 q 246 1081 227 1101 q 296 1061 266 1061 z "},"Á":{"ha":694,"x_min":-34,"x_max":728,"o":"m 35 19 l 138 19 q 188 39 168 19 q 208 87 208 60 q 188 134 208 114 q 138 155 168 155 l 35 155 q -14 134 5 155 q -34 87 -34 114 q -14 39 -34 60 q 35 19 5 19 m 556 19 l 659 19 q 709 39 689 19 q 728 87 728 60 q 709 134 728 114 q 659 155 689 155 l 556 155 q 507 134 526 155 q 487 87 487 114 q 507 39 487 60 q 556 19 526 19 m 35 193 l 138 193 q 188 213 168 193 q 208 260 208 233 q 188 308 208 288 q 138 328 168 328 l 35 328 q -14 308 5 328 q -34 260 -34 288 q -14 213 -34 233 q 35 193 5 193 m 556 193 l 659 193 q 709 213 689 193 q 728 260 728 233 q 709 308 728 288 q 659 328 689 328 l 556 328 q 507 308 526 328 q 487 260 487 288 q 507 213 487 233 q 556 193 526 193 m 134 366 l 560 366 q 620 387 598 366 q 642 434 642 407 q 620 481 642 461 q 560 502 598 502 l 134 502 q 75 481 96 502 q 53 434 53 461 q 75 387 53 407 q 134 366 96 366 m 122 540 l 225 540 q 275 560 255 540 q 294 608 294 581 q 275 655 294 635 q 225 675 255 675 l 122 675 q 73 655 92 675 q 53 608 53 635 q 73 560 53 581 q 122 540 92 540 m 469 540 l 572 540 q 622 560 602 540 q 642 608 642 581 q 622 655 642 635 q 572 675 602 675 l 469 675 q 420 655 439 675 q 400 608 400 635 q 420 560 400 581 q 469 540 439 540 m 221 713 l 473 713 q 533 734 511 713 q 555 781 555 754 q 533 829 555 808 q 473 849 511 849 l 221 849 q 161 829 183 849 q 140 781 140 808 q 161 734 140 754 q 221 713 183 713 m 281 887 l 327 887 q 366 907 350 887 q 381 955 381 928 q 366 1002 381 982 q 327 1023 350 1023 l 281 1023 q 242 1002 258 1023 q 227 955 227 982 q 242 907 227 928 q 281 887 258 887 m 382 1061 l 486 1061 q 535 1081 515 1061 q 555 1128 555 1101 q 535 1176 555 1156 q 486 1196 515 1196 l 382 1196 q 333 1176 353 1196 q 313 1128 313 1156 q 333 1081 313 1101 q 382 1061 353 1061 z "},"Â":{"ha":694,"x_min":-34,"x_max":728,"o":"m 35 19 l 138 19 q 188 39 168 19 q 208 87 208 60 q 188 134 208 114 q 138 155 168 155 l 35 155 q -14 134 5 155 q -34 87 -34 114 q -14 39 -34 60 q 35 19 5 19 m 556 19 l 659 19 q 709 39 689 19 q 728 87 728 60 q 709 134 728 114 q 659 155 689 155 l 556 155 q 507 134 526 155 q 487 87 487 114 q 507 39 487 60 q 556 19 526 19 m 35 193 l 138 193 q 188 213 168 193 q 208 260 208 233 q 188 308 208 288 q 138 328 168 328 l 35 328 q -14 308 5 328 q -34 260 -34 288 q -14 213 -34 233 q 35 193 5 193 m 556 193 l 659 193 q 709 213 689 193 q 728 260 728 233 q 709 308 728 288 q 659 328 689 328 l 556 328 q 507 308 526 328 q 487 260 487 288 q 507 213 487 233 q 556 193 526 193 m 134 366 l 560 366 q 620 387 598 366 q 642 434 642 407 q 620 481 642 461 q 560 502 598 502 l 134 502 q 75 481 96 502 q 53 434 53 461 q 75 387 53 407 q 134 366 96 366 m 122 540 l 225 540 q 275 560 255 540 q 294 608 294 581 q 275 655 294 635 q 225 675 255 675 l 122 675 q 73 655 92 675 q 53 608 53 635 q 73 560 53 581 q 122 540 92 540 m 469 540 l 572 540 q 622 560 602 540 q 642 608 642 581 q 622 655 642 635 q 572 675 602 675 l 469 675 q 420 655 439 675 q 400 608 400 635 q 420 560 400 581 q 469 540 439 540 m 221 713 l 473 713 q 533 734 511 713 q 555 781 555 754 q 533 829 555 808 q 473 849 511 849 l 221 849 q 161 829 183 849 q 140 781 140 808 q 161 734 140 754 q 221 713 183 713 m 194 887 l 240 887 q 279 907 263 887 q 294 955 294 928 q 279 1002 294 982 q 240 1023 263 1023 l 194 1023 q 155 1002 171 1023 q 140 955 140 982 q 155 907 140 928 q 194 887 171 887 m 454 887 l 500 887 q 539 907 524 887 q 555 955 555 928 q 539 1002 555 982 q 500 1023 524 1023 l 454 1023 q 416 1002 431 1023 q 400 955 400 982 q 416 907 400 928 q 454 887 431 887 m 296 1061 l 399 1061 q 448 1081 429 1061 q 468 1128 468 1101 q 448 1176 468 1156 q 399 1196 429 1196 l 296 1196 q 246 1176 266 1196 q 227 1128 227 1156 q 246 1081 227 1101 q 296 1061 266 1061 z "},"Ä":{"ha":694,"x_min":-34,"x_max":728,"o":"m 35 19 l 138 19 q 188 39 168 19 q 208 87 208 60 q 188 134 208 114 q 138 155 168 155 l 35 155 q -14 134 5 155 q -34 87 -34 114 q -14 39 -34 60 q 35 19 5 19 m 556 19 l 659 19 q 709 39 689 19 q 728 87 728 60 q 709 134 728 114 q 659 155 689 155 l 556 155 q 507 134 526 155 q 487 87 487 114 q 507 39 487 60 q 556 19 526 19 m 35 193 l 138 193 q 188 213 168 193 q 208 260 208 233 q 188 308 208 288 q 138 328 168 328 l 35 328 q -14 308 5 328 q -34 260 -34 288 q -14 213 -34 233 q 35 193 5 193 m 556 193 l 659 193 q 709 213 689 193 q 728 260 728 233 q 709 308 728 288 q 659 328 689 328 l 556 328 q 507 308 526 328 q 487 260 487 288 q 507 213 487 233 q 556 193 526 193 m 134 366 l 560 366 q 620 387 598 366 q 642 434 642 407 q 620 481 642 461 q 560 502 598 502 l 134 502 q 75 481 96 502 q 53 434 53 461 q 75 387 53 407 q 134 366 96 366 m 122 540 l 225 540 q 275 560 255 540 q 294 608 294 581 q 275 655 294 635 q 225 675 255 675 l 122 675 q 73 655 92 675 q 53 608 53 635 q 73 560 53 581 q 122 540 92 540 m 469 540 l 572 540 q 622 560 602 540 q 642 608 642 581 q 622 655 642 635 q 572 675 602 675 l 469 675 q 420 655 439 675 q 400 608 400 635 q 420 560 400 581 q 469 540 439 540 m 221 713 l 473 713 q 533 734 511 713 q 555 781 555 754 q 533 829 555 808 q 473 849 511 849 l 221 849 q 161 829 183 849 q 140 781 140 808 q 161 734 140 754 q 221 713 183 713 m 296 887 l 399 887 q 448 907 429 887 q 468 955 468 928 q 448 1002 468 982 q 399 1023 429 1023 l 296 1023 q 246 1002 266 1023 q 227 955 227 982 q 246 907 227 928 q 296 887 266 887 m 35 1061 l 138 1061 q 188 1081 168 1061 q 208 1128 208 1101 q 188 1176 208 1156 q 138 1196 168 1196 l 35 1196 q -14 1176 5 1196 q -34 1128 -34 1156 q -14 1081 -34 1101 q 35 1061 5 1061 m 556 1061 l 659 1061 q 709 1081 689 1061 q 728 1128 728 1101 q 709 1176 728 1156 q 659 1196 689 1196 l 556 1196 q 507 1176 526 1196 q 487 1128 487 1156 q 507 1081 487 1101 q 556 1061 526 1061 z "},"À":{"ha":694,"x_min":-34,"x_max":728,"o":"m 35 19 l 138 19 q 188 39 168 19 q 208 87 208 60 q 188 134 208 114 q 138 155 168 155 l 35 155 q -14 134 5 155 q -34 87 -34 114 q -14 39 -34 60 q 35 19 5 19 m 556 19 l 659 19 q 709 39 689 19 q 728 87 728 60 q 709 134 728 114 q 659 155 689 155 l 556 155 q 507 134 526 155 q 487 87 487 114 q 507 39 487 60 q 556 19 526 19 m 35 193 l 138 193 q 188 213 168 193 q 208 260 208 233 q 188 308 208 288 q 138 328 168 328 l 35 328 q -14 308 5 328 q -34 260 -34 288 q -14 213 -34 233 q 35 193 5 193 m 556 193 l 659 193 q 709 213 689 193 q 728 260 728 233 q 709 308 728 288 q 659 328 689 328 l 556 328 q 507 308 526 328 q 487 260 487 288 q 507 213 487 233 q 556 193 526 193 m 134 366 l 560 366 q 620 387 598 366 q 642 434 642 407 q 620 481 642 461 q 560 502 598 502 l 134 502 q 75 481 96 502 q 53 434 53 461 q 75 387 53 407 q 134 366 96 366 m 122 540 l 225 540 q 275 560 255 540 q 294 608 294 581 q 275 655 294 635 q 225 675 255 675 l 122 675 q 73 655 92 675 q 53 608 53 635 q 73 560 53 581 q 122 540 92 540 m 469 540 l 572 540 q 622 560 602 540 q 642 608 642 581 q 622 655 642 635 q 572 675 602 675 l 469 675 q 420 655 439 675 q 400 608 400 635 q 420 560 400 581 q 469 540 439 540 m 221 713 l 473 713 q 533 734 511 713 q 555 781 555 754 q 533 829 555 808 q 473 849 511 849 l 221 849 q 161 829 183 849 q 140 781 140 808 q 161 734 140 754 q 221 713 183 713 m 368 887 l 414 887 q 452 907 437 887 q 468 955 468 928 q 452 1002 468 982 q 414 1023 437 1023 l 368 1023 q 329 1002 345 1023 q 313 955 313 982 q 329 907 313 928 q 368 887 345 887 m 209 1061 l 312 1061 q 361 1081 342 1061 q 381 1128 381 1101 q 361 1176 381 1156 q 312 1196 342 1196 l 209 1196 q 159 1176 179 1196 q 140 1128 140 1156 q 159 1081 140 1101 q 209 1061 179 1061 z "},"Å":{"ha":694,"x_min":-34,"x_max":728,"o":"m 35 19 l 138 19 q 188 39 168 19 q 208 87 208 60 q 188 134 208 114 q 138 155 168 155 l 35 155 q -14 134 5 155 q -34 87 -34 114 q -14 39 -34 60 q 35 19 5 19 m 556 19 l 659 19 q 709 39 689 19 q 728 87 728 60 q 709 134 728 114 q 659 155 689 155 l 556 155 q 507 134 526 155 q 487 87 487 114 q 507 39 487 60 q 556 19 526 19 m 35 193 l 138 193 q 188 213 168 193 q 208 260 208 233 q 188 308 208 288 q 138 328 168 328 l 35 328 q -14 308 5 328 q -34 260 -34 288 q -14 213 -34 233 q 35 193 5 193 m 556 193 l 659 193 q 709 213 689 193 q 728 260 728 233 q 709 308 728 288 q 659 328 689 328 l 556 328 q 507 308 526 328 q 487 260 487 288 q 507 213 487 233 q 556 193 526 193 m 134 366 l 560 366 q 620 387 598 366 q 642 434 642 407 q 620 481 642 461 q 560 502 598 502 l 134 502 q 75 481 96 502 q 53 434 53 461 q 75 387 53 407 q 134 366 96 366 m 122 540 l 225 540 q 275 560 255 540 q 294 608 294 581 q 275 655 294 635 q 225 675 255 675 l 122 675 q 73 655 92 675 q 53 608 53 635 q 73 560 53 581 q 122 540 92 540 m 469 540 l 572 540 q 622 560 602 540 q 642 608 642 581 q 622 655 642 635 q 572 675 602 675 l 469 675 q 420 655 439 675 q 400 608 400 635 q 420 560 400 581 q 469 540 439 540 m 221 713 l 473 713 q 533 734 511 713 q 555 781 555 754 q 533 829 555 808 q 473 849 511 849 l 221 849 q 161 829 183 849 q 140 781 140 808 q 161 734 140 754 q 221 713 183 713 m 122 887 l 225 887 q 275 907 255 887 q 294 955 294 928 q 275 1002 294 982 q 225 1023 255 1023 l 122 1023 q 73 1002 92 1023 q 53 955 53 982 q 73 907 53 928 q 122 887 92 887 m 469 887 l 572 887 q 622 907 602 887 q 642 955 642 928 q 622 1002 642 982 q 572 1023 602 1023 l 469 1023 q 420 1002 439 1023 q 400 955 400 982 q 420 907 400 928 q 469 887 439 887 m 221 1061 l 473 1061 q 533 1081 511 1061 q 555 1128 555 1101 q 533 1176 555 1156 q 473 1196 511 1196 l 221 1196 q 161 1176 183 1196 q 140 1128 140 1156 q 161 1081 140 1101 q 221 1061 183 1061 z "},"Ã":{"ha":694,"x_min":-34,"x_max":728,"o":"m 35 19 l 138 19 q 188 39 168 19 q 208 87 208 60 q 188 134 208 114 q 138 155 168 155 l 35 155 q -14 134 5 155 q -34 87 -34 114 q -14 39 -34 60 q 35 19 5 19 m 556 19 l 659 19 q 709 39 689 19 q 728 87 728 60 q 709 134 728 114 q 659 155 689 155 l 556 155 q 507 134 526 155 q 487 87 487 114 q 507 39 487 60 q 556 19 526 19 m 35 193 l 138 193 q 188 213 168 193 q 208 260 208 233 q 188 308 208 288 q 138 328 168 328 l 35 328 q -14 308 5 328 q -34 260 -34 288 q -14 213 -34 233 q 35 193 5 193 m 556 193 l 659 193 q 709 213 689 193 q 728 260 728 233 q 709 308 728 288 q 659 328 689 328 l 556 328 q 507 308 526 328 q 487 260 487 288 q 507 213 487 233 q 556 193 526 193 m 134 366 l 560 366 q 620 387 598 366 q 642 434 642 407 q 620 481 642 461 q 560 502 598 502 l 134 502 q 75 481 96 502 q 53 434 53 461 q 75 387 53 407 q 134 366 96 366 m 122 540 l 225 540 q 275 560 255 540 q 294 608 294 581 q 275 655 294 635 q 225 675 255 675 l 122 675 q 73 655 92 675 q 53 608 53 635 q 73 560 53 581 q 122 540 92 540 m 469 540 l 572 540 q 622 560 602 540 q 642 608 642 581 q 622 655 642 635 q 572 675 602 675 l 469 675 q 420 655 439 675 q 400 608 400 635 q 420 560 400 581 q 469 540 439 540 m 221 713 l 473 713 q 533 734 511 713 q 555 781 555 754 q 533 829 555 808 q 473 849 511 849 l 221 849 q 161 829 183 849 q 140 781 140 808 q 161 734 140 754 q 221 713 183 713 m 20 887 l 66 887 q 105 907 90 887 q 121 955 121 928 q 105 1002 121 982 q 66 1023 90 1023 l 20 1023 q -18 1002 -3 1023 q -34 955 -34 982 q -18 907 -34 928 q 20 887 -3 887 m 382 887 l 572 887 q 622 907 602 887 q 642 955 642 928 q 622 1002 642 982 q 572 1023 602 1023 l 382 1023 q 333 1002 353 1023 q 313 955 313 982 q 333 907 313 928 q 382 887 353 887 m 122 1061 l 312 1061 q 361 1081 342 1061 q 381 1128 381 1101 q 361 1176 381 1156 q 312 1196 342 1196 l 122 1196 q 73 1176 92 1196 q 53 1128 53 1156 q 73 1081 53 1101 q 122 1061 92 1061 m 628 1061 l 674 1061 q 713 1081 697 1061 q 728 1128 728 1101 q 713 1176 728 1156 q 674 1196 697 1196 l 628 1196 q 589 1176 605 1196 q 574 1128 574 1156 q 589 1081 574 1101 q 628 1061 605 1061 z "},"Æ":{"ha":694,"x_min":-34,"x_max":728,"o":"m 35 19 l 138 19 q 188 39 168 19 q 208 87 208 60 q 188 134 208 114 q 138 155 168 155 l 35 155 q -14 134 5 155 q -34 87 -34 114 q -14 39 -34 60 q 35 19 5 19 m 395 19 l 647 19 q 707 39 685 19 q 728 87 728 60 q 707 134 728 114 q 647 155 685 155 l 395 155 q 335 134 357 155 q 313 87 313 114 q 335 39 313 60 q 395 19 357 19 m 35 193 l 138 193 q 188 213 168 193 q 208 260 208 233 q 188 308 208 288 q 138 328 168 328 l 35 328 q -14 308 5 328 q -34 260 -34 288 q -14 213 -34 233 q 35 193 5 193 m 382 193 l 486 193 q 535 213 515 193 q 555 260 555 233 q 535 308 555 288 q 486 328 515 328 l 382 328 q 333 308 353 328 q 313 260 313 288 q 333 213 313 233 q 382 193 353 193 m 134 366 l 473 366 q 533 387 511 366 q 555 434 555 407 q 533 481 555 461 q 473 502 511 502 l 134 502 q 75 481 96 502 q 53 434 53 461 q 75 387 53 407 q 134 366 96 366 m 122 540 l 225 540 q 275 560 255 540 q 294 608 294 581 q 275 655 294 635 q 225 675 255 675 l 122 675 q 73 655 92 675 q 53 608 53 635 q 73 560 53 581 q 122 540 92 540 m 395 540 l 647 540 q 707 560 685 540 q 728 608 728 581 q 707 655 728 635 q 647 675 685 675 l 395 675 q 335 655 357 675 q 313 608 313 635 q 335 560 313 581 q 395 540 357 540 m 221 713 l 473 713 q 533 734 511 713 q 555 781 555 754 q 533 829 555 808 q 473 849 511 849 l 221 849 q 161 829 183 849 q 140 781 140 808 q 161 734 140 754 q 221 713 183 713 m 221 887 l 473 887 q 533 907 511 887 q 555 955 555 928 q 533 1002 555 982 q 473 1023 511 1023 l 221 1023 q 161 1002 183 1023 q 140 955 140 982 q 161 907 140 928 q 221 887 183 887 m 308 1061 l 647 1061 q 707 1081 685 1061 q 728 1128 728 1101 q 707 1176 728 1156 q 647 1196 685 1196 l 308 1196 q 248 1176 270 1196 q 227 1128 227 1156 q 248 1081 227 1101 q 308 1061 270 1061 z "},"B":{"ha":694,"x_min":-34,"x_max":642,"o":"m 47 19 l 473 19 q 533 39 511 19 q 555 87 555 60 q 533 134 555 114 q 473 155 511 155 l 47 155 q -12 134 9 155 q -34 87 -34 114 q -12 39 -34 60 q 47 19 9 19 m 122 193 l 225 193 q 275 213 255 193 q 294 260 294 233 q 275 308 294 288 q 225 328 255 328 l 122 328 q 73 308 92 328 q 53 260 53 288 q 73 213 53 233 q 122 193 92 193 m 469 193 l 572 193 q 622 213 602 193 q 642 260 642 233 q 622 308 642 288 q 572 328 602 328 l 469 328 q 420 308 439 328 q 400 260 400 288 q 420 213 400 233 q 469 193 439 193 m 122 366 l 225 366 q 275 387 255 366 q 294 434 294 407 q 275 481 294 461 q 225 502 255 502 l 122 502 q 73 481 92 502 q 53 434 53 461 q 73 387 53 407 q 122 366 92 366 m 469 366 l 572 366 q 622 387 602 366 q 642 434 642 407 q 622 481 642 461 q 572 502 602 502 l 469 502 q 420 481 439 502 q 400 434 400 461 q 420 387 400 407 q 469 366 439 366 m 134 540 l 473 540 q 533 560 511 540 q 555 608 555 581 q 533 655 555 635 q 473 675 511 675 l 134 675 q 75 655 96 675 q 53 608 53 635 q 75 560 53 581 q 134 540 96 540 m 122 713 l 225 713 q 275 734 255 713 q 294 781 294 754 q 275 829 294 808 q 225 849 255 849 l 122 849 q 73 829 92 849 q 53 781 53 808 q 73 734 53 754 q 122 713 92 713 m 469 713 l 572 713 q 622 734 602 713 q 642 781 642 754 q 622 829 642 808 q 572 849 602 849 l 469 849 q 420 829 439 849 q 400 781 400 808 q 420 734 400 754 q 469 713 439 713 m 122 887 l 225 887 q 275 907 255 887 q 294 955 294 928 q 275 1002 294 982 q 225 1023 255 1023 l 122 1023 q 73 1002 92 1023 q 53 955 53 982 q 73 907 53 928 q 122 887 92 887 m 469 887 l 572 887 q 622 907 602 887 q 642 955 642 928 q 622 1002 642 982 q 572 1023 602 1023 l 469 1023 q 420 1002 439 1023 q 400 955 400 982 q 420 907 400 928 q 469 887 439 887 m 47 1061 l 473 1061 q 533 1081 511 1061 q 555 1128 555 1101 q 533 1176 555 1156 q 473 1196 511 1196 l 47 1196 q -12 1176 9 1196 q -34 1128 -34 1156 q -12 1081 -34 1101 q 47 1061 9 1061 z "},"C":{"ha":694,"x_min":-34,"x_max":642,"o":"m 221 19 l 473 19 q 533 39 511 19 q 555 87 555 60 q 533 134 555 114 q 473 155 511 155 l 221 155 q 161 134 183 155 q 140 87 140 114 q 161 39 140 60 q 221 19 183 19 m 122 193 l 225 193 q 275 213 255 193 q 294 260 294 233 q 275 308 294 288 q 225 328 255 328 l 122 328 q 73 308 92 328 q 53 260 53 288 q 73 213 53 233 q 122 193 92 193 m 469 193 l 572 193 q 622 213 602 193 q 642 260 642 233 q 622 308 642 288 q 572 328 602 328 l 469 328 q 420 308 439 328 q 400 260 400 288 q 420 213 400 233 q 469 193 439 193 m 35 366 l 138 366 q 188 387 168 366 q 208 434 208 407 q 188 481 208 461 q 138 502 168 502 l 35 502 q -14 481 5 502 q -34 434 -34 461 q -14 387 -34 407 q 35 366 5 366 m 35 540 l 138 540 q 188 560 168 540 q 208 608 208 581 q 188 655 208 635 q 138 675 168 675 l 35 675 q -14 655 5 675 q -34 608 -34 635 q -14 560 -34 581 q 35 540 5 540 m 35 713 l 138 713 q 188 734 168 713 q 208 781 208 754 q 188 829 208 808 q 138 849 168 849 l 35 849 q -14 829 5 849 q -34 781 -34 808 q -14 734 -34 754 q 35 713 5 713 m 122 887 l 225 887 q 275 907 255 887 q 294 955 294 928 q 275 1002 294 982 q 225 1023 255 1023 l 122 1023 q 73 1002 92 1023 q 53 955 53 982 q 73 907 53 928 q 122 887 92 887 m 469 887 l 572 887 q 622 907 602 887 q 642 955 642 928 q 622 1002 642 982 q 572 1023 602 1023 l 469 1023 q 420 1002 439 1023 q 400 955 400 982 q 420 907 400 928 q 469 887 439 887 m 221 1061 l 473 1061 q 533 1081 511 1061 q 555 1128 555 1101 q 533 1176 555 1156 q 473 1196 511 1196 l 221 1196 q 161 1176 183 1196 q 140 1128 140 1156 q 161 1081 140 1101 q 221 1061 183 1061 z "},"Ç":{"ha":694,"x_min":-34,"x_max":642,"o":"m 209 -155 l 312 -155 q 361 -134 342 -155 q 381 -87 381 -114 q 361 -39 381 -60 q 312 -19 342 -19 l 209 -19 q 159 -39 179 -19 q 140 -87 140 -60 q 159 -134 140 -114 q 209 -155 179 -155 m 368 19 l 414 19 q 452 39 437 19 q 468 87 468 60 q 452 134 468 114 q 414 155 437 155 l 368 155 q 329 134 345 155 q 313 87 313 114 q 329 39 313 60 q 368 19 345 19 m 221 193 l 473 193 q 533 213 511 193 q 555 260 555 233 q 533 308 555 288 q 473 328 511 328 l 221 328 q 161 308 183 328 q 140 260 140 288 q 161 213 140 233 q 221 193 183 193 m 122 366 l 225 366 q 275 387 255 366 q 294 434 294 407 q 275 481 294 461 q 225 502 255 502 l 122 502 q 73 481 92 502 q 53 434 53 461 q 73 387 53 407 q 122 366 92 366 m 469 366 l 572 366 q 622 387 602 366 q 642 434 642 407 q 622 481 642 461 q 572 502 602 502 l 469 502 q 420 481 439 502 q 400 434 400 461 q 420 387 400 407 q 469 366 439 366 m 35 540 l 138 540 q 188 560 168 540 q 208 608 208 581 q 188 655 208 635 q 138 675 168 675 l 35 675 q -14 655 5 675 q -34 608 -34 635 q -14 560 -34 581 q 35 540 5 540 m 35 713 l 138 713 q 188 734 168 713 q 208 781 208 754 q 188 829 208 808 q 138 849 168 849 l 35 849 q -14 829 5 849 q -34 781 -34 808 q -14 734 -34 754 q 35 713 5 713 m 122 887 l 225 887 q 275 907 255 887 q 294 955 294 928 q 275 1002 294 982 q 225 1023 255 1023 l 122 1023 q 73 1002 92 1023 q 53 955 53 982 q 73 907 53 928 q 122 887 92 887 m 469 887 l 572 887 q 622 907 602 887 q 642 955 642 928 q 622 1002 642 982 q 572 1023 602 1023 l 469 1023 q 420 1002 439 1023 q 400 955 400 982 q 420 907 400 928 q 469 887 439 887 m 221 1061 l 473 1061 q 533 1081 511 1061 q 555 1128 555 1101 q 533 1176 555 1156 q 473 1196 511 1196 l 221 1196 q 161 1176 183 1196 q 140 1128 140 1156 q 161 1081 140 1101 q 221 1061 183 1061 z "},"D":{"ha":694,"x_min":-34,"x_max":642,"o":"m 47 19 l 387 19 q 446 39 425 19 q 468 87 468 60 q 446 134 468 114 q 387 155 425 155 l 47 155 q -12 134 9 155 q -34 87 -34 114 q -12 39 -34 60 q 47 19 9 19 m 122 193 l 225 193 q 275 213 255 193 q 294 260 294 233 q 275 308 294 288 q 225 328 255 328 l 122 328 q 73 308 92 328 q 53 260 53 288 q 73 213 53 233 q 122 193 92 193 m 382 193 l 486 193 q 535 213 515 193 q 555 260 555 233 q 535 308 555 288 q 486 328 515 328 l 382 328 q 333 308 353 328 q 313 260 313 288 q 333 213 313 233 q 382 193 353 193 m 122 366 l 225 366 q 275 387 255 366 q 294 434 294 407 q 275 481 294 461 q 225 502 255 502 l 122 502 q 73 481 92 502 q 53 434 53 461 q 73 387 53 407 q 122 366 92 366 m 469 366 l 572 366 q 622 387 602 366 q 642 434 642 407 q 622 481 642 461 q 572 502 602 502 l 469 502 q 420 481 439 502 q 400 434 400 461 q 420 387 400 407 q 469 366 439 366 m 122 540 l 225 540 q 275 560 255 540 q 294 608 294 581 q 275 655 294 635 q 225 675 255 675 l 122 675 q 73 655 92 675 q 53 608 53 635 q 73 560 53 581 q 122 540 92 540 m 469 540 l 572 540 q 622 560 602 540 q 642 608 642 581 q 622 655 642 635 q 572 675 602 675 l 469 675 q 420 655 439 675 q 400 608 400 635 q 420 560 400 581 q 469 540 439 540 m 122 713 l 225 713 q 275 734 255 713 q 294 781 294 754 q 275 829 294 808 q 225 849 255 849 l 122 849 q 73 829 92 849 q 53 781 53 808 q 73 734 53 754 q 122 713 92 713 m 469 713 l 572 713 q 622 734 602 713 q 642 781 642 754 q 622 829 642 808 q 572 849 602 849 l 469 849 q 420 829 439 849 q 400 781 400 808 q 420 734 400 754 q 469 713 439 713 m 122 887 l 225 887 q 275 907 255 887 q 294 955 294 928 q 275 1002 294 982 q 225 1023 255 1023 l 122 1023 q 73 1002 92 1023 q 53 955 53 982 q 73 907 53 928 q 122 887 92 887 m 382 887 l 486 887 q 535 907 515 887 q 555 955 555 928 q 535 1002 555 982 q 486 1023 515 1023 l 382 1023 q 333 1002 353 1023 q 313 955 313 982 q 333 907 313 928 q 382 887 353 887 m 47 1061 l 387 1061 q 446 1081 425 1061 q 468 1128 468 1101 q 446 1176 468 1156 q 387 1196 425 1196 l 47 1196 q -12 1176 9 1196 q -34 1128 -34 1156 q -12 1081 -34 1101 q 47 1061 9 1061 z "},"Ð":{"ha":694,"x_min":-34,"x_max":642,"o":"m 47 19 l 387 19 q 446 39 425 19 q 468 87 468 60 q 446 134 468 114 q 387 155 425 155 l 47 155 q -12 134 9 155 q -34 87 -34 114 q -12 39 -34 60 q 47 19 9 19 m 122 193 l 225 193 q 275 213 255 193 q 294 260 294 233 q 275 308 294 288 q 225 328 255 328 l 122 328 q 73 308 92 328 q 53 260 53 288 q 73 213 53 233 q 122 193 92 193 m 382 193 l 486 193 q 535 213 515 193 q 555 260 555 233 q 535 308 555 288 q 486 328 515 328 l 382 328 q 333 308 353 328 q 313 260 313 288 q 333 213 313 233 q 382 193 353 193 m 122 366 l 225 366 q 275 387 255 366 q 294 434 294 407 q 275 481 294 461 q 225 502 255 502 l 122 502 q 73 481 92 502 q 53 434 53 461 q 73 387 53 407 q 122 366 92 366 m 469 366 l 572 366 q 622 387 602 366 q 642 434 642 407 q 622 481 642 461 q 572 502 602 502 l 469 502 q 420 481 439 502 q 400 434 400 461 q 420 387 400 407 q 469 366 439 366 m 47 540 l 300 540 q 359 560 338 540 q 381 608 381 581 q 359 655 381 635 q 300 675 338 675 l 47 675 q -12 655 9 675 q -34 608 -34 635 q -12 560 -34 581 q 47 540 9 540 m 469 540 l 572 540 q 622 560 602 540 q 642 608 642 581 q 622 655 642 635 q 572 675 602 675 l 469 675 q 420 655 439 675 q 400 608 400 635 q 420 560 400 581 q 469 540 439 540 m 122 713 l 225 713 q 275 734 255 713 q 294 781 294 754 q 275 829 294 808 q 225 849 255 849 l 122 849 q 73 829 92 849 q 53 781 53 808 q 73 734 53 754 q 122 713 92 713 m 469 713 l 572 713 q 622 734 602 713 q 642 781 642 754 q 622 829 642 808 q 572 849 602 849 l 469 849 q 420 829 439 849 q 400 781 400 808 q 420 734 400 754 q 469 713 439 713 m 122 887 l 225 887 q 275 907 255 887 q 294 955 294 928 q 275 1002 294 982 q 225 1023 255 1023 l 122 1023 q 73 1002 92 1023 q 53 955 53 982 q 73 907 53 928 q 122 887 92 887 m 382 887 l 486 887 q 535 907 515 887 q 555 955 555 928 q 535 1002 555 982 q 486 1023 515 1023 l 382 1023 q 333 1002 353 1023 q 313 955 313 982 q 333 907 313 928 q 382 887 353 887 m 47 1061 l 387 1061 q 446 1081 425 1061 q 468 1128 468 1101 q 446 1176 468 1156 q 387 1196 425 1196 l 47 1196 q -12 1176 9 1196 q -34 1128 -34 1156 q -12 1081 -34 1101 q 47 1061 9 1061 z "},"E":{"ha":694,"x_min":-34,"x_max":642,"o":"m 47 19 l 560 19 q 620 39 598 19 q 642 87 642 60 q 620 134 642 114 q 560 155 598 155 l 47 155 q -12 134 9 155 q -34 87 -34 114 q -12 39 -34 60 q 47 19 9 19 m 122 193 l 225 193 q 275 213 255 193 q 294 260 294 233 q 275 308 294 288 q 225 328 255 328 l 122 328 q 73 308 92 328 q 53 260 53 288 q 73 213 53 233 q 122 193 92 193 m 469 193 l 572 193 q 622 213 602 193 q 642 260 642 233 q 622 308 642 288 q 572 328 602 328 l 469 328 q 420 308 439 328 q 400 260 400 288 q 420 213 400 233 q 469 193 439 193 m 122 366 l 225 366 q 275 387 255 366 q 294 434 294 407 q 275 481 294 461 q 225 502 255 502 l 122 502 q 73 481 92 502 q 53 434 53 461 q 73 387 53 407 q 122 366 92 366 m 134 540 l 387 540 q 446 560 425 540 q 468 608 468 581 q 446 655 468 635 q 387 675 425 675 l 134 675 q 75 655 96 675 q 53 608 53 635 q 75 560 53 581 q 134 540 96 540 m 122 713 l 225 713 q 275 734 255 713 q 294 781 294 754 q 275 829 294 808 q 225 849 255 849 l 122 849 q 73 829 92 849 q 53 781 53 808 q 73 734 53 754 q 122 713 92 713 m 122 887 l 225 887 q 275 907 255 887 q 294 955 294 928 q 275 1002 294 982 q 225 1023 255 1023 l 122 1023 q 73 1002 92 1023 q 53 955 53 982 q 73 907 53 928 q 122 887 92 887 m 469 887 l 572 887 q 622 907 602 887 q 642 955 642 928 q 622 1002 642 982 q 572 1023 602 1023 l 469 1023 q 420 1002 439 1023 q 400 955 400 982 q 420 907 400 928 q 469 887 439 887 m 47 1061 l 560 1061 q 620 1081 598 1061 q 642 1128 642 1101 q 620 1176 642 1156 q 560 1196 598 1196 l 47 1196 q -12 1176 9 1196 q -34 1128 -34 1156 q -12 1081 -34 1101 q 47 1061 9 1061 z "},"É":{"ha":694,"x_min":-34,"x_max":642,"o":"m 47 19 l 560 19 q 620 39 598 19 q 642 87 642 60 q 620 134 642 114 q 560 155 598 155 l 47 155 q -12 134 9 155 q -34 87 -34 114 q -12 39 -34 60 q 47 19 9 19 m 122 193 l 225 193 q 275 213 255 193 q 294 260 294 233 q 275 308 294 288 q 225 328 255 328 l 122 328 q 73 308 92 328 q 53 260 53 288 q 73 213 53 233 q 122 193 92 193 m 134 366 l 387 366 q 446 387 425 366 q 468 434 468 407 q 446 481 468 461 q 387 502 425 502 l 134 502 q 75 481 96 502 q 53 434 53 461 q 75 387 53 407 q 134 366 96 366 m 122 540 l 225 540 q 275 560 255 540 q 294 608 294 581 q 275 655 294 635 q 225 675 255 675 l 122 675 q 73 655 92 675 q 53 608 53 635 q 73 560 53 581 q 122 540 92 540 m 47 713 l 560 713 q 620 734 598 713 q 642 781 642 754 q 620 829 642 808 q 560 849 598 849 l 47 849 q -12 829 9 849 q -34 781 -34 808 q -12 734 -34 754 q 47 713 9 713 m 194 887 l 240 887 q 279 907 263 887 q 294 955 294 928 q 279 1002 294 982 q 240 1023 263 1023 l 194 1023 q 155 1002 171 1023 q 140 955 140 982 q 155 907 140 928 q 194 887 171 887 m 296 1061 l 399 1061 q 448 1081 429 1061 q 468 1128 468 1101 q 448 1176 468 1156 q 399 1196 429 1196 l 296 1196 q 246 1176 266 1196 q 227 1128 227 1156 q 246 1081 227 1101 q 296 1061 266 1061 z "},"Ê":{"ha":694,"x_min":-34,"x_max":642,"o":"m 47 19 l 560 19 q 620 39 598 19 q 642 87 642 60 q 620 134 642 114 q 560 155 598 155 l 47 155 q -12 134 9 155 q -34 87 -34 114 q -12 39 -34 60 q 47 19 9 19 m 122 193 l 225 193 q 275 213 255 193 q 294 260 294 233 q 275 308 294 288 q 225 328 255 328 l 122 328 q 73 308 92 328 q 53 260 53 288 q 73 213 53 233 q 122 193 92 193 m 134 366 l 387 366 q 446 387 425 366 q 468 434 468 407 q 446 481 468 461 q 387 502 425 502 l 134 502 q 75 481 96 502 q 53 434 53 461 q 75 387 53 407 q 134 366 96 366 m 122 540 l 225 540 q 275 560 255 540 q 294 608 294 581 q 275 655 294 635 q 225 675 255 675 l 122 675 q 73 655 92 675 q 53 608 53 635 q 73 560 53 581 q 122 540 92 540 m 47 713 l 560 713 q 620 734 598 713 q 642 781 642 754 q 620 829 642 808 q 560 849 598 849 l 47 849 q -12 829 9 849 q -34 781 -34 808 q -12 734 -34 754 q 47 713 9 713 m 107 887 l 153 887 q 192 907 176 887 q 208 955 208 928 q 192 1002 208 982 q 153 1023 176 1023 l 107 1023 q 68 1002 84 1023 q 53 955 53 982 q 68 907 53 928 q 107 887 84 887 m 368 887 l 414 887 q 452 907 437 887 q 468 955 468 928 q 452 1002 468 982 q 414 1023 437 1023 l 368 1023 q 329 1002 345 1023 q 313 955 313 982 q 329 907 313 928 q 368 887 345 887 m 209 1061 l 312 1061 q 361 1081 342 1061 q 381 1128 381 1101 q 361 1176 381 1156 q 312 1196 342 1196 l 209 1196 q 159 1176 179 1196 q 140 1128 140 1156 q 159 1081 140 1101 q 209 1061 179 1061 z "},"Ë":{"ha":694,"x_min":-34,"x_max":642,"o":"m 47 19 l 560 19 q 620 39 598 19 q 642 87 642 60 q 620 134 642 114 q 560 155 598 155 l 47 155 q -12 134 9 155 q -34 87 -34 114 q -12 39 -34 60 q 47 19 9 19 m 122 193 l 225 193 q 275 213 255 193 q 294 260 294 233 q 275 308 294 288 q 225 328 255 328 l 122 328 q 73 308 92 328 q 53 260 53 288 q 73 213 53 233 q 122 193 92 193 m 134 366 l 387 366 q 446 387 425 366 q 468 434 468 407 q 446 481 468 461 q 387 502 425 502 l 134 502 q 75 481 96 502 q 53 434 53 461 q 75 387 53 407 q 134 366 96 366 m 122 540 l 225 540 q 275 560 255 540 q 294 608 294 581 q 275 655 294 635 q 225 675 255 675 l 122 675 q 73 655 92 675 q 53 608 53 635 q 73 560 53 581 q 122 540 92 540 m 47 713 l 560 713 q 620 734 598 713 q 642 781 642 754 q 620 829 642 808 q 560 849 598 849 l 47 849 q -12 829 9 849 q -34 781 -34 808 q -12 734 -34 754 q 47 713 9 713 m 122 1061 l 225 1061 q 275 1081 255 1061 q 294 1128 294 1101 q 275 1176 294 1156 q 225 1196 255 1196 l 122 1196 q 73 1176 92 1196 q 53 1128 53 1156 q 73 1081 53 1101 q 122 1061 92 1061 m 469 1061 l 572 1061 q 622 1081 602 1061 q 642 1128 642 1101 q 622 1176 642 1156 q 572 1196 602 1196 l 469 1196 q 420 1176 439 1196 q 400 1128 400 1156 q 420 1081 400 1101 q 469 1061 439 1061 z "},"È":{"ha":694,"x_min":-34,"x_max":642,"o":"m 47 19 l 560 19 q 620 39 598 19 q 642 87 642 60 q 620 134 642 114 q 560 155 598 155 l 47 155 q -12 134 9 155 q -34 87 -34 114 q -12 39 -34 60 q 47 19 9 19 m 122 193 l 225 193 q 275 213 255 193 q 294 260 294 233 q 275 308 294 288 q 225 328 255 328 l 122 328 q 73 308 92 328 q 53 260 53 288 q 73 213 53 233 q 122 193 92 193 m 134 366 l 387 366 q 446 387 425 366 q 468 434 468 407 q 446 481 468 461 q 387 502 425 502 l 134 502 q 75 481 96 502 q 53 434 53 461 q 75 387 53 407 q 134 366 96 366 m 122 540 l 225 540 q 275 560 255 540 q 294 608 294 581 q 275 655 294 635 q 225 675 255 675 l 122 675 q 73 655 92 675 q 53 608 53 635 q 73 560 53 581 q 122 540 92 540 m 47 713 l 560 713 q 620 734 598 713 q 642 781 642 754 q 620 829 642 808 q 560 849 598 849 l 47 849 q -12 829 9 849 q -34 781 -34 808 q -12 734 -34 754 q 47 713 9 713 m 281 887 l 327 887 q 366 907 350 887 q 381 955 381 928 q 366 1002 381 982 q 327 1023 350 1023 l 281 1023 q 242 1002 258 1023 q 227 955 227 982 q 242 907 227 928 q 281 887 258 887 m 122 1061 l 225 1061 q 275 1081 255 1061 q 294 1128 294 1101 q 275 1176 294 1156 q 225 1196 255 1196 l 122 1196 q 73 1176 92 1196 q 53 1128 53 1156 q 73 1081 53 1101 q 122 1061 92 1061 z "},"F":{"ha":694,"x_min":-34,"x_max":642,"o":"m 47 19 l 300 19 q 359 39 338 19 q 381 87 381 60 q 359 134 381 114 q 300 155 338 155 l 47 155 q -12 134 9 155 q -34 87 -34 114 q -12 39 -34 60 q 47 19 9 19 m 122 193 l 225 193 q 275 213 255 193 q 294 260 294 233 q 275 308 294 288 q 225 328 255 328 l 122 328 q 73 308 92 328 q 53 260 53 288 q 73 213 53 233 q 122 193 92 193 m 122 366 l 225 366 q 275 387 255 366 q 294 434 294 407 q 275 481 294 461 q 225 502 255 502 l 122 502 q 73 481 92 502 q 53 434 53 461 q 73 387 53 407 q 122 366 92 366 m 134 540 l 387 540 q 446 560 425 540 q 468 608 468 581 q 446 655 468 635 q 387 675 425 675 l 134 675 q 75 655 96 675 q 53 608 53 635 q 75 560 53 581 q 134 540 96 540 m 122 713 l 225 713 q 275 734 255 713 q 294 781 294 754 q 275 829 294 808 q 225 849 255 849 l 122 849 q 73 829 92 849 q 53 781 53 808 q 73 734 53 754 q 122 713 92 713 m 122 887 l 225 887 q 275 907 255 887 q 294 955 294 928 q 275 1002 294 982 q 225 1023 255 1023 l 122 1023 q 73 1002 92 1023 q 53 955 53 982 q 73 907 53 928 q 122 887 92 887 m 469 887 l 572 887 q 622 907 602 887 q 642 955 642 928 q 622 1002 642 982 q 572 1023 602 1023 l 469 1023 q 420 1002 439 1023 q 400 955 400 982 q 420 907 400 928 q 469 887 439 887 m 47 1061 l 560 1061 q 620 1081 598 1061 q 642 1128 642 1101 q 620 1176 642 1156 q 560 1196 598 1196 l 47 1196 q -12 1176 9 1196 q -34 1128 -34 1156 q -12 1081 -34 1101 q 47 1061 9 1061 z "},"G":{"ha":694,"x_min":-34,"x_max":642,"o":"m 221 19 l 560 19 q 620 39 598 19 q 642 87 642 60 q 620 134 642 114 q 560 155 598 155 l 221 155 q 161 134 183 155 q 140 87 140 114 q 161 39 140 60 q 221 19 183 19 m 122 193 l 225 193 q 275 213 255 193 q 294 260 294 233 q 275 308 294 288 q 225 328 255 328 l 122 328 q 73 308 92 328 q 53 260 53 288 q 73 213 53 233 q 122 193 92 193 m 469 193 l 572 193 q 622 213 602 193 q 642 260 642 233 q 622 308 642 288 q 572 328 602 328 l 469 328 q 420 308 439 328 q 400 260 400 288 q 420 213 400 233 q 469 193 439 193 m 35 366 l 138 366 q 188 387 168 366 q 208 434 208 407 q 188 481 208 461 q 138 502 168 502 l 35 502 q -14 481 5 502 q -34 434 -34 461 q -14 387 -34 407 q 35 366 5 366 m 469 366 l 572 366 q 622 387 602 366 q 642 434 642 407 q 622 481 642 461 q 572 502 602 502 l 469 502 q 420 481 439 502 q 400 434 400 461 q 420 387 400 407 q 469 366 439 366 m 35 540 l 138 540 q 188 560 168 540 q 208 608 208 581 q 188 655 208 635 q 138 675 168 675 l 35 675 q -14 655 5 675 q -34 608 -34 635 q -14 560 -34 581 q 35 540 5 540 m 382 540 l 572 540 q 622 560 602 540 q 642 608 642 581 q 622 655 642 635 q 572 675 602 675 l 382 675 q 333 655 353 675 q 313 608 313 635 q 333 560 313 581 q 382 540 353 540 m 35 713 l 138 713 q 188 734 168 713 q 208 781 208 754 q 188 829 208 808 q 138 849 168 849 l 35 849 q -14 829 5 849 q -34 781 -34 808 q -14 734 -34 754 q 35 713 5 713 m 122 887 l 225 887 q 275 907 255 887 q 294 955 294 928 q 275 1002 294 982 q 225 1023 255 1023 l 122 1023 q 73 1002 92 1023 q 53 955 53 982 q 73 907 53 928 q 122 887 92 887 m 469 887 l 572 887 q 622 907 602 887 q 642 955 642 928 q 622 1002 642 982 q 572 1023 602 1023 l 469 1023 q 420 1002 439 1023 q 400 955 400 982 q 420 907 400 928 q 469 887 439 887 m 221 1061 l 473 1061 q 533 1081 511 1061 q 555 1128 555 1101 q 533 1176 555 1156 q 473 1196 511 1196 l 221 1196 q 161 1176 183 1196 q 140 1128 140 1156 q 161 1081 140 1101 q 221 1061 183 1061 z "},"H":{"ha":694,"x_min":53,"x_max":642,"o":"m 122 19 l 225 19 q 275 39 255 19 q 294 87 294 60 q 275 134 294 114 q 225 155 255 155 l 122 155 q 73 134 92 155 q 53 87 53 114 q 73 39 53 60 q 122 19 92 19 m 469 19 l 572 19 q 622 39 602 19 q 642 87 642 60 q 622 134 642 114 q 572 155 602 155 l 469 155 q 420 134 439 155 q 400 87 400 114 q 420 39 400 60 q 469 19 439 19 m 122 193 l 225 193 q 275 213 255 193 q 294 260 294 233 q 275 308 294 288 q 225 328 255 328 l 122 328 q 73 308 92 328 q 53 260 53 288 q 73 213 53 233 q 122 193 92 193 m 469 193 l 572 193 q 622 213 602 193 q 642 260 642 233 q 622 308 642 288 q 572 328 602 328 l 469 328 q 420 308 439 328 q 400 260 400 288 q 420 213 400 233 q 469 193 439 193 m 122 366 l 225 366 q 275 387 255 366 q 294 434 294 407 q 275 481 294 461 q 225 502 255 502 l 122 502 q 73 481 92 502 q 53 434 53 461 q 73 387 53 407 q 122 366 92 366 m 469 366 l 572 366 q 622 387 602 366 q 642 434 642 407 q 622 481 642 461 q 572 502 602 502 l 469 502 q 420 481 439 502 q 400 434 400 461 q 420 387 400 407 q 469 366 439 366 m 134 540 l 560 540 q 620 560 598 540 q 642 608 642 581 q 620 655 642 635 q 560 675 598 675 l 134 675 q 75 655 96 675 q 53 608 53 635 q 75 560 53 581 q 134 540 96 540 m 122 713 l 225 713 q 275 734 255 713 q 294 781 294 754 q 275 829 294 808 q 225 849 255 849 l 122 849 q 73 829 92 849 q 53 781 53 808 q 73 734 53 754 q 122 713 92 713 m 469 713 l 572 713 q 622 734 602 713 q 642 781 642 754 q 622 829 642 808 q 572 849 602 849 l 469 849 q 420 829 439 849 q 400 781 400 808 q 420 734 400 754 q 469 713 439 713 m 122 887 l 225 887 q 275 907 255 887 q 294 955 294 928 q 275 1002 294 982 q 225 1023 255 1023 l 122 1023 q 73 1002 92 1023 q 53 955 53 982 q 73 907 53 928 q 122 887 92 887 m 469 887 l 572 887 q 622 907 602 887 q 642 955 642 928 q 622 1002 642 982 q 572 1023 602 1023 l 469 1023 q 420 1002 439 1023 q 400 955 400 982 q 420 907 400 928 q 469 887 439 887 m 122 1061 l 225 1061 q 275 1081 255 1061 q 294 1128 294 1101 q 275 1176 294 1156 q 225 1196 255 1196 l 122 1196 q 73 1176 92 1196 q 53 1128 53 1156 q 73 1081 53 1101 q 122 1061 92 1061 m 469 1061 l 572 1061 q 622 1081 602 1061 q 642 1128 642 1101 q 622 1176 642 1156 q 572 1196 602 1196 l 469 1196 q 420 1176 439 1196 q 400 1128 400 1156 q 420 1081 400 1101 q 469 1061 439 1061 z "},"I":{"ha":694,"x_min":53,"x_max":642,"o":"m 134 19 l 560 19 q 620 39 598 19 q 642 87 642 60 q 620 134 642 114 q 560 155 598 155 l 134 155 q 75 134 96 155 q 53 87 53 114 q 75 39 53 60 q 134 19 96 19 m 296 193 l 399 193 q 448 213 429 193 q 468 260 468 233 q 448 308 468 288 q 399 328 429 328 l 296 328 q 246 308 266 328 q 227 260 227 288 q 246 213 227 233 q 296 193 266 193 m 296 366 l 399 366 q 448 387 429 366 q 468 434 468 407 q 448 481 468 461 q 399 502 429 502 l 296 502 q 246 481 266 502 q 227 434 227 461 q 246 387 227 407 q 296 366 266 366 m 296 540 l 399 540 q 448 560 429 540 q 468 608 468 581 q 448 655 468 635 q 399 675 429 675 l 296 675 q 246 655 266 675 q 227 608 227 635 q 246 560 227 581 q 296 540 266 540 m 296 713 l 399 713 q 448 734 429 713 q 468 781 468 754 q 448 829 468 808 q 399 849 429 849 l 296 849 q 246 829 266 849 q 227 781 227 808 q 246 734 227 754 q 296 713 266 713 m 296 887 l 399 887 q 448 907 429 887 q 468 955 468 928 q 448 1002 468 982 q 399 1023 429 1023 l 296 1023 q 246 1002 266 1023 q 227 955 227 982 q 246 907 227 928 q 296 887 266 887 m 134 1061 l 560 1061 q 620 1081 598 1061 q 642 1128 642 1101 q 620 1176 642 1156 q 560 1196 598 1196 l 134 1196 q 75 1176 96 1196 q 53 1128 53 1156 q 75 1081 53 1101 q 134 1061 96 1061 z "},"Í":{"ha":694,"x_min":53,"x_max":642,"o":"m 134 19 l 560 19 q 620 39 598 19 q 642 87 642 60 q 620 134 642 114 q 560 155 598 155 l 134 155 q 75 134 96 155 q 53 87 53 114 q 75 39 53 60 q 134 19 96 19 m 296 193 l 399 193 q 448 213 429 193 q 468 260 468 233 q 448 308 468 288 q 399 328 429 328 l 296 328 q 246 308 266 328 q 227 260 227 288 q 246 213 227 233 q 296 193 266 193 m 296 366 l 399 366 q 448 387 429 366 q 468 434 468 407 q 448 481 468 461 q 399 502 429 502 l 296 502 q 246 481 266 502 q 227 434 227 461 q 246 387 227 407 q 296 366 266 366 m 296 540 l 399 540 q 448 560 429 540 q 468 608 468 581 q 448 655 468 635 q 399 675 429 675 l 296 675 q 246 655 266 675 q 227 608 227 635 q 246 560 227 581 q 296 540 266 540 m 134 713 l 560 713 q 620 734 598 713 q 642 781 642 754 q 620 829 642 808 q 560 849 598 849 l 134 849 q 75 829 96 849 q 53 781 53 808 q 75 734 53 754 q 134 713 96 713 m 281 887 l 327 887 q 366 907 350 887 q 381 955 381 928 q 366 1002 381 982 q 327 1023 350 1023 l 281 1023 q 242 1002 258 1023 q 227 955 227 982 q 242 907 227 928 q 281 887 258 887 m 382 1061 l 486 1061 q 535 1081 515 1061 q 555 1128 555 1101 q 535 1176 555 1156 q 486 1196 515 1196 l 382 1196 q 333 1176 353 1196 q 313 1128 313 1156 q 333 1081 313 1101 q 382 1061 353 1061 z "},"Î":{"ha":694,"x_min":53,"x_max":642,"o":"m 134 19 l 560 19 q 620 39 598 19 q 642 87 642 60 q 620 134 642 114 q 560 155 598 155 l 134 155 q 75 134 96 155 q 53 87 53 114 q 75 39 53 60 q 134 19 96 19 m 296 193 l 399 193 q 448 213 429 193 q 468 260 468 233 q 448 308 468 288 q 399 328 429 328 l 296 328 q 246 308 266 328 q 227 260 227 288 q 246 213 227 233 q 296 193 266 193 m 296 366 l 399 366 q 448 387 429 366 q 468 434 468 407 q 448 481 468 461 q 399 502 429 502 l 296 502 q 246 481 266 502 q 227 434 227 461 q 246 387 227 407 q 296 366 266 366 m 296 540 l 399 540 q 448 560 429 540 q 468 608 468 581 q 448 655 468 635 q 399 675 429 675 l 296 675 q 246 655 266 675 q 227 608 227 635 q 246 560 227 581 q 296 540 266 540 m 134 713 l 560 713 q 620 734 598 713 q 642 781 642 754 q 620 829 642 808 q 560 849 598 849 l 134 849 q 75 829 96 849 q 53 781 53 808 q 75 734 53 754 q 134 713 96 713 m 194 887 l 240 887 q 279 907 263 887 q 294 955 294 928 q 279 1002 294 982 q 240 1023 263 1023 l 194 1023 q 155 1002 171 1023 q 140 955 140 982 q 155 907 140 928 q 194 887 171 887 m 454 887 l 500 887 q 539 907 524 887 q 555 955 555 928 q 539 1002 555 982 q 500 1023 524 1023 l 454 1023 q 416 1002 431 1023 q 400 955 400 982 q 416 907 400 928 q 454 887 431 887 m 296 1061 l 399 1061 q 448 1081 429 1061 q 468 1128 468 1101 q 448 1176 468 1156 q 399 1196 429 1196 l 296 1196 q 246 1176 266 1196 q 227 1128 227 1156 q 246 1081 227 1101 q 296 1061 266 1061 z "},"Ï":{"ha":694,"x_min":53,"x_max":642,"o":"m 134 19 l 560 19 q 620 39 598 19 q 642 87 642 60 q 620 134 642 114 q 560 155 598 155 l 134 155 q 75 134 96 155 q 53 87 53 114 q 75 39 53 60 q 134 19 96 19 m 296 193 l 399 193 q 448 213 429 193 q 468 260 468 233 q 448 308 468 288 q 399 328 429 328 l 296 328 q 246 308 266 328 q 227 260 227 288 q 246 213 227 233 q 296 193 266 193 m 296 366 l 399 366 q 448 387 429 366 q 468 434 468 407 q 448 481 468 461 q 399 502 429 502 l 296 502 q 246 481 266 502 q 227 434 227 461 q 246 387 227 407 q 296 366 266 366 m 296 540 l 399 540 q 448 560 429 540 q 468 608 468 581 q 448 655 468 635 q 399 675 429 675 l 296 675 q 246 655 266 675 q 227 608 227 635 q 246 560 227 581 q 296 540 266 540 m 134 713 l 560 713 q 620 734 598 713 q 642 781 642 754 q 620 829 642 808 q 560 849 598 849 l 134 849 q 75 829 96 849 q 53 781 53 808 q 75 734 53 754 q 134 713 96 713 m 122 1061 l 225 1061 q 275 1081 255 1061 q 294 1128 294 1101 q 275 1176 294 1156 q 225 1196 255 1196 l 122 1196 q 73 1176 92 1196 q 53 1128 53 1156 q 73 1081 53 1101 q 122 1061 92 1061 m 469 1061 l 572 1061 q 622 1081 602 1061 q 642 1128 642 1101 q 622 1176 642 1156 q 572 1196 602 1196 l 469 1196 q 420 1176 439 1196 q 400 1128 400 1156 q 420 1081 400 1101 q 469 1061 439 1061 z "},"Ì":{"ha":694,"x_min":53,"x_max":642,"o":"m 134 19 l 560 19 q 620 39 598 19 q 642 87 642 60 q 620 134 642 114 q 560 155 598 155 l 134 155 q 75 134 96 155 q 53 87 53 114 q 75 39 53 60 q 134 19 96 19 m 296 193 l 399 193 q 448 213 429 193 q 468 260 468 233 q 448 308 468 288 q 399 328 429 328 l 296 328 q 246 308 266 328 q 227 260 227 288 q 246 213 227 233 q 296 193 266 193 m 296 366 l 399 366 q 448 387 429 366 q 468 434 468 407 q 448 481 468 461 q 399 502 429 502 l 296 502 q 246 481 266 502 q 227 434 227 461 q 246 387 227 407 q 296 366 266 366 m 296 540 l 399 540 q 448 560 429 540 q 468 608 468 581 q 448 655 468 635 q 399 675 429 675 l 296 675 q 246 655 266 675 q 227 608 227 635 q 246 560 227 581 q 296 540 266 540 m 134 713 l 560 713 q 620 734 598 713 q 642 781 642 754 q 620 829 642 808 q 560 849 598 849 l 134 849 q 75 829 96 849 q 53 781 53 808 q 75 734 53 754 q 134 713 96 713 m 368 887 l 414 887 q 452 907 437 887 q 468 955 468 928 q 452 1002 468 982 q 414 1023 437 1023 l 368 1023 q 329 1002 345 1023 q 313 955 313 982 q 329 907 313 928 q 368 887 345 887 m 209 1061 l 312 1061 q 361 1081 342 1061 q 381 1128 381 1101 q 361 1176 381 1156 q 312 1196 342 1196 l 209 1196 q 159 1176 179 1196 q 140 1128 140 1156 q 159 1081 140 1101 q 209 1061 179 1061 z "},"J":{"ha":694,"x_min":53,"x_max":642,"o":"m 221 19 l 473 19 q 533 39 511 19 q 555 87 555 60 q 533 134 555 114 q 473 155 511 155 l 221 155 q 161 134 183 155 q 140 87 140 114 q 161 39 140 60 q 221 19 183 19 m 122 193 l 225 193 q 275 213 255 193 q 294 260 294 233 q 275 308 294 288 q 225 328 255 328 l 122 328 q 73 308 92 328 q 53 260 53 288 q 73 213 53 233 q 122 193 92 193 m 469 193 l 572 193 q 622 213 602 193 q 642 260 642 233 q 622 308 642 288 q 572 328 602 328 l 469 328 q 420 308 439 328 q 400 260 400 288 q 420 213 400 233 q 469 193 439 193 m 122 366 l 225 366 q 275 387 255 366 q 294 434 294 407 q 275 481 294 461 q 225 502 255 502 l 122 502 q 73 481 92 502 q 53 434 53 461 q 73 387 53 407 q 122 366 92 366 m 469 366 l 572 366 q 622 387 602 366 q 642 434 642 407 q 622 481 642 461 q 572 502 602 502 l 469 502 q 420 481 439 502 q 400 434 400 461 q 420 387 400 407 q 469 366 439 366 m 469 540 l 572 540 q 622 560 602 540 q 642 608 642 581 q 622 655 642 635 q 572 675 602 675 l 469 675 q 420 655 439 675 q 400 608 400 635 q 420 560 400 581 q 469 540 439 540 m 469 713 l 572 713 q 622 734 602 713 q 642 781 642 754 q 622 829 642 808 q 572 849 602 849 l 469 849 q 420 829 439 849 q 400 781 400 808 q 420 734 400 754 q 469 713 439 713 m 469 887 l 572 887 q 622 907 602 887 q 642 955 642 928 q 622 1002 642 982 q 572 1023 602 1023 l 469 1023 q 420 1002 439 1023 q 400 955 400 982 q 420 907 400 928 q 469 887 439 887 m 382 1061 l 572 1061 q 622 1081 602 1061 q 642 1128 642 1101 q 622 1176 642 1156 q 572 1196 602 1196 l 382 1196 q 333 1176 353 1196 q 313 1128 313 1156 q 333 1081 313 1101 q 382 1061 353 1061 z "},"K":{"ha":694,"x_min":-34,"x_max":642,"o":"m 35 19 l 225 19 q 275 39 255 19 q 294 87 294 60 q 275 134 294 114 q 225 155 255 155 l 35 155 q -14 134 5 155 q -34 87 -34 114 q -14 39 -34 60 q 35 19 5 19 m 469 19 l 572 19 q 622 39 602 19 q 642 87 642 60 q 622 134 642 114 q 572 155 602 155 l 469 155 q 420 134 439 155 q 400 87 400 114 q 420 39 400 60 q 469 19 439 19 m 122 193 l 225 193 q 275 213 255 193 q 294 260 294 233 q 275 308 294 288 q 225 328 255 328 l 122 328 q 73 308 92 328 q 53 260 53 288 q 73 213 53 233 q 122 193 92 193 m 469 193 l 572 193 q 622 213 602 193 q 642 260 642 233 q 622 308 642 288 q 572 328 602 328 l 469 328 q 420 308 439 328 q 400 260 400 288 q 420 213 400 233 q 469 193 439 193 m 122 366 l 225 366 q 275 387 255 366 q 294 434 294 407 q 275 481 294 461 q 225 502 255 502 l 122 502 q 73 481 92 502 q 53 434 53 461 q 73 387 53 407 q 122 366 92 366 m 382 366 l 486 366 q 535 387 515 366 q 555 434 555 407 q 535 481 555 461 q 486 502 515 502 l 382 502 q 333 481 353 502 q 313 434 313 461 q 333 387 313 407 q 382 366 353 366 m 134 540 l 387 540 q 446 560 425 540 q 468 608 468 581 q 446 655 468 635 q 387 675 425 675 l 134 675 q 75 655 96 675 q 53 608 53 635 q 75 560 53 581 q 134 540 96 540 m 122 713 l 225 713 q 275 734 255 713 q 294 781 294 754 q 275 829 294 808 q 225 849 255 849 l 122 849 q 73 829 92 849 q 53 781 53 808 q 73 734 53 754 q 122 713 92 713 m 382 713 l 486 713 q 535 734 515 713 q 555 781 555 754 q 535 829 555 808 q 486 849 515 849 l 382 849 q 333 829 353 849 q 313 781 313 808 q 333 734 313 754 q 382 713 353 713 m 122 887 l 225 887 q 275 907 255 887 q 294 955 294 928 q 275 1002 294 982 q 225 1023 255 1023 l 122 1023 q 73 1002 92 1023 q 53 955 53 982 q 73 907 53 928 q 122 887 92 887 m 469 887 l 572 887 q 622 907 602 887 q 642 955 642 928 q 622 1002 642 982 q 572 1023 602 1023 l 469 1023 q 420 1002 439 1023 q 400 955 400 982 q 420 907 400 928 q 469 887 439 887 m 35 1061 l 225 1061 q 275 1081 255 1061 q 294 1128 294 1101 q 275 1176 294 1156 q 225 1196 255 1196 l 35 1196 q -14 1176 5 1196 q -34 1128 -34 1156 q -14 1081 -34 1101 q 35 1061 5 1061 m 469 1061 l 572 1061 q 622 1081 602 1061 q 642 1128 642 1101 q 622 1176 642 1156 q 572 1196 602 1196 l 469 1196 q 420 1176 439 1196 q 400 1128 400 1156 q 420 1081 400 1101 q 469 1061 439 1061 z "},"L":{"ha":694,"x_min":-34,"x_max":642,"o":"m 47 19 l 560 19 q 620 39 598 19 q 642 87 642 60 q 620 134 642 114 q 560 155 598 155 l 47 155 q -12 134 9 155 q -34 87 -34 114 q -12 39 -34 60 q 47 19 9 19 m 122 193 l 225 193 q 275 213 255 193 q 294 260 294 233 q 275 308 294 288 q 225 328 255 328 l 122 328 q 73 308 92 328 q 53 260 53 288 q 73 213 53 233 q 122 193 92 193 m 469 193 l 572 193 q 622 213 602 193 q 642 260 642 233 q 622 308 642 288 q 572 328 602 328 l 469 328 q 420 308 439 328 q 400 260 400 288 q 420 213 400 233 q 469 193 439 193 m 122 366 l 225 366 q 275 387 255 366 q 294 434 294 407 q 275 481 294 461 q 225 502 255 502 l 122 502 q 73 481 92 502 q 53 434 53 461 q 73 387 53 407 q 122 366 92 366 m 541 366 l 587 366 q 626 387 610 366 q 642 434 642 407 q 626 481 642 461 q 587 502 610 502 l 541 502 q 503 481 518 502 q 487 434 487 461 q 503 387 487 407 q 541 366 518 366 m 122 540 l 225 540 q 275 560 255 540 q 294 608 294 581 q 275 655 294 635 q 225 675 255 675 l 122 675 q 73 655 92 675 q 53 608 53 635 q 73 560 53 581 q 122 540 92 540 m 122 713 l 225 713 q 275 734 255 713 q 294 781 294 754 q 275 829 294 808 q 225 849 255 849 l 122 849 q 73 829 92 849 q 53 781 53 808 q 73 734 53 754 q 122 713 92 713 m 122 887 l 225 887 q 275 907 255 887 q 294 955 294 928 q 275 1002 294 982 q 225 1023 255 1023 l 122 1023 q 73 1002 92 1023 q 53 955 53 982 q 73 907 53 928 q 122 887 92 887 m 47 1061 l 300 1061 q 359 1081 338 1061 q 381 1128 381 1101 q 359 1176 381 1156 q 300 1196 338 1196 l 47 1196 q -12 1176 9 1196 q -34 1128 -34 1156 q -12 1081 -34 1101 q 47 1061 9 1061 z "},"M":{"ha":694,"x_min":-34,"x_max":642,"o":"m 35 19 l 138 19 q 188 39 168 19 q 208 87 208 60 q 188 134 208 114 q 138 155 168 155 l 35 155 q -14 134 5 155 q -34 87 -34 114 q -14 39 -34 60 q 35 19 5 19 m 469 19 l 572 19 q 622 39 602 19 q 642 87 642 60 q 622 134 642 114 q 572 155 602 155 l 469 155 q 420 134 439 155 q 400 87 400 114 q 420 39 400 60 q 469 19 439 19 m 35 193 l 138 193 q 188 213 168 193 q 208 260 208 233 q 188 308 208 288 q 138 328 168 328 l 35 328 q -14 308 5 328 q -34 260 -34 288 q -14 213 -34 233 q 35 193 5 193 m 469 193 l 572 193 q 622 213 602 193 q 642 260 642 233 q 622 308 642 288 q 572 328 602 328 l 469 328 q 420 308 439 328 q 400 260 400 288 q 420 213 400 233 q 469 193 439 193 m 35 366 l 138 366 q 188 387 168 366 q 208 434 208 407 q 188 481 208 461 q 138 502 168 502 l 35 502 q -14 481 5 502 q -34 434 -34 461 q -14 387 -34 407 q 35 366 5 366 m 281 366 l 327 366 q 366 387 350 366 q 381 434 381 407 q 366 481 381 461 q 327 502 350 502 l 281 502 q 242 481 258 502 q 227 434 227 461 q 242 387 227 407 q 281 366 258 366 m 469 366 l 572 366 q 622 387 602 366 q 642 434 642 407 q 622 481 642 461 q 572 502 602 502 l 469 502 q 420 481 439 502 q 400 434 400 461 q 420 387 400 407 q 469 366 439 366 m 47 540 l 560 540 q 620 560 598 540 q 642 608 642 581 q 620 655 642 635 q 560 675 598 675 l 47 675 q -12 655 9 675 q -34 608 -34 635 q -12 560 -34 581 q 47 540 9 540 m 35 713 l 225 713 q 275 734 255 713 q 294 781 294 754 q 275 829 294 808 q 225 849 255 849 l 35 849 q -14 829 5 849 q -34 781 -34 808 q -14 734 -34 754 q 35 713 5 713 m 382 713 l 572 713 q 622 734 602 713 q 642 781 642 754 q 622 829 642 808 q 572 849 602 849 l 382 849 q 333 829 353 849 q 313 781 313 808 q 333 734 313 754 q 382 713 353 713 m 35 887 l 138 887 q 188 907 168 887 q 208 955 208 928 q 188 1002 208 982 q 138 1023 168 1023 l 35 1023 q -14 1002 5 1023 q -34 955 -34 982 q -14 907 -34 928 q 35 887 5 887 m 469 887 l 572 887 q 622 907 602 887 q 642 955 642 928 q 622 1002 642 982 q 572 1023 602 1023 l 469 1023 q 420 1002 439 1023 q 400 955 400 982 q 420 907 400 928 q 469 887 439 887 m 20 1061 l 66 1061 q 105 1081 90 1061 q 121 1128 121 1101 q 105 1176 121 1156 q 66 1196 90 1196 l 20 1196 q -18 1176 -3 1196 q -34 1128 -34 1156 q -18 1081 -34 1101 q 20 1061 -3 1061 m 541 1061 l 587 1061 q 626 1081 610 1061 q 642 1128 642 1101 q 626 1176 642 1156 q 587 1196 610 1196 l 541 1196 q 503 1176 518 1196 q 487 1128 487 1156 q 503 1081 487 1101 q 541 1061 518 1061 z "},"N":{"ha":694,"x_min":-34,"x_max":642,"o":"m 35 19 l 138 19 q 188 39 168 19 q 208 87 208 60 q 188 134 208 114 q 138 155 168 155 l 35 155 q -14 134 5 155 q -34 87 -34 114 q -14 39 -34 60 q 35 19 5 19 m 469 19 l 572 19 q 622 39 602 19 q 642 87 642 60 q 622 134 642 114 q 572 155 602 155 l 469 155 q 420 134 439 155 q 400 87 400 114 q 420 39 400 60 q 469 19 439 19 m 35 193 l 138 193 q 188 213 168 193 q 208 260 208 233 q 188 308 208 288 q 138 328 168 328 l 35 328 q -14 308 5 328 q -34 260 -34 288 q -14 213 -34 233 q 35 193 5 193 m 469 193 l 572 193 q 622 213 602 193 q 642 260 642 233 q 622 308 642 288 q 572 328 602 328 l 469 328 q 420 308 439 328 q 400 260 400 288 q 420 213 400 233 q 469 193 439 193 m 35 366 l 138 366 q 188 387 168 366 q 208 434 208 407 q 188 481 208 461 q 138 502 168 502 l 35 502 q -14 481 5 502 q -34 434 -34 461 q -14 387 -34 407 q 35 366 5 366 m 382 366 l 572 366 q 622 387 602 366 q 642 434 642 407 q 622 481 642 461 q 572 502 602 502 l 382 502 q 333 481 353 502 q 313 434 313 461 q 333 387 313 407 q 382 366 353 366 m 35 540 l 138 540 q 188 560 168 540 q 208 608 208 581 q 188 655 208 635 q 138 675 168 675 l 35 675 q -14 655 5 675 q -34 608 -34 635 q -14 560 -34 581 q 35 540 5 540 m 308 540 l 560 540 q 620 560 598 540 q 642 608 642 581 q 620 655 642 635 q 560 675 598 675 l 308 675 q 248 655 270 675 q 227 608 227 635 q 248 560 227 581 q 308 540 270 540 m 47 713 l 300 713 q 359 734 338 713 q 381 781 381 754 q 359 829 381 808 q 300 849 338 849 l 47 849 q -12 829 9 849 q -34 781 -34 808 q -12 734 -34 754 q 47 713 9 713 m 469 713 l 572 713 q 622 734 602 713 q 642 781 642 754 q 622 829 642 808 q 572 849 602 849 l 469 849 q 420 829 439 849 q 400 781 400 808 q 420 734 400 754 q 469 713 439 713 m 35 887 l 225 887 q 275 907 255 887 q 294 955 294 928 q 275 1002 294 982 q 225 1023 255 1023 l 35 1023 q -14 1002 5 1023 q -34 955 -34 982 q -14 907 -34 928 q 35 887 5 887 m 469 887 l 572 887 q 622 907 602 887 q 642 955 642 928 q 622 1002 642 982 q 572 1023 602 1023 l 469 1023 q 420 1002 439 1023 q 400 955 400 982 q 420 907 400 928 q 469 887 439 887 m 35 1061 l 138 1061 q 188 1081 168 1061 q 208 1128 208 1101 q 188 1176 208 1156 q 138 1196 168 1196 l 35 1196 q -14 1176 5 1196 q -34 1128 -34 1156 q -14 1081 -34 1101 q 35 1061 5 1061 m 469 1061 l 572 1061 q 622 1081 602 1061 q 642 1128 642 1101 q 622 1176 642 1156 q 572 1196 602 1196 l 469 1196 q 420 1176 439 1196 q 400 1128 400 1156 q 420 1081 400 1101 q 469 1061 439 1061 z "},"Ñ":{"ha":694,"x_min":-34,"x_max":728,"o":"m 35 19 l 138 19 q 188 39 168 19 q 208 87 208 60 q 188 134 208 114 q 138 155 168 155 l 35 155 q -14 134 5 155 q -34 87 -34 114 q -14 39 -34 60 q 35 19 5 19 m 469 19 l 572 19 q 622 39 602 19 q 642 87 642 60 q 622 134 642 114 q 572 155 602 155 l 469 155 q 420 134 439 155 q 400 87 400 114 q 420 39 400 60 q 469 19 439 19 m 35 193 l 138 193 q 188 213 168 193 q 208 260 208 233 q 188 308 208 288 q 138 328 168 328 l 35 328 q -14 308 5 328 q -34 260 -34 288 q -14 213 -34 233 q 35 193 5 193 m 382 193 l 572 193 q 622 213 602 193 q 642 260 642 233 q 622 308 642 288 q 572 328 602 328 l 382 328 q 333 308 353 328 q 313 260 313 288 q 333 213 313 233 q 382 193 353 193 m 35 366 l 138 366 q 188 387 168 366 q 208 434 208 407 q 188 481 208 461 q 138 502 168 502 l 35 502 q -14 481 5 502 q -34 434 -34 461 q -14 387 -34 407 q 35 366 5 366 m 308 366 l 560 366 q 620 387 598 366 q 642 434 642 407 q 620 481 642 461 q 560 502 598 502 l 308 502 q 248 481 270 502 q 227 434 227 461 q 248 387 227 407 q 308 366 270 366 m 35 540 l 225 540 q 275 560 255 540 q 294 608 294 581 q 275 655 294 635 q 225 675 255 675 l 35 675 q -14 655 5 675 q -34 608 -34 635 q -14 560 -34 581 q 35 540 5 540 m 469 540 l 572 540 q 622 560 602 540 q 642 608 642 581 q 622 655 642 635 q 572 675 602 675 l 469 675 q 420 655 439 675 q 400 608 400 635 q 420 560 400 581 q 469 540 439 540 m 35 713 l 138 713 q 188 734 168 713 q 208 781 208 754 q 188 829 208 808 q 138 849 168 849 l 35 849 q -14 829 5 849 q -34 781 -34 808 q -14 734 -34 754 q 35 713 5 713 m 469 713 l 572 713 q 622 734 602 713 q 642 781 642 754 q 622 829 642 808 q 572 849 602 849 l 469 849 q 420 829 439 849 q 400 781 400 808 q 420 734 400 754 q 469 713 439 713 m 20 887 l 66 887 q 105 907 90 887 q 121 955 121 928 q 105 1002 121 982 q 66 1023 90 1023 l 20 1023 q -18 1002 -3 1023 q -34 955 -34 982 q -18 907 -34 928 q 20 887 -3 887 m 382 887 l 572 887 q 622 907 602 887 q 642 955 642 928 q 622 1002 642 982 q 572 1023 602 1023 l 382 1023 q 333 1002 353 1023 q 313 955 313 982 q 333 907 313 928 q 382 887 353 887 m 122 1061 l 312 1061 q 361 1081 342 1061 q 381 1128 381 1101 q 361 1176 381 1156 q 312 1196 342 1196 l 122 1196 q 73 1176 92 1196 q 53 1128 53 1156 q 73 1081 53 1101 q 122 1061 92 1061 m 628 1061 l 674 1061 q 713 1081 697 1061 q 728 1128 728 1101 q 713 1176 728 1156 q 674 1196 697 1196 l 628 1196 q 589 1176 605 1196 q 574 1128 574 1156 q 589 1081 574 1101 q 628 1061 605 1061 z "},"O":{"ha":694,"x_min":-34,"x_max":642,"o":"m 209 19 l 399 19 q 448 39 429 19 q 468 87 468 60 q 448 134 468 114 q 399 155 429 155 l 209 155 q 159 134 179 155 q 140 87 140 114 q 159 39 140 60 q 209 19 179 19 m 122 193 l 225 193 q 275 213 255 193 q 294 260 294 233 q 275 308 294 288 q 225 328 255 328 l 122 328 q 73 308 92 328 q 53 260 53 288 q 73 213 53 233 q 122 193 92 193 m 382 193 l 486 193 q 535 213 515 193 q 555 260 555 233 q 535 308 555 288 q 486 328 515 328 l 382 328 q 333 308 353 328 q 313 260 313 288 q 333 213 313 233 q 382 193 353 193 m 35 366 l 138 366 q 188 387 168 366 q 208 434 208 407 q 188 481 208 461 q 138 502 168 502 l 35 502 q -14 481 5 502 q -34 434 -34 461 q -14 387 -34 407 q 35 366 5 366 m 469 366 l 572 366 q 622 387 602 366 q 642 434 642 407 q 622 481 642 461 q 572 502 602 502 l 469 502 q 420 481 439 502 q 400 434 400 461 q 420 387 400 407 q 469 366 439 366 m 35 540 l 138 540 q 188 560 168 540 q 208 608 208 581 q 188 655 208 635 q 138 675 168 675 l 35 675 q -14 655 5 675 q -34 608 -34 635 q -14 560 -34 581 q 35 540 5 540 m 469 540 l 572 540 q 622 560 602 540 q 642 608 642 581 q 622 655 642 635 q 572 675 602 675 l 469 675 q 420 655 439 675 q 400 608 400 635 q 420 560 400 581 q 469 540 439 540 m 35 713 l 138 713 q 188 734 168 713 q 208 781 208 754 q 188 829 208 808 q 138 849 168 849 l 35 849 q -14 829 5 849 q -34 781 -34 808 q -14 734 -34 754 q 35 713 5 713 m 469 713 l 572 713 q 622 734 602 713 q 642 781 642 754 q 622 829 642 808 q 572 849 602 849 l 469 849 q 420 829 439 849 q 400 781 400 808 q 420 734 400 754 q 469 713 439 713 m 122 887 l 225 887 q 275 907 255 887 q 294 955 294 928 q 275 1002 294 982 q 225 1023 255 1023 l 122 1023 q 73 1002 92 1023 q 53 955 53 982 q 73 907 53 928 q 122 887 92 887 m 382 887 l 486 887 q 535 907 515 887 q 555 955 555 928 q 535 1002 555 982 q 486 1023 515 1023 l 382 1023 q 333 1002 353 1023 q 313 955 313 982 q 333 907 313 928 q 382 887 353 887 m 209 1061 l 399 1061 q 448 1081 429 1061 q 468 1128 468 1101 q 448 1176 468 1156 q 399 1196 429 1196 l 209 1196 q 159 1176 179 1196 q 140 1128 140 1156 q 159 1081 140 1101 q 209 1061 179 1061 z "},"Ó":{"ha":694,"x_min":-34,"x_max":728,"o":"m 221 19 l 473 19 q 533 39 511 19 q 555 87 555 60 q 533 134 555 114 q 473 155 511 155 l 221 155 q 161 134 183 155 q 140 87 140 114 q 161 39 140 60 q 221 19 183 19 m 122 193 l 225 193 q 275 213 255 193 q 294 260 294 233 q 275 308 294 288 q 225 328 255 328 l 122 328 q 73 308 92 328 q 53 260 53 288 q 73 213 53 233 q 122 193 92 193 m 469 193 l 572 193 q 622 213 602 193 q 642 260 642 233 q 622 308 642 288 q 572 328 602 328 l 469 328 q 420 308 439 328 q 400 260 400 288 q 420 213 400 233 q 469 193 439 193 m 35 366 l 138 366 q 188 387 168 366 q 208 434 208 407 q 188 481 208 461 q 138 502 168 502 l 35 502 q -14 481 5 502 q -34 434 -34 461 q -14 387 -34 407 q 35 366 5 366 m 556 366 l 659 366 q 709 387 689 366 q 728 434 728 407 q 709 481 728 461 q 659 502 689 502 l 556 502 q 507 481 526 502 q 487 434 487 461 q 507 387 487 407 q 556 366 526 366 m 122 540 l 225 540 q 275 560 255 540 q 294 608 294 581 q 275 655 294 635 q 225 675 255 675 l 122 675 q 73 655 92 675 q 53 608 53 635 q 73 560 53 581 q 122 540 92 540 m 469 540 l 572 540 q 622 560 602 540 q 642 608 642 581 q 622 655 642 635 q 572 675 602 675 l 469 675 q 420 655 439 675 q 400 608 400 635 q 420 560 400 581 q 469 540 439 540 m 221 713 l 473 713 q 533 734 511 713 q 555 781 555 754 q 533 829 555 808 q 473 849 511 849 l 221 849 q 161 829 183 849 q 140 781 140 808 q 161 734 140 754 q 221 713 183 713 m 281 887 l 327 887 q 366 907 350 887 q 381 955 381 928 q 366 1002 381 982 q 327 1023 350 1023 l 281 1023 q 242 1002 258 1023 q 227 955 227 982 q 242 907 227 928 q 281 887 258 887 m 382 1061 l 486 1061 q 535 1081 515 1061 q 555 1128 555 1101 q 535 1176 555 1156 q 486 1196 515 1196 l 382 1196 q 333 1176 353 1196 q 313 1128 313 1156 q 333 1081 313 1101 q 382 1061 353 1061 z "},"Ô":{"ha":694,"x_min":-34,"x_max":728,"o":"m 221 19 l 473 19 q 533 39 511 19 q 555 87 555 60 q 533 134 555 114 q 473 155 511 155 l 221 155 q 161 134 183 155 q 140 87 140 114 q 161 39 140 60 q 221 19 183 19 m 122 193 l 225 193 q 275 213 255 193 q 294 260 294 233 q 275 308 294 288 q 225 328 255 328 l 122 328 q 73 308 92 328 q 53 260 53 288 q 73 213 53 233 q 122 193 92 193 m 469 193 l 572 193 q 622 213 602 193 q 642 260 642 233 q 622 308 642 288 q 572 328 602 328 l 469 328 q 420 308 439 328 q 400 260 400 288 q 420 213 400 233 q 469 193 439 193 m 35 366 l 138 366 q 188 387 168 366 q 208 434 208 407 q 188 481 208 461 q 138 502 168 502 l 35 502 q -14 481 5 502 q -34 434 -34 461 q -14 387 -34 407 q 35 366 5 366 m 556 366 l 659 366 q 709 387 689 366 q 728 434 728 407 q 709 481 728 461 q 659 502 689 502 l 556 502 q 507 481 526 502 q 487 434 487 461 q 507 387 487 407 q 556 366 526 366 m 122 540 l 225 540 q 275 560 255 540 q 294 608 294 581 q 275 655 294 635 q 225 675 255 675 l 122 675 q 73 655 92 675 q 53 608 53 635 q 73 560 53 581 q 122 540 92 540 m 469 540 l 572 540 q 622 560 602 540 q 642 608 642 581 q 622 655 642 635 q 572 675 602 675 l 469 675 q 420 655 439 675 q 400 608 400 635 q 420 560 400 581 q 469 540 439 540 m 221 713 l 473 713 q 533 734 511 713 q 555 781 555 754 q 533 829 555 808 q 473 849 511 849 l 221 849 q 161 829 183 849 q 140 781 140 808 q 161 734 140 754 q 221 713 183 713 m 194 887 l 240 887 q 279 907 263 887 q 294 955 294 928 q 279 1002 294 982 q 240 1023 263 1023 l 194 1023 q 155 1002 171 1023 q 140 955 140 982 q 155 907 140 928 q 194 887 171 887 m 454 887 l 500 887 q 539 907 524 887 q 555 955 555 928 q 539 1002 555 982 q 500 1023 524 1023 l 454 1023 q 416 1002 431 1023 q 400 955 400 982 q 416 907 400 928 q 454 887 431 887 m 296 1061 l 399 1061 q 448 1081 429 1061 q 468 1128 468 1101 q 448 1176 468 1156 q 399 1196 429 1196 l 296 1196 q 246 1176 266 1196 q 227 1128 227 1156 q 246 1081 227 1101 q 296 1061 266 1061 z "},"Ö":{"ha":694,"x_min":-34,"x_max":728,"o":"m 221 19 l 473 19 q 533 39 511 19 q 555 87 555 60 q 533 134 555 114 q 473 155 511 155 l 221 155 q 161 134 183 155 q 140 87 140 114 q 161 39 140 60 q 221 19 183 19 m 122 193 l 225 193 q 275 213 255 193 q 294 260 294 233 q 275 308 294 288 q 225 328 255 328 l 122 328 q 73 308 92 328 q 53 260 53 288 q 73 213 53 233 q 122 193 92 193 m 469 193 l 572 193 q 622 213 602 193 q 642 260 642 233 q 622 308 642 288 q 572 328 602 328 l 469 328 q 420 308 439 328 q 400 260 400 288 q 420 213 400 233 q 469 193 439 193 m 35 366 l 138 366 q 188 387 168 366 q 208 434 208 407 q 188 481 208 461 q 138 502 168 502 l 35 502 q -14 481 5 502 q -34 434 -34 461 q -14 387 -34 407 q 35 366 5 366 m 556 366 l 659 366 q 709 387 689 366 q 728 434 728 407 q 709 481 728 461 q 659 502 689 502 l 556 502 q 507 481 526 502 q 487 434 487 461 q 507 387 487 407 q 556 366 526 366 m 35 540 l 138 540 q 188 560 168 540 q 208 608 208 581 q 188 655 208 635 q 138 675 168 675 l 35 675 q -14 655 5 675 q -34 608 -34 635 q -14 560 -34 581 q 35 540 5 540 m 556 540 l 659 540 q 709 560 689 540 q 728 608 728 581 q 709 655 728 635 q 659 675 689 675 l 556 675 q 507 655 526 675 q 487 608 487 635 q 507 560 487 581 q 556 540 526 540 m 122 713 l 225 713 q 275 734 255 713 q 294 781 294 754 q 275 829 294 808 q 225 849 255 849 l 122 849 q 73 829 92 849 q 53 781 53 808 q 73 734 53 754 q 122 713 92 713 m 469 713 l 572 713 q 622 734 602 713 q 642 781 642 754 q 622 829 642 808 q 572 849 602 849 l 469 849 q 420 829 439 849 q 400 781 400 808 q 420 734 400 754 q 469 713 439 713 m 221 887 l 473 887 q 533 907 511 887 q 555 955 555 928 q 533 1002 555 982 q 473 1023 511 1023 l 221 1023 q 161 1002 183 1023 q 140 955 140 982 q 161 907 140 928 q 221 887 183 887 m 35 1061 l 138 1061 q 188 1081 168 1061 q 208 1128 208 1101 q 188 1176 208 1156 q 138 1196 168 1196 l 35 1196 q -14 1176 5 1196 q -34 1128 -34 1156 q -14 1081 -34 1101 q 35 1061 5 1061 m 556 1061 l 659 1061 q 709 1081 689 1061 q 728 1128 728 1101 q 709 1176 728 1156 q 659 1196 689 1196 l 556 1196 q 507 1176 526 1196 q 487 1128 487 1156 q 507 1081 487 1101 q 556 1061 526 1061 z "},"Ò":{"ha":694,"x_min":-34,"x_max":728,"o":"m 221 19 l 473 19 q 533 39 511 19 q 555 87 555 60 q 533 134 555 114 q 473 155 511 155 l 221 155 q 161 134 183 155 q 140 87 140 114 q 161 39 140 60 q 221 19 183 19 m 122 193 l 225 193 q 275 213 255 193 q 294 260 294 233 q 275 308 294 288 q 225 328 255 328 l 122 328 q 73 308 92 328 q 53 260 53 288 q 73 213 53 233 q 122 193 92 193 m 469 193 l 572 193 q 622 213 602 193 q 642 260 642 233 q 622 308 642 288 q 572 328 602 328 l 469 328 q 420 308 439 328 q 400 260 400 288 q 420 213 400 233 q 469 193 439 193 m 35 366 l 138 366 q 188 387 168 366 q 208 434 208 407 q 188 481 208 461 q 138 502 168 502 l 35 502 q -14 481 5 502 q -34 434 -34 461 q -14 387 -34 407 q 35 366 5 366 m 556 366 l 659 366 q 709 387 689 366 q 728 434 728 407 q 709 481 728 461 q 659 502 689 502 l 556 502 q 507 481 526 502 q 487 434 487 461 q 507 387 487 407 q 556 366 526 366 m 122 540 l 225 540 q 275 560 255 540 q 294 608 294 581 q 275 655 294 635 q 225 675 255 675 l 122 675 q 73 655 92 675 q 53 608 53 635 q 73 560 53 581 q 122 540 92 540 m 469 540 l 572 540 q 622 560 602 540 q 642 608 642 581 q 622 655 642 635 q 572 675 602 675 l 469 675 q 420 655 439 675 q 400 608 400 635 q 420 560 400 581 q 469 540 439 540 m 221 713 l 473 713 q 533 734 511 713 q 555 781 555 754 q 533 829 555 808 q 473 849 511 849 l 221 849 q 161 829 183 849 q 140 781 140 808 q 161 734 140 754 q 221 713 183 713 m 368 887 l 414 887 q 452 907 437 887 q 468 955 468 928 q 452 1002 468 982 q 414 1023 437 1023 l 368 1023 q 329 1002 345 1023 q 313 955 313 982 q 329 907 313 928 q 368 887 345 887 m 209 1061 l 312 1061 q 361 1081 342 1061 q 381 1128 381 1101 q 361 1176 381 1156 q 312 1196 342 1196 l 209 1196 q 159 1176 179 1196 q 140 1128 140 1156 q 159 1081 140 1101 q 209 1061 179 1061 z "},"Ø":{"ha":694,"x_min":-34,"x_max":728,"o":"m 20 19 l 66 19 q 105 39 90 19 q 121 87 121 60 q 105 134 121 114 q 66 155 90 155 l 20 155 q -18 134 -3 155 q -34 87 -34 114 q -18 39 -34 60 q 20 19 -3 19 m 221 19 l 473 19 q 533 39 511 19 q 555 87 555 60 q 533 134 555 114 q 473 155 511 155 l 221 155 q 161 134 183 155 q 140 87 140 114 q 161 39 140 60 q 221 19 183 19 m 122 193 l 225 193 q 275 213 255 193 q 294 260 294 233 q 275 308 294 288 q 225 328 255 328 l 122 328 q 73 308 92 328 q 53 260 53 288 q 73 213 53 233 q 122 193 92 193 m 469 193 l 572 193 q 622 213 602 193 q 642 260 642 233 q 622 308 642 288 q 572 328 602 328 l 469 328 q 420 308 439 328 q 400 260 400 288 q 420 213 400 233 q 469 193 439 193 m 47 366 l 300 366 q 359 387 338 366 q 381 434 381 407 q 359 481 381 461 q 300 502 338 502 l 47 502 q -12 481 9 502 q -34 434 -34 461 q -12 387 -34 407 q 47 366 9 366 m 556 366 l 659 366 q 709 387 689 366 q 728 434 728 407 q 709 481 728 461 q 659 502 689 502 l 556 502 q 507 481 526 502 q 487 434 487 461 q 507 387 487 407 q 556 366 526 366 m 35 540 l 138 540 q 188 560 168 540 q 208 608 208 581 q 188 655 208 635 q 138 675 168 675 l 35 675 q -14 655 5 675 q -34 608 -34 635 q -14 560 -34 581 q 35 540 5 540 m 296 540 l 399 540 q 448 560 429 540 q 468 608 468 581 q 448 655 468 635 q 399 675 429 675 l 296 675 q 246 655 266 675 q 227 608 227 635 q 246 560 227 581 q 296 540 266 540 m 556 540 l 659 540 q 709 560 689 540 q 728 608 728 581 q 709 655 728 635 q 659 675 689 675 l 556 675 q 507 655 526 675 q 487 608 487 635 q 507 560 487 581 q 556 540 526 540 m 35 713 l 138 713 q 188 734 168 713 q 208 781 208 754 q 188 829 208 808 q 138 849 168 849 l 35 849 q -14 829 5 849 q -34 781 -34 808 q -14 734 -34 754 q 35 713 5 713 m 395 713 l 647 713 q 707 734 685 713 q 728 781 728 754 q 707 829 728 808 q 647 849 685 849 l 395 849 q 335 829 357 849 q 313 781 313 808 q 335 734 313 754 q 395 713 357 713 m 122 887 l 225 887 q 275 907 255 887 q 294 955 294 928 q 275 1002 294 982 q 225 1023 255 1023 l 122 1023 q 73 1002 92 1023 q 53 955 53 982 q 73 907 53 928 q 122 887 92 887 m 469 887 l 572 887 q 622 907 602 887 q 642 955 642 928 q 622 1002 642 982 q 572 1023 602 1023 l 469 1023 q 420 1002 439 1023 q 400 955 400 982 q 420 907 400 928 q 469 887 439 887 m 221 1061 l 473 1061 q 533 1081 511 1061 q 555 1128 555 1101 q 533 1176 555 1156 q 473 1196 511 1196 l 221 1196 q 161 1176 183 1196 q 140 1128 140 1156 q 161 1081 140 1101 q 221 1061 183 1061 m 628 1061 l 674 1061 q 713 1081 697 1061 q 728 1128 728 1101 q 713 1176 728 1156 q 674 1196 697 1196 l 628 1196 q 589 1176 605 1196 q 574 1128 574 1156 q 589 1081 574 1101 q 628 1061 605 1061 z "},"Õ":{"ha":694,"x_min":-34,"x_max":728,"o":"m 221 19 l 473 19 q 533 39 511 19 q 555 87 555 60 q 533 134 555 114 q 473 155 511 155 l 221 155 q 161 134 183 155 q 140 87 140 114 q 161 39 140 60 q 221 19 183 19 m 122 193 l 225 193 q 275 213 255 193 q 294 260 294 233 q 275 308 294 288 q 225 328 255 328 l 122 328 q 73 308 92 328 q 53 260 53 288 q 73 213 53 233 q 122 193 92 193 m 469 193 l 572 193 q 622 213 602 193 q 642 260 642 233 q 622 308 642 288 q 572 328 602 328 l 469 328 q 420 308 439 328 q 400 260 400 288 q 420 213 400 233 q 469 193 439 193 m 35 366 l 138 366 q 188 387 168 366 q 208 434 208 407 q 188 481 208 461 q 138 502 168 502 l 35 502 q -14 481 5 502 q -34 434 -34 461 q -14 387 -34 407 q 35 366 5 366 m 556 366 l 659 366 q 709 387 689 366 q 728 434 728 407 q 709 481 728 461 q 659 502 689 502 l 556 502 q 507 481 526 502 q 487 434 487 461 q 507 387 487 407 q 556 366 526 366 m 122 540 l 225 540 q 275 560 255 540 q 294 608 294 581 q 275 655 294 635 q 225 675 255 675 l 122 675 q 73 655 92 675 q 53 608 53 635 q 73 560 53 581 q 122 540 92 540 m 469 540 l 572 540 q 622 560 602 540 q 642 608 642 581 q 622 655 642 635 q 572 675 602 675 l 469 675 q 420 655 439 675 q 400 608 400 635 q 420 560 400 581 q 469 540 439 540 m 221 713 l 473 713 q 533 734 511 713 q 555 781 555 754 q 533 829 555 808 q 473 849 511 849 l 221 849 q 161 829 183 849 q 140 781 140 808 q 161 734 140 754 q 221 713 183 713 m 20 887 l 66 887 q 105 907 90 887 q 121 955 121 928 q 105 1002 121 982 q 66 1023 90 1023 l 20 1023 q -18 1002 -3 1023 q -34 955 -34 982 q -18 907 -34 928 q 20 887 -3 887 m 382 887 l 572 887 q 622 907 602 887 q 642 955 642 928 q 622 1002 642 982 q 572 1023 602 1023 l 382 1023 q 333 1002 353 1023 q 313 955 313 982 q 333 907 313 928 q 382 887 353 887 m 122 1061 l 312 1061 q 361 1081 342 1061 q 381 1128 381 1101 q 361 1176 381 1156 q 312 1196 342 1196 l 122 1196 q 73 1176 92 1196 q 53 1128 53 1156 q 73 1081 53 1101 q 122 1061 92 1061 m 628 1061 l 674 1061 q 713 1081 697 1061 q 728 1128 728 1101 q 713 1176 728 1156 q 674 1196 697 1196 l 628 1196 q 589 1176 605 1196 q 574 1128 574 1156 q 589 1081 574 1101 q 628 1061 605 1061 z "},"Œ":{"ha":694,"x_min":-34,"x_max":728,"o":"m 221 19 l 647 19 q 707 39 685 19 q 728 87 728 60 q 707 134 728 114 q 647 155 685 155 l 221 155 q 161 134 183 155 q 140 87 140 114 q 161 39 140 60 q 221 19 183 19 m 122 193 l 225 193 q 275 213 255 193 q 294 260 294 233 q 275 308 294 288 q 225 328 255 328 l 122 328 q 73 308 92 328 q 53 260 53 288 q 73 213 53 233 q 122 193 92 193 m 382 193 l 486 193 q 535 213 515 193 q 555 260 555 233 q 535 308 555 288 q 486 328 515 328 l 382 328 q 333 308 353 328 q 313 260 313 288 q 333 213 313 233 q 382 193 353 193 m 35 366 l 138 366 q 188 387 168 366 q 208 434 208 407 q 188 481 208 461 q 138 502 168 502 l 35 502 q -14 481 5 502 q -34 434 -34 461 q -14 387 -34 407 q 35 366 5 366 m 382 366 l 486 366 q 535 387 515 366 q 555 434 555 407 q 535 481 555 461 q 486 502 515 502 l 382 502 q 333 481 353 502 q 313 434 313 461 q 333 387 313 407 q 382 366 353 366 m 35 540 l 138 540 q 188 560 168 540 q 208 608 208 581 q 188 655 208 635 q 138 675 168 675 l 35 675 q -14 655 5 675 q -34 608 -34 635 q -14 560 -34 581 q 35 540 5 540 m 395 540 l 647 540 q 707 560 685 540 q 728 608 728 581 q 707 655 728 635 q 647 675 685 675 l 395 675 q 335 655 357 675 q 313 608 313 635 q 335 560 313 581 q 395 540 357 540 m 35 713 l 138 713 q 188 734 168 713 q 208 781 208 754 q 188 829 208 808 q 138 849 168 849 l 35 849 q -14 829 5 849 q -34 781 -34 808 q -14 734 -34 754 q 35 713 5 713 m 382 713 l 486 713 q 535 734 515 713 q 555 781 555 754 q 535 829 555 808 q 486 849 515 849 l 382 849 q 333 829 353 849 q 313 781 313 808 q 333 734 313 754 q 382 713 353 713 m 122 887 l 225 887 q 275 907 255 887 q 294 955 294 928 q 275 1002 294 982 q 225 1023 255 1023 l 122 1023 q 73 1002 92 1023 q 53 955 53 982 q 73 907 53 928 q 122 887 92 887 m 382 887 l 486 887 q 535 907 515 887 q 555 955 555 928 q 535 1002 555 982 q 486 1023 515 1023 l 382 1023 q 333 1002 353 1023 q 313 955 313 982 q 333 907 313 928 q 382 887 353 887 m 221 1061 l 647 1061 q 707 1081 685 1061 q 728 1128 728 1101 q 707 1176 728 1156 q 647 1196 685 1196 l 221 1196 q 161 1176 183 1196 q 140 1128 140 1156 q 161 1081 140 1101 q 221 1061 183 1061 z "},"P":{"ha":694,"x_min":-34,"x_max":642,"o":"m 47 19 l 300 19 q 359 39 338 19 q 381 87 381 60 q 359 134 381 114 q 300 155 338 155 l 47 155 q -12 134 9 155 q -34 87 -34 114 q -12 39 -34 60 q 47 19 9 19 m 122 193 l 225 193 q 275 213 255 193 q 294 260 294 233 q 275 308 294 288 q 225 328 255 328 l 122 328 q 73 308 92 328 q 53 260 53 288 q 73 213 53 233 q 122 193 92 193 m 122 366 l 225 366 q 275 387 255 366 q 294 434 294 407 q 275 481 294 461 q 225 502 255 502 l 122 502 q 73 481 92 502 q 53 434 53 461 q 73 387 53 407 q 122 366 92 366 m 134 540 l 473 540 q 533 560 511 540 q 555 608 555 581 q 533 655 555 635 q 473 675 511 675 l 134 675 q 75 655 96 675 q 53 608 53 635 q 75 560 53 581 q 134 540 96 540 m 122 713 l 225 713 q 275 734 255 713 q 294 781 294 754 q 275 829 294 808 q 225 849 255 849 l 122 849 q 73 829 92 849 q 53 781 53 808 q 73 734 53 754 q 122 713 92 713 m 469 713 l 572 713 q 622 734 602 713 q 642 781 642 754 q 622 829 642 808 q 572 849 602 849 l 469 849 q 420 829 439 849 q 400 781 400 808 q 420 734 400 754 q 469 713 439 713 m 122 887 l 225 887 q 275 907 255 887 q 294 955 294 928 q 275 1002 294 982 q 225 1023 255 1023 l 122 1023 q 73 1002 92 1023 q 53 955 53 982 q 73 907 53 928 q 122 887 92 887 m 469 887 l 572 887 q 622 907 602 887 q 642 955 642 928 q 622 1002 642 982 q 572 1023 602 1023 l 469 1023 q 420 1002 439 1023 q 400 955 400 982 q 420 907 400 928 q 469 887 439 887 m 47 1061 l 473 1061 q 533 1081 511 1061 q 555 1128 555 1101 q 533 1176 555 1156 q 473 1196 511 1196 l 47 1196 q -12 1176 9 1196 q -34 1128 -34 1156 q -12 1081 -34 1101 q 47 1061 9 1061 z "},"Þ":{"ha":694,"x_min":-34,"x_max":728,"o":"m 47 -155 l 300 -155 q 359 -134 338 -155 q 381 -87 381 -114 q 359 -39 381 -60 q 300 -19 338 -19 l 47 -19 q -12 -39 9 -19 q -34 -87 -34 -60 q -12 -134 -34 -114 q 47 -155 9 -155 m 122 19 l 225 19 q 275 39 255 19 q 294 87 294 60 q 275 134 294 114 q 225 155 255 155 l 122 155 q 73 134 92 155 q 53 87 53 114 q 73 39 53 60 q 122 19 92 19 m 134 193 l 560 193 q 620 213 598 193 q 642 260 642 233 q 620 308 642 288 q 560 328 598 328 l 134 328 q 75 308 96 328 q 53 260 53 288 q 75 213 53 233 q 134 193 96 193 m 122 366 l 225 366 q 275 387 255 366 q 294 434 294 407 q 275 481 294 461 q 225 502 255 502 l 122 502 q 73 481 92 502 q 53 434 53 461 q 73 387 53 407 q 122 366 92 366 m 556 366 l 659 366 q 709 387 689 366 q 728 434 728 407 q 709 481 728 461 q 659 502 689 502 l 556 502 q 507 481 526 502 q 487 434 487 461 q 507 387 487 407 q 556 366 526 366 m 122 540 l 225 540 q 275 560 255 540 q 294 608 294 581 q 275 655 294 635 q 225 675 255 675 l 122 675 q 73 655 92 675 q 53 608 53 635 q 73 560 53 581 q 122 540 92 540 m 556 540 l 659 540 q 709 560 689 540 q 728 608 728 581 q 709 655 728 635 q 659 675 689 675 l 556 675 q 507 655 526 675 q 487 608 487 635 q 507 560 487 581 q 556 540 526 540 m 134 713 l 560 713 q 620 734 598 713 q 642 781 642 754 q 620 829 642 808 q 560 849 598 849 l 134 849 q 75 829 96 849 q 53 781 53 808 q 75 734 53 754 q 134 713 96 713 m 122 887 l 225 887 q 275 907 255 887 q 294 955 294 928 q 275 1002 294 982 q 225 1023 255 1023 l 122 1023 q 73 1002 92 1023 q 53 955 53 982 q 73 907 53 928 q 122 887 92 887 m 47 1061 l 300 1061 q 359 1081 338 1061 q 381 1128 381 1101 q 359 1176 381 1156 q 300 1196 338 1196 l 47 1196 q -12 1176 9 1196 q -34 1128 -34 1156 q -12 1081 -34 1101 q 47 1061 9 1061 z "},"Q":{"ha":694,"x_min":-34,"x_max":642,"o":"m 469 -155 l 572 -155 q 622 -134 602 -155 q 642 -87 642 -114 q 622 -39 642 -60 q 572 -19 602 -19 l 469 -19 q 420 -39 439 -19 q 400 -87 400 -60 q 420 -134 400 -114 q 469 -155 439 -155 m 221 19 l 473 19 q 533 39 511 19 q 555 87 555 60 q 533 134 555 114 q 473 155 511 155 l 221 155 q 161 134 183 155 q 140 87 140 114 q 161 39 140 60 q 221 19 183 19 m 122 193 l 225 193 q 275 213 255 193 q 294 260 294 233 q 275 308 294 288 q 225 328 255 328 l 122 328 q 73 308 92 328 q 53 260 53 288 q 73 213 53 233 q 122 193 92 193 m 382 193 l 486 193 q 535 213 515 193 q 555 260 555 233 q 535 308 555 288 q 486 328 515 328 l 382 328 q 333 308 353 328 q 313 260 313 288 q 333 213 313 233 q 382 193 353 193 m 35 366 l 138 366 q 188 387 168 366 q 208 434 208 407 q 188 481 208 461 q 138 502 168 502 l 35 502 q -14 481 5 502 q -34 434 -34 461 q -14 387 -34 407 q 35 366 5 366 m 469 366 l 572 366 q 622 387 602 366 q 642 434 642 407 q 622 481 642 461 q 572 502 602 502 l 469 502 q 420 481 439 502 q 400 434 400 461 q 420 387 400 407 q 469 366 439 366 m 35 540 l 138 540 q 188 560 168 540 q 208 608 208 581 q 188 655 208 635 q 138 675 168 675 l 35 675 q -14 655 5 675 q -34 608 -34 635 q -14 560 -34 581 q 35 540 5 540 m 469 540 l 572 540 q 622 560 602 540 q 642 608 642 581 q 622 655 642 635 q 572 675 602 675 l 469 675 q 420 655 439 675 q 400 608 400 635 q 420 560 400 581 q 469 540 439 540 m 35 713 l 138 713 q 188 734 168 713 q 208 781 208 754 q 188 829 208 808 q 138 849 168 849 l 35 849 q -14 829 5 849 q -34 781 -34 808 q -14 734 -34 754 q 35 713 5 713 m 469 713 l 572 713 q 622 734 602 713 q 642 781 642 754 q 622 829 642 808 q 572 849 602 849 l 469 849 q 420 829 439 849 q 400 781 400 808 q 420 734 400 754 q 469 713 439 713 m 122 887 l 225 887 q 275 907 255 887 q 294 955 294 928 q 275 1002 294 982 q 225 1023 255 1023 l 122 1023 q 73 1002 92 1023 q 53 955 53 982 q 73 907 53 928 q 122 887 92 887 m 382 887 l 486 887 q 535 907 515 887 q 555 955 555 928 q 535 1002 555 982 q 486 1023 515 1023 l 382 1023 q 333 1002 353 1023 q 313 955 313 982 q 333 907 313 928 q 382 887 353 887 m 209 1061 l 399 1061 q 448 1081 429 1061 q 468 1128 468 1101 q 448 1176 468 1156 q 399 1196 429 1196 l 209 1196 q 159 1176 179 1196 q 140 1128 140 1156 q 159 1081 140 1101 q 209 1061 179 1061 z "},"R":{"ha":694,"x_min":-34,"x_max":728,"o":"m 35 19 l 225 19 q 275 39 255 19 q 294 87 294 60 q 275 134 294 114 q 225 155 255 155 l 35 155 q -14 134 5 155 q -34 87 -34 114 q -14 39 -34 60 q 35 19 5 19 m 556 19 l 659 19 q 709 39 689 19 q 728 87 728 60 q 709 134 728 114 q 659 155 689 155 l 556 155 q 507 134 526 155 q 487 87 487 114 q 507 39 487 60 q 556 19 526 19 m 122 193 l 225 193 q 275 213 255 193 q 294 260 294 233 q 275 308 294 288 q 225 328 255 328 l 122 328 q 73 308 92 328 q 53 260 53 288 q 73 213 53 233 q 122 193 92 193 m 469 193 l 572 193 q 622 213 602 193 q 642 260 642 233 q 622 308 642 288 q 572 328 602 328 l 469 328 q 420 308 439 328 q 400 260 400 288 q 420 213 400 233 q 469 193 439 193 m 122 366 l 225 366 q 275 387 255 366 q 294 434 294 407 q 275 481 294 461 q 225 502 255 502 l 122 502 q 73 481 92 502 q 53 434 53 461 q 73 387 53 407 q 122 366 92 366 m 382 366 l 486 366 q 535 387 515 366 q 555 434 555 407 q 535 481 555 461 q 486 502 515 502 l 382 502 q 333 481 353 502 q 313 434 313 461 q 333 387 313 407 q 382 366 353 366 m 134 540 l 473 540 q 533 560 511 540 q 555 608 555 581 q 533 655 555 635 q 473 675 511 675 l 134 675 q 75 655 96 675 q 53 608 53 635 q 75 560 53 581 q 134 540 96 540 m 122 713 l 225 713 q 275 734 255 713 q 294 781 294 754 q 275 829 294 808 q 225 849 255 849 l 122 849 q 73 829 92 849 q 53 781 53 808 q 73 734 53 754 q 122 713 92 713 m 469 713 l 572 713 q 622 734 602 713 q 642 781 642 754 q 622 829 642 808 q 572 849 602 849 l 469 849 q 420 829 439 849 q 400 781 400 808 q 420 734 400 754 q 469 713 439 713 m 122 887 l 225 887 q 275 907 255 887 q 294 955 294 928 q 275 1002 294 982 q 225 1023 255 1023 l 122 1023 q 73 1002 92 1023 q 53 955 53 982 q 73 907 53 928 q 122 887 92 887 m 469 887 l 572 887 q 622 907 602 887 q 642 955 642 928 q 622 1002 642 982 q 572 1023 602 1023 l 469 1023 q 420 1002 439 1023 q 400 955 400 982 q 420 907 400 928 q 469 887 439 887 m 47 1061 l 473 1061 q 533 1081 511 1061 q 555 1128 555 1101 q 533 1176 555 1156 q 473 1196 511 1196 l 47 1196 q -12 1176 9 1196 q -34 1128 -34 1156 q -12 1081 -34 1101 q 47 1061 9 1061 z "},"S":{"ha":694,"x_min":53,"x_max":642,"o":"m 221 19 l 473 19 q 533 39 511 19 q 555 87 555 60 q 533 134 555 114 q 473 155 511 155 l 221 155 q 161 134 183 155 q 140 87 140 114 q 161 39 140 60 q 221 19 183 19 m 122 193 l 225 193 q 275 213 255 193 q 294 260 294 233 q 275 308 294 288 q 225 328 255 328 l 122 328 q 73 308 92 328 q 53 260 53 288 q 73 213 53 233 q 122 193 92 193 m 469 193 l 572 193 q 622 213 602 193 q 642 260 642 233 q 622 308 642 288 q 572 328 602 328 l 469 328 q 420 308 439 328 q 400 260 400 288 q 420 213 400 233 q 469 193 439 193 m 382 366 l 572 366 q 622 387 602 366 q 642 434 642 407 q 622 481 642 461 q 572 502 602 502 l 382 502 q 333 481 353 502 q 313 434 313 461 q 333 387 313 407 q 382 366 353 366 m 209 540 l 399 540 q 448 560 429 540 q 468 608 468 581 q 448 655 468 635 q 399 675 429 675 l 209 675 q 159 655 179 675 q 140 608 140 635 q 159 560 140 581 q 209 540 179 540 m 122 713 l 312 713 q 361 734 342 713 q 381 781 381 754 q 361 829 381 808 q 312 849 342 849 l 122 849 q 73 829 92 849 q 53 781 53 808 q 73 734 53 754 q 122 713 92 713 m 122 887 l 225 887 q 275 907 255 887 q 294 955 294 928 q 275 1002 294 982 q 225 1023 255 1023 l 122 1023 q 73 1002 92 1023 q 53 955 53 982 q 73 907 53 928 q 122 887 92 887 m 469 887 l 572 887 q 622 907 602 887 q 642 955 642 928 q 622 1002 642 982 q 572 1023 602 1023 l 469 1023 q 420 1002 439 1023 q 400 955 400 982 q 420 907 400 928 q 469 887 439 887 m 221 1061 l 473 1061 q 533 1081 511 1061 q 555 1128 555 1101 q 533 1176 555 1156 q 473 1196 511 1196 l 221 1196 q 161 1176 183 1196 q 140 1128 140 1156 q 161 1081 140 1101 q 221 1061 183 1061 z "},"T":{"ha":694,"x_min":53,"x_max":642,"o":"m 221 19 l 473 19 q 533 39 511 19 q 555 87 555 60 q 533 134 555 114 q 473 155 511 155 l 221 155 q 161 134 183 155 q 140 87 140 114 q 161 39 140 60 q 221 19 183 19 m 296 193 l 399 193 q 448 213 429 193 q 468 260 468 233 q 448 308 468 288 q 399 328 429 328 l 296 328 q 246 308 266 328 q 227 260 227 288 q 246 213 227 233 q 296 193 266 193 m 296 366 l 399 366 q 448 387 429 366 q 468 434 468 407 q 448 481 468 461 q 399 502 429 502 l 296 502 q 246 481 266 502 q 227 434 227 461 q 246 387 227 407 q 296 366 266 366 m 296 540 l 399 540 q 448 560 429 540 q 468 608 468 581 q 448 655 468 635 q 399 675 429 675 l 296 675 q 246 655 266 675 q 227 608 227 635 q 246 560 227 581 q 296 540 266 540 m 296 713 l 399 713 q 448 734 429 713 q 468 781 468 754 q 448 829 468 808 q 399 849 429 849 l 296 849 q 246 829 266 849 q 227 781 227 808 q 246 734 227 754 q 296 713 266 713 m 107 887 l 153 887 q 192 907 176 887 q 208 955 208 928 q 192 1002 208 982 q 153 1023 176 1023 l 107 1023 q 68 1002 84 1023 q 53 955 53 982 q 68 907 53 928 q 107 887 84 887 m 296 887 l 399 887 q 448 907 429 887 q 468 955 468 928 q 448 1002 468 982 q 399 1023 429 1023 l 296 1023 q 246 1002 266 1023 q 227 955 227 982 q 246 907 227 928 q 296 887 266 887 m 541 887 l 587 887 q 626 907 610 887 q 642 955 642 928 q 626 1002 642 982 q 587 1023 610 1023 l 541 1023 q 503 1002 518 1023 q 487 955 487 982 q 503 907 487 928 q 541 887 518 887 m 134 1061 l 560 1061 q 620 1081 598 1061 q 642 1128 642 1101 q 620 1176 642 1156 q 560 1196 598 1196 l 134 1196 q 75 1176 96 1196 q 53 1128 53 1156 q 75 1081 53 1101 q 134 1061 96 1061 z "},"U":{"ha":694,"x_min":53,"x_max":642,"o":"m 221 19 l 560 19 q 620 39 598 19 q 642 87 642 60 q 620 134 642 114 q 560 155 598 155 l 221 155 q 161 134 183 155 q 140 87 140 114 q 161 39 140 60 q 221 19 183 19 m 122 193 l 225 193 q 275 213 255 193 q 294 260 294 233 q 275 308 294 288 q 225 328 255 328 l 122 328 q 73 308 92 328 q 53 260 53 288 q 73 213 53 233 q 122 193 92 193 m 469 193 l 572 193 q 622 213 602 193 q 642 260 642 233 q 622 308 642 288 q 572 328 602 328 l 469 328 q 420 308 439 328 q 400 260 400 288 q 420 213 400 233 q 469 193 439 193 m 122 366 l 225 366 q 275 387 255 366 q 294 434 294 407 q 275 481 294 461 q 225 502 255 502 l 122 502 q 73 481 92 502 q 53 434 53 461 q 73 387 53 407 q 122 366 92 366 m 469 366 l 572 366 q 622 387 602 366 q 642 434 642 407 q 622 481 642 461 q 572 502 602 502 l 469 502 q 420 481 439 502 q 400 434 400 461 q 420 387 400 407 q 469 366 439 366 m 122 540 l 225 540 q 275 560 255 540 q 294 608 294 581 q 275 655 294 635 q 225 675 255 675 l 122 675 q 73 655 92 675 q 53 608 53 635 q 73 560 53 581 q 122 540 92 540 m 469 540 l 572 540 q 622 560 602 540 q 642 608 642 581 q 622 655 642 635 q 572 675 602 675 l 469 675 q 420 655 439 675 q 400 608 400 635 q 420 560 400 581 q 469 540 439 540 m 122 713 l 225 713 q 275 734 255 713 q 294 781 294 754 q 275 829 294 808 q 225 849 255 849 l 122 849 q 73 829 92 849 q 53 781 53 808 q 73 734 53 754 q 122 713 92 713 m 469 713 l 572 713 q 622 734 602 713 q 642 781 642 754 q 622 829 642 808 q 572 849 602 849 l 469 849 q 420 829 439 849 q 400 781 400 808 q 420 734 400 754 q 469 713 439 713 m 122 887 l 225 887 q 275 907 255 887 q 294 955 294 928 q 275 1002 294 982 q 225 1023 255 1023 l 122 1023 q 73 1002 92 1023 q 53 955 53 982 q 73 907 53 928 q 122 887 92 887 m 469 887 l 572 887 q 622 907 602 887 q 642 955 642 928 q 622 1002 642 982 q 572 1023 602 1023 l 469 1023 q 420 1002 439 1023 q 400 955 400 982 q 420 907 400 928 q 469 887 439 887 m 122 1061 l 225 1061 q 275 1081 255 1061 q 294 1128 294 1101 q 275 1176 294 1156 q 225 1196 255 1196 l 122 1196 q 73 1176 92 1196 q 53 1128 53 1156 q 73 1081 53 1101 q 122 1061 92 1061 m 469 1061 l 572 1061 q 622 1081 602 1061 q 642 1128 642 1101 q 622 1176 642 1156 q 572 1196 602 1196 l 469 1196 q 420 1176 439 1196 q 400 1128 400 1156 q 420 1081 400 1101 q 469 1061 439 1061 z "},"Ú":{"ha":694,"x_min":53,"x_max":642,"o":"m 221 19 l 560 19 q 620 39 598 19 q 642 87 642 60 q 620 134 642 114 q 560 155 598 155 l 221 155 q 161 134 183 155 q 140 87 140 114 q 161 39 140 60 q 221 19 183 19 m 122 193 l 225 193 q 275 213 255 193 q 294 260 294 233 q 275 308 294 288 q 225 328 255 328 l 122 328 q 73 308 92 328 q 53 260 53 288 q 73 213 53 233 q 122 193 92 193 m 469 193 l 572 193 q 622 213 602 193 q 642 260 642 233 q 622 308 642 288 q 572 328 602 328 l 469 328 q 420 308 439 328 q 400 260 400 288 q 420 213 400 233 q 469 193 439 193 m 122 366 l 225 366 q 275 387 255 366 q 294 434 294 407 q 275 481 294 461 q 225 502 255 502 l 122 502 q 73 481 92 502 q 53 434 53 461 q 73 387 53 407 q 122 366 92 366 m 469 366 l 572 366 q 622 387 602 366 q 642 434 642 407 q 622 481 642 461 q 572 502 602 502 l 469 502 q 420 481 439 502 q 400 434 400 461 q 420 387 400 407 q 469 366 439 366 m 122 540 l 225 540 q 275 560 255 540 q 294 608 294 581 q 275 655 294 635 q 225 675 255 675 l 122 675 q 73 655 92 675 q 53 608 53 635 q 73 560 53 581 q 122 540 92 540 m 469 540 l 572 540 q 622 560 602 540 q 642 608 642 581 q 622 655 642 635 q 572 675 602 675 l 469 675 q 420 655 439 675 q 400 608 400 635 q 420 560 400 581 q 469 540 439 540 m 122 713 l 225 713 q 275 734 255 713 q 294 781 294 754 q 275 829 294 808 q 225 849 255 849 l 122 849 q 73 829 92 849 q 53 781 53 808 q 73 734 53 754 q 122 713 92 713 m 469 713 l 572 713 q 622 734 602 713 q 642 781 642 754 q 622 829 642 808 q 572 849 602 849 l 469 849 q 420 829 439 849 q 400 781 400 808 q 420 734 400 754 q 469 713 439 713 m 281 887 l 327 887 q 366 907 350 887 q 381 955 381 928 q 366 1002 381 982 q 327 1023 350 1023 l 281 1023 q 242 1002 258 1023 q 227 955 227 982 q 242 907 227 928 q 281 887 258 887 m 382 1061 l 486 1061 q 535 1081 515 1061 q 555 1128 555 1101 q 535 1176 555 1156 q 486 1196 515 1196 l 382 1196 q 333 1176 353 1196 q 313 1128 313 1156 q 333 1081 313 1101 q 382 1061 353 1061 z "},"Û":{"ha":694,"x_min":53,"x_max":642,"o":"m 221 19 l 560 19 q 620 39 598 19 q 642 87 642 60 q 620 134 642 114 q 560 155 598 155 l 221 155 q 161 134 183 155 q 140 87 140 114 q 161 39 140 60 q 221 19 183 19 m 122 193 l 225 193 q 275 213 255 193 q 294 260 294 233 q 275 308 294 288 q 225 328 255 328 l 122 328 q 73 308 92 328 q 53 260 53 288 q 73 213 53 233 q 122 193 92 193 m 469 193 l 572 193 q 622 213 602 193 q 642 260 642 233 q 622 308 642 288 q 572 328 602 328 l 469 328 q 420 308 439 328 q 400 260 400 288 q 420 213 400 233 q 469 193 439 193 m 122 366 l 225 366 q 275 387 255 366 q 294 434 294 407 q 275 481 294 461 q 225 502 255 502 l 122 502 q 73 481 92 502 q 53 434 53 461 q 73 387 53 407 q 122 366 92 366 m 469 366 l 572 366 q 622 387 602 366 q 642 434 642 407 q 622 481 642 461 q 572 502 602 502 l 469 502 q 420 481 439 502 q 400 434 400 461 q 420 387 400 407 q 469 366 439 366 m 122 540 l 225 540 q 275 560 255 540 q 294 608 294 581 q 275 655 294 635 q 225 675 255 675 l 122 675 q 73 655 92 675 q 53 608 53 635 q 73 560 53 581 q 122 540 92 540 m 469 540 l 572 540 q 622 560 602 540 q 642 608 642 581 q 622 655 642 635 q 572 675 602 675 l 469 675 q 420 655 439 675 q 400 608 400 635 q 420 560 400 581 q 469 540 439 540 m 122 713 l 225 713 q 275 734 255 713 q 294 781 294 754 q 275 829 294 808 q 225 849 255 849 l 122 849 q 73 829 92 849 q 53 781 53 808 q 73 734 53 754 q 122 713 92 713 m 469 713 l 572 713 q 622 734 602 713 q 642 781 642 754 q 622 829 642 808 q 572 849 602 849 l 469 849 q 420 829 439 849 q 400 781 400 808 q 420 734 400 754 q 469 713 439 713 m 194 887 l 240 887 q 279 907 263 887 q 294 955 294 928 q 279 1002 294 982 q 240 1023 263 1023 l 194 1023 q 155 1002 171 1023 q 140 955 140 982 q 155 907 140 928 q 194 887 171 887 m 454 887 l 500 887 q 539 907 524 887 q 555 955 555 928 q 539 1002 555 982 q 500 1023 524 1023 l 454 1023 q 416 1002 431 1023 q 400 955 400 982 q 416 907 400 928 q 454 887 431 887 m 296 1061 l 399 1061 q 448 1081 429 1061 q 468 1128 468 1101 q 448 1176 468 1156 q 399 1196 429 1196 l 296 1196 q 246 1176 266 1196 q 227 1128 227 1156 q 246 1081 227 1101 q 296 1061 266 1061 z "},"Ü":{"ha":694,"x_min":53,"x_max":642,"o":"m 221 19 l 560 19 q 620 39 598 19 q 642 87 642 60 q 620 134 642 114 q 560 155 598 155 l 221 155 q 161 134 183 155 q 140 87 140 114 q 161 39 140 60 q 221 19 183 19 m 122 193 l 225 193 q 275 213 255 193 q 294 260 294 233 q 275 308 294 288 q 225 328 255 328 l 122 328 q 73 308 92 328 q 53 260 53 288 q 73 213 53 233 q 122 193 92 193 m 469 193 l 572 193 q 622 213 602 193 q 642 260 642 233 q 622 308 642 288 q 572 328 602 328 l 469 328 q 420 308 439 328 q 400 260 400 288 q 420 213 400 233 q 469 193 439 193 m 122 366 l 225 366 q 275 387 255 366 q 294 434 294 407 q 275 481 294 461 q 225 502 255 502 l 122 502 q 73 481 92 502 q 53 434 53 461 q 73 387 53 407 q 122 366 92 366 m 469 366 l 572 366 q 622 387 602 366 q 642 434 642 407 q 622 481 642 461 q 572 502 602 502 l 469 502 q 420 481 439 502 q 400 434 400 461 q 420 387 400 407 q 469 366 439 366 m 122 540 l 225 540 q 275 560 255 540 q 294 608 294 581 q 275 655 294 635 q 225 675 255 675 l 122 675 q 73 655 92 675 q 53 608 53 635 q 73 560 53 581 q 122 540 92 540 m 469 540 l 572 540 q 622 560 602 540 q 642 608 642 581 q 622 655 642 635 q 572 675 602 675 l 469 675 q 420 655 439 675 q 400 608 400 635 q 420 560 400 581 q 469 540 439 540 m 122 713 l 225 713 q 275 734 255 713 q 294 781 294 754 q 275 829 294 808 q 225 849 255 849 l 122 849 q 73 829 92 849 q 53 781 53 808 q 73 734 53 754 q 122 713 92 713 m 469 713 l 572 713 q 622 734 602 713 q 642 781 642 754 q 622 829 642 808 q 572 849 602 849 l 469 849 q 420 829 439 849 q 400 781 400 808 q 420 734 400 754 q 469 713 439 713 m 122 1061 l 225 1061 q 275 1081 255 1061 q 294 1128 294 1101 q 275 1176 294 1156 q 225 1196 255 1196 l 122 1196 q 73 1176 92 1196 q 53 1128 53 1156 q 73 1081 53 1101 q 122 1061 92 1061 m 469 1061 l 572 1061 q 622 1081 602 1061 q 642 1128 642 1101 q 622 1176 642 1156 q 572 1196 602 1196 l 469 1196 q 420 1176 439 1196 q 400 1128 400 1156 q 420 1081 400 1101 q 469 1061 439 1061 z "},"Ù":{"ha":694,"x_min":53,"x_max":642,"o":"m 221 19 l 560 19 q 620 39 598 19 q 642 87 642 60 q 620 134 642 114 q 560 155 598 155 l 221 155 q 161 134 183 155 q 140 87 140 114 q 161 39 140 60 q 221 19 183 19 m 122 193 l 225 193 q 275 213 255 193 q 294 260 294 233 q 275 308 294 288 q 225 328 255 328 l 122 328 q 73 308 92 328 q 53 260 53 288 q 73 213 53 233 q 122 193 92 193 m 469 193 l 572 193 q 622 213 602 193 q 642 260 642 233 q 622 308 642 288 q 572 328 602 328 l 469 328 q 420 308 439 328 q 400 260 400 288 q 420 213 400 233 q 469 193 439 193 m 122 366 l 225 366 q 275 387 255 366 q 294 434 294 407 q 275 481 294 461 q 225 502 255 502 l 122 502 q 73 481 92 502 q 53 434 53 461 q 73 387 53 407 q 122 366 92 366 m 469 366 l 572 366 q 622 387 602 366 q 642 434 642 407 q 622 481 642 461 q 572 502 602 502 l 469 502 q 420 481 439 502 q 400 434 400 461 q 420 387 400 407 q 469 366 439 366 m 122 540 l 225 540 q 275 560 255 540 q 294 608 294 581 q 275 655 294 635 q 225 675 255 675 l 122 675 q 73 655 92 675 q 53 608 53 635 q 73 560 53 581 q 122 540 92 540 m 469 540 l 572 540 q 622 560 602 540 q 642 608 642 581 q 622 655 642 635 q 572 675 602 675 l 469 675 q 420 655 439 675 q 400 608 400 635 q 420 560 400 581 q 469 540 439 540 m 122 713 l 225 713 q 275 734 255 713 q 294 781 294 754 q 275 829 294 808 q 225 849 255 849 l 122 849 q 73 829 92 849 q 53 781 53 808 q 73 734 53 754 q 122 713 92 713 m 469 713 l 572 713 q 622 734 602 713 q 642 781 642 754 q 622 829 642 808 q 572 849 602 849 l 469 849 q 420 829 439 849 q 400 781 400 808 q 420 734 400 754 q 469 713 439 713 m 368 887 l 414 887 q 452 907 437 887 q 468 955 468 928 q 452 1002 468 982 q 414 1023 437 1023 l 368 1023 q 329 1002 345 1023 q 313 955 313 982 q 329 907 313 928 q 368 887 345 887 m 209 1061 l 312 1061 q 361 1081 342 1061 q 381 1128 381 1101 q 361 1176 381 1156 q 312 1196 342 1196 l 209 1196 q 159 1176 179 1196 q 140 1128 140 1156 q 159 1081 140 1101 q 209 1061 179 1061 z "},"V":{"ha":694,"x_min":-34,"x_max":728,"o":"m 296 19 l 399 19 q 448 39 429 19 q 468 87 468 60 q 448 134 468 114 q 399 155 429 155 l 296 155 q 246 134 266 155 q 227 87 227 114 q 246 39 227 60 q 296 19 266 19 m 221 193 l 473 193 q 533 213 511 193 q 555 260 555 233 q 533 308 555 288 q 473 328 511 328 l 221 328 q 161 308 183 328 q 140 260 140 288 q 161 213 140 233 q 221 193 183 193 m 221 366 l 473 366 q 533 387 511 366 q 555 434 555 407 q 533 481 555 461 q 473 502 511 502 l 221 502 q 161 481 183 502 q 140 434 140 461 q 161 387 140 407 q 221 366 183 366 m 122 540 l 225 540 q 275 560 255 540 q 294 608 294 581 q 275 655 294 635 q 225 675 255 675 l 122 675 q 73 655 92 675 q 53 608 53 635 q 73 560 53 581 q 122 540 92 540 m 469 540 l 572 540 q 622 560 602 540 q 642 608 642 581 q 622 655 642 635 q 572 675 602 675 l 469 675 q 420 655 439 675 q 400 608 400 635 q 420 560 400 581 q 469 540 439 540 m 122 713 l 225 713 q 275 734 255 713 q 294 781 294 754 q 275 829 294 808 q 225 849 255 849 l 122 849 q 73 829 92 849 q 53 781 53 808 q 73 734 53 754 q 122 713 92 713 m 469 713 l 572 713 q 622 734 602 713 q 642 781 642 754 q 622 829 642 808 q 572 849 602 849 l 469 849 q 420 829 439 849 q 400 781 400 808 q 420 734 400 754 q 469 713 439 713 m 35 887 l 138 887 q 188 907 168 887 q 208 955 208 928 q 188 1002 208 982 q 138 1023 168 1023 l 35 1023 q -14 1002 5 1023 q -34 955 -34 982 q -14 907 -34 928 q 35 887 5 887 m 556 887 l 659 887 q 709 907 689 887 q 728 955 728 928 q 709 1002 728 982 q 659 1023 689 1023 l 556 1023 q 507 1002 526 1023 q 487 955 487 982 q 507 907 487 928 q 556 887 526 887 m 35 1061 l 138 1061 q 188 1081 168 1061 q 208 1128 208 1101 q 188 1176 208 1156 q 138 1196 168 1196 l 35 1196 q -14 1176 5 1196 q -34 1128 -34 1156 q -14 1081 -34 1101 q 35 1061 5 1061 m 556 1061 l 659 1061 q 709 1081 689 1061 q 728 1128 728 1101 q 709 1176 728 1156 q 659 1196 689 1196 l 556 1196 q 507 1176 526 1196 q 487 1128 487 1156 q 507 1081 487 1101 q 556 1061 526 1061 z "},"W":{"ha":694,"x_min":-34,"x_max":642,"o":"m 35 19 l 138 19 q 188 39 168 19 q 208 87 208 60 q 188 134 208 114 q 138 155 168 155 l 35 155 q -14 134 5 155 q -34 87 -34 114 q -14 39 -34 60 q 35 19 5 19 m 469 19 l 572 19 q 622 39 602 19 q 642 87 642 60 q 622 134 642 114 q 572 155 602 155 l 469 155 q 420 134 439 155 q 400 87 400 114 q 420 39 400 60 q 469 19 439 19 m 35 193 l 225 193 q 275 213 255 193 q 294 260 294 233 q 275 308 294 288 q 225 328 255 328 l 35 328 q -14 308 5 328 q -34 260 -34 288 q -14 213 -34 233 q 35 193 5 193 m 382 193 l 572 193 q 622 213 602 193 q 642 260 642 233 q 622 308 642 288 q 572 328 602 328 l 382 328 q 333 308 353 328 q 313 260 313 288 q 333 213 313 233 q 382 193 353 193 m 47 366 l 560 366 q 620 387 598 366 q 642 434 642 407 q 620 481 642 461 q 560 502 598 502 l 47 502 q -12 481 9 502 q -34 434 -34 461 q -12 387 -34 407 q 47 366 9 366 m 35 540 l 138 540 q 188 560 168 540 q 208 608 208 581 q 188 655 208 635 q 138 675 168 675 l 35 675 q -14 655 5 675 q -34 608 -34 635 q -14 560 -34 581 q 35 540 5 540 m 281 540 l 327 540 q 366 560 350 540 q 381 608 381 581 q 366 655 381 635 q 327 675 350 675 l 281 675 q 242 655 258 675 q 227 608 227 635 q 242 560 227 581 q 281 540 258 540 m 469 540 l 572 540 q 622 560 602 540 q 642 608 642 581 q 622 655 642 635 q 572 675 602 675 l 469 675 q 420 655 439 675 q 400 608 400 635 q 420 560 400 581 q 469 540 439 540 m 35 713 l 138 713 q 188 734 168 713 q 208 781 208 754 q 188 829 208 808 q 138 849 168 849 l 35 849 q -14 829 5 849 q -34 781 -34 808 q -14 734 -34 754 q 35 713 5 713 m 469 713 l 572 713 q 622 734 602 713 q 642 781 642 754 q 622 829 642 808 q 572 849 602 849 l 469 849 q 420 829 439 849 q 400 781 400 808 q 420 734 400 754 q 469 713 439 713 m 35 887 l 138 887 q 188 907 168 887 q 208 955 208 928 q 188 1002 208 982 q 138 1023 168 1023 l 35 1023 q -14 1002 5 1023 q -34 955 -34 982 q -14 907 -34 928 q 35 887 5 887 m 469 887 l 572 887 q 622 907 602 887 q 642 955 642 928 q 622 1002 642 982 q 572 1023 602 1023 l 469 1023 q 420 1002 439 1023 q 400 955 400 982 q 420 907 400 928 q 469 887 439 887 m 35 1061 l 138 1061 q 188 1081 168 1061 q 208 1128 208 1101 q 188 1176 208 1156 q 138 1196 168 1196 l 35 1196 q -14 1176 5 1196 q -34 1128 -34 1156 q -14 1081 -34 1101 q 35 1061 5 1061 m 469 1061 l 572 1061 q 622 1081 602 1061 q 642 1128 642 1101 q 622 1176 642 1156 q 572 1196 602 1196 l 469 1196 q 420 1176 439 1196 q 400 1128 400 1156 q 420 1081 400 1101 q 469 1061 439 1061 z "},"X":{"ha":694,"x_min":-34,"x_max":728,"o":"m 35 19 l 138 19 q 188 39 168 19 q 208 87 208 60 q 188 134 208 114 q 138 155 168 155 l 35 155 q -14 134 5 155 q -34 87 -34 114 q -14 39 -34 60 q 35 19 5 19 m 556 19 l 659 19 q 709 39 689 19 q 728 87 728 60 q 709 134 728 114 q 659 155 689 155 l 556 155 q 507 134 526 155 q 487 87 487 114 q 507 39 487 60 q 556 19 526 19 m 122 193 l 225 193 q 275 213 255 193 q 294 260 294 233 q 275 308 294 288 q 225 328 255 328 l 122 328 q 73 308 92 328 q 53 260 53 288 q 73 213 53 233 q 122 193 92 193 m 469 193 l 572 193 q 622 213 602 193 q 642 260 642 233 q 622 308 642 288 q 572 328 602 328 l 469 328 q 420 308 439 328 q 400 260 400 288 q 420 213 400 233 q 469 193 439 193 m 221 366 l 473 366 q 533 387 511 366 q 555 434 555 407 q 533 481 555 461 q 473 502 511 502 l 221 502 q 161 481 183 502 q 140 434 140 461 q 161 387 140 407 q 221 366 183 366 m 296 540 l 399 540 q 448 560 429 540 q 468 608 468 581 q 448 655 468 635 q 399 675 429 675 l 296 675 q 246 655 266 675 q 227 608 227 635 q 246 560 227 581 q 296 540 266 540 m 221 713 l 473 713 q 533 734 511 713 q 555 781 555 754 q 533 829 555 808 q 473 849 511 849 l 221 849 q 161 829 183 849 q 140 781 140 808 q 161 734 140 754 q 221 713 183 713 m 122 887 l 225 887 q 275 907 255 887 q 294 955 294 928 q 275 1002 294 982 q 225 1023 255 1023 l 122 1023 q 73 1002 92 1023 q 53 955 53 982 q 73 907 53 928 q 122 887 92 887 m 469 887 l 572 887 q 622 907 602 887 q 642 955 642 928 q 622 1002 642 982 q 572 1023 602 1023 l 469 1023 q 420 1002 439 1023 q 400 955 400 982 q 420 907 400 928 q 469 887 439 887 m 35 1061 l 138 1061 q 188 1081 168 1061 q 208 1128 208 1101 q 188 1176 208 1156 q 138 1196 168 1196 l 35 1196 q -14 1176 5 1196 q -34 1128 -34 1156 q -14 1081 -34 1101 q 35 1061 5 1061 m 556 1061 l 659 1061 q 709 1081 689 1061 q 728 1128 728 1101 q 709 1176 728 1156 q 659 1196 689 1196 l 556 1196 q 507 1176 526 1196 q 487 1128 487 1156 q 507 1081 487 1101 q 556 1061 526 1061 z "},"Y":{"ha":694,"x_min":-34,"x_max":728,"o":"m 221 19 l 473 19 q 533 39 511 19 q 555 87 555 60 q 533 134 555 114 q 473 155 511 155 l 221 155 q 161 134 183 155 q 140 87 140 114 q 161 39 140 60 q 221 19 183 19 m 296 193 l 399 193 q 448 213 429 193 q 468 260 468 233 q 448 308 468 288 q 399 328 429 328 l 296 328 q 246 308 266 328 q 227 260 227 288 q 246 213 227 233 q 296 193 266 193 m 296 366 l 399 366 q 448 387 429 366 q 468 434 468 407 q 448 481 468 461 q 399 502 429 502 l 296 502 q 246 481 266 502 q 227 434 227 461 q 246 387 227 407 q 296 366 266 366 m 221 540 l 473 540 q 533 560 511 540 q 555 608 555 581 q 533 655 555 635 q 473 675 511 675 l 221 675 q 161 655 183 675 q 140 608 140 635 q 161 560 140 581 q 221 540 183 540 m 122 713 l 225 713 q 275 734 255 713 q 294 781 294 754 q 275 829 294 808 q 225 849 255 849 l 122 849 q 73 829 92 849 q 53 781 53 808 q 73 734 53 754 q 122 713 92 713 m 469 713 l 572 713 q 622 734 602 713 q 642 781 642 754 q 622 829 642 808 q 572 849 602 849 l 469 849 q 420 829 439 849 q 400 781 400 808 q 420 734 400 754 q 469 713 439 713 m 35 887 l 138 887 q 188 907 168 887 q 208 955 208 928 q 188 1002 208 982 q 138 1023 168 1023 l 35 1023 q -14 1002 5 1023 q -34 955 -34 982 q -14 907 -34 928 q 35 887 5 887 m 556 887 l 659 887 q 709 907 689 887 q 728 955 728 928 q 709 1002 728 982 q 659 1023 689 1023 l 556 1023 q 507 1002 526 1023 q 487 955 487 982 q 507 907 487 928 q 556 887 526 887 m 35 1061 l 138 1061 q 188 1081 168 1061 q 208 1128 208 1101 q 188 1176 208 1156 q 138 1196 168 1196 l 35 1196 q -14 1176 5 1196 q -34 1128 -34 1156 q -14 1081 -34 1101 q 35 1061 5 1061 m 556 1061 l 659 1061 q 709 1081 689 1061 q 728 1128 728 1101 q 709 1176 728 1156 q 659 1196 689 1196 l 556 1196 q 507 1176 526 1196 q 487 1128 487 1156 q 507 1081 487 1101 q 556 1061 526 1061 z "},"Ý":{"ha":694,"x_min":-34,"x_max":728,"o":"m 221 19 l 473 19 q 533 39 511 19 q 555 87 555 60 q 533 134 555 114 q 473 155 511 155 l 221 155 q 161 134 183 155 q 140 87 140 114 q 161 39 140 60 q 221 19 183 19 m 296 193 l 399 193 q 448 213 429 193 q 468 260 468 233 q 448 308 468 288 q 399 328 429 328 l 296 328 q 246 308 266 328 q 227 260 227 288 q 246 213 227 233 q 296 193 266 193 m 221 366 l 473 366 q 533 387 511 366 q 555 434 555 407 q 533 481 555 461 q 473 502 511 502 l 221 502 q 161 481 183 502 q 140 434 140 461 q 161 387 140 407 q 221 366 183 366 m 122 540 l 225 540 q 275 560 255 540 q 294 608 294 581 q 275 655 294 635 q 225 675 255 675 l 122 675 q 73 655 92 675 q 53 608 53 635 q 73 560 53 581 q 122 540 92 540 m 469 540 l 572 540 q 622 560 602 540 q 642 608 642 581 q 622 655 642 635 q 572 675 602 675 l 469 675 q 420 655 439 675 q 400 608 400 635 q 420 560 400 581 q 469 540 439 540 m 35 713 l 138 713 q 188 734 168 713 q 208 781 208 754 q 188 829 208 808 q 138 849 168 849 l 35 849 q -14 829 5 849 q -34 781 -34 808 q -14 734 -34 754 q 35 713 5 713 m 556 713 l 659 713 q 709 734 689 713 q 728 781 728 754 q 709 829 728 808 q 659 849 689 849 l 556 849 q 507 829 526 849 q 487 781 487 808 q 507 734 487 754 q 556 713 526 713 m 368 887 l 414 887 q 452 907 437 887 q 468 955 468 928 q 452 1002 468 982 q 414 1023 437 1023 l 368 1023 q 329 1002 345 1023 q 313 955 313 982 q 329 907 313 928 q 368 887 345 887 m 469 1061 l 572 1061 q 622 1081 602 1061 q 642 1128 642 1101 q 622 1176 642 1156 q 572 1196 602 1196 l 469 1196 q 420 1176 439 1196 q 400 1128 400 1156 q 420 1081 400 1101 q 469 1061 439 1061 z "},"Z":{"ha":694,"x_min":-34,"x_max":642,"o":"m 47 19 l 560 19 q 620 39 598 19 q 642 87 642 60 q 620 134 642 114 q 560 155 598 155 l 47 155 q -12 134 9 155 q -34 87 -34 114 q -12 39 -34 60 q 47 19 9 19 m 122 193 l 225 193 q 275 213 255 193 q 294 260 294 233 q 275 308 294 288 q 225 328 255 328 l 122 328 q 73 308 92 328 q 53 260 53 288 q 73 213 53 233 q 122 193 92 193 m 469 193 l 572 193 q 622 213 602 193 q 642 260 642 233 q 622 308 642 288 q 572 328 602 328 l 469 328 q 420 308 439 328 q 400 260 400 288 q 420 213 400 233 q 469 193 439 193 m 209 366 l 312 366 q 361 387 342 366 q 381 434 381 407 q 361 481 381 461 q 312 502 342 502 l 209 502 q 159 481 179 502 q 140 434 140 461 q 159 387 140 407 q 209 366 179 366 m 541 366 l 587 366 q 626 387 610 366 q 642 434 642 407 q 626 481 642 461 q 587 502 610 502 l 541 502 q 503 481 518 502 q 487 434 487 461 q 503 387 487 407 q 541 366 518 366 m 296 540 l 399 540 q 448 560 429 540 q 468 608 468 581 q 448 655 468 635 q 399 675 429 675 l 296 675 q 246 655 266 675 q 227 608 227 635 q 246 560 227 581 q 296 540 266 540 m 20 713 l 66 713 q 105 734 90 713 q 121 781 121 754 q 105 829 121 808 q 66 849 90 849 l 20 849 q -18 829 -3 849 q -34 781 -34 808 q -18 734 -34 754 q 20 713 -3 713 m 382 713 l 486 713 q 535 734 515 713 q 555 781 555 754 q 535 829 555 808 q 486 849 515 849 l 382 849 q 333 829 353 849 q 313 781 313 808 q 333 734 313 754 q 382 713 353 713 m 35 887 l 138 887 q 188 907 168 887 q 208 955 208 928 q 188 1002 208 982 q 138 1023 168 1023 l 35 1023 q -14 1002 5 1023 q -34 955 -34 982 q -14 907 -34 928 q 35 887 5 887 m 469 887 l 572 887 q 622 907 602 887 q 642 955 642 928 q 622 1002 642 982 q 572 1023 602 1023 l 469 1023 q 420 1002 439 1023 q 400 955 400 982 q 420 907 400 928 q 469 887 439 887 m 47 1061 l 560 1061 q 620 1081 598 1061 q 642 1128 642 1101 q 620 1176 642 1156 q 560 1196 598 1196 l 47 1196 q -12 1176 9 1196 q -34 1128 -34 1156 q -12 1081 -34 1101 q 47 1061 9 1061 z "},"a":{"ha":694,"x_min":53,"x_max":728,"o":"m 209 19 l 399 19 q 448 39 429 19 q 468 87 468 60 q 448 134 468 114 q 399 155 429 155 l 209 155 q 159 134 179 155 q 140 87 140 114 q 159 39 140 60 q 209 19 179 19 m 556 19 l 659 19 q 709 39 689 19 q 728 87 728 60 q 709 134 728 114 q 659 155 689 155 l 556 155 q 507 134 526 155 q 487 87 487 114 q 507 39 487 60 q 556 19 526 19 m 122 193 l 225 193 q 275 213 255 193 q 294 260 294 233 q 275 308 294 288 q 225 328 255 328 l 122 328 q 73 308 92 328 q 53 260 53 288 q 73 213 53 233 q 122 193 92 193 m 469 193 l 572 193 q 622 213 602 193 q 642 260 642 233 q 622 308 642 288 q 572 328 602 328 l 469 328 q 420 308 439 328 q 400 260 400 288 q 420 213 400 233 q 469 193 439 193 m 308 366 l 560 366 q 620 387 598 366 q 642 434 642 407 q 620 481 642 461 q 560 502 598 502 l 308 502 q 248 481 270 502 q 227 434 227 461 q 248 387 227 407 q 308 366 270 366 m 469 540 l 572 540 q 622 560 602 540 q 642 608 642 581 q 622 655 642 635 q 572 675 602 675 l 469 675 q 420 655 439 675 q 400 608 400 635 q 420 560 400 581 q 469 540 439 540 m 221 713 l 473 713 q 533 734 511 713 q 555 781 555 754 q 533 829 555 808 q 473 849 511 849 l 221 849 q 161 829 183 849 q 140 781 140 808 q 161 734 140 754 q 221 713 183 713 z "},"á":{"ha":694,"x_min":53,"x_max":728,"o":"m 209 19 l 399 19 q 448 39 429 19 q 468 87 468 60 q 448 134 468 114 q 399 155 429 155 l 209 155 q 159 134 179 155 q 140 87 140 114 q 159 39 140 60 q 209 19 179 19 m 556 19 l 659 19 q 709 39 689 19 q 728 87 728 60 q 709 134 728 114 q 659 155 689 155 l 556 155 q 507 134 526 155 q 487 87 487 114 q 507 39 487 60 q 556 19 526 19 m 122 193 l 225 193 q 275 213 255 193 q 294 260 294 233 q 275 308 294 288 q 225 328 255 328 l 122 328 q 73 308 92 328 q 53 260 53 288 q 73 213 53 233 q 122 193 92 193 m 469 193 l 572 193 q 622 213 602 193 q 642 260 642 233 q 622 308 642 288 q 572 328 602 328 l 469 328 q 420 308 439 328 q 400 260 400 288 q 420 213 400 233 q 469 193 439 193 m 308 366 l 560 366 q 620 387 598 366 q 642 434 642 407 q 620 481 642 461 q 560 502 598 502 l 308 502 q 248 481 270 502 q 227 434 227 461 q 248 387 227 407 q 308 366 270 366 m 469 540 l 572 540 q 622 560 602 540 q 642 608 642 581 q 622 655 642 635 q 572 675 602 675 l 469 675 q 420 655 439 675 q 400 608 400 635 q 420 560 400 581 q 469 540 439 540 m 221 713 l 473 713 q 533 734 511 713 q 555 781 555 754 q 533 829 555 808 q 473 849 511 849 l 221 849 q 161 829 183 849 q 140 781 140 808 q 161 734 140 754 q 221 713 183 713 m 281 887 l 327 887 q 366 907 350 887 q 381 955 381 928 q 366 1002 381 982 q 327 1023 350 1023 l 281 1023 q 242 1002 258 1023 q 227 955 227 982 q 242 907 227 928 q 281 887 258 887 m 382 1061 l 486 1061 q 535 1081 515 1061 q 555 1128 555 1101 q 535 1176 555 1156 q 486 1196 515 1196 l 382 1196 q 333 1176 353 1196 q 313 1128 313 1156 q 333 1081 313 1101 q 382 1061 353 1061 z "},"â":{"ha":694,"x_min":53,"x_max":728,"o":"m 209 19 l 399 19 q 448 39 429 19 q 468 87 468 60 q 448 134 468 114 q 399 155 429 155 l 209 155 q 159 134 179 155 q 140 87 140 114 q 159 39 140 60 q 209 19 179 19 m 556 19 l 659 19 q 709 39 689 19 q 728 87 728 60 q 709 134 728 114 q 659 155 689 155 l 556 155 q 507 134 526 155 q 487 87 487 114 q 507 39 487 60 q 556 19 526 19 m 122 193 l 225 193 q 275 213 255 193 q 294 260 294 233 q 275 308 294 288 q 225 328 255 328 l 122 328 q 73 308 92 328 q 53 260 53 288 q 73 213 53 233 q 122 193 92 193 m 469 193 l 572 193 q 622 213 602 193 q 642 260 642 233 q 622 308 642 288 q 572 328 602 328 l 469 328 q 420 308 439 328 q 400 260 400 288 q 420 213 400 233 q 469 193 439 193 m 308 366 l 560 366 q 620 387 598 366 q 642 434 642 407 q 620 481 642 461 q 560 502 598 502 l 308 502 q 248 481 270 502 q 227 434 227 461 q 248 387 227 407 q 308 366 270 366 m 469 540 l 572 540 q 622 560 602 540 q 642 608 642 581 q 622 655 642 635 q 572 675 602 675 l 469 675 q 420 655 439 675 q 400 608 400 635 q 420 560 400 581 q 469 540 439 540 m 221 713 l 473 713 q 533 734 511 713 q 555 781 555 754 q 533 829 555 808 q 473 849 511 849 l 221 849 q 161 829 183 849 q 140 781 140 808 q 161 734 140 754 q 221 713 183 713 m 194 887 l 240 887 q 279 907 263 887 q 294 955 294 928 q 279 1002 294 982 q 240 1023 263 1023 l 194 1023 q 155 1002 171 1023 q 140 955 140 982 q 155 907 140 928 q 194 887 171 887 m 454 887 l 500 887 q 539 907 524 887 q 555 955 555 928 q 539 1002 555 982 q 500 1023 524 1023 l 454 1023 q 416 1002 431 1023 q 400 955 400 982 q 416 907 400 928 q 454 887 431 887 m 296 1061 l 399 1061 q 448 1081 429 1061 q 468 1128 468 1101 q 448 1176 468 1156 q 399 1196 429 1196 l 296 1196 q 246 1176 266 1196 q 227 1128 227 1156 q 246 1081 227 1101 q 296 1061 266 1061 z "},"ä":{"ha":694,"x_min":53,"x_max":728,"o":"m 209 19 l 399 19 q 448 39 429 19 q 468 87 468 60 q 448 134 468 114 q 399 155 429 155 l 209 155 q 159 134 179 155 q 140 87 140 114 q 159 39 140 60 q 209 19 179 19 m 556 19 l 659 19 q 709 39 689 19 q 728 87 728 60 q 709 134 728 114 q 659 155 689 155 l 556 155 q 507 134 526 155 q 487 87 487 114 q 507 39 487 60 q 556 19 526 19 m 122 193 l 225 193 q 275 213 255 193 q 294 260 294 233 q 275 308 294 288 q 225 328 255 328 l 122 328 q 73 308 92 328 q 53 260 53 288 q 73 213 53 233 q 122 193 92 193 m 469 193 l 572 193 q 622 213 602 193 q 642 260 642 233 q 622 308 642 288 q 572 328 602 328 l 469 328 q 420 308 439 328 q 400 260 400 288 q 420 213 400 233 q 469 193 439 193 m 308 366 l 560 366 q 620 387 598 366 q 642 434 642 407 q 620 481 642 461 q 560 502 598 502 l 308 502 q 248 481 270 502 q 227 434 227 461 q 248 387 227 407 q 308 366 270 366 m 469 540 l 572 540 q 622 560 602 540 q 642 608 642 581 q 622 655 642 635 q 572 675 602 675 l 469 675 q 420 655 439 675 q 400 608 400 635 q 420 560 400 581 q 469 540 439 540 m 221 713 l 473 713 q 533 734 511 713 q 555 781 555 754 q 533 829 555 808 q 473 849 511 849 l 221 849 q 161 829 183 849 q 140 781 140 808 q 161 734 140 754 q 221 713 183 713 m 122 1061 l 225 1061 q 275 1081 255 1061 q 294 1128 294 1101 q 275 1176 294 1156 q 225 1196 255 1196 l 122 1196 q 73 1176 92 1196 q 53 1128 53 1156 q 73 1081 53 1101 q 122 1061 92 1061 m 469 1061 l 572 1061 q 622 1081 602 1061 q 642 1128 642 1101 q 622 1176 642 1156 q 572 1196 602 1196 l 469 1196 q 420 1176 439 1196 q 400 1128 400 1156 q 420 1081 400 1101 q 469 1061 439 1061 z "},"à":{"ha":694,"x_min":53,"x_max":728,"o":"m 209 19 l 399 19 q 448 39 429 19 q 468 87 468 60 q 448 134 468 114 q 399 155 429 155 l 209 155 q 159 134 179 155 q 140 87 140 114 q 159 39 140 60 q 209 19 179 19 m 556 19 l 659 19 q 709 39 689 19 q 728 87 728 60 q 709 134 728 114 q 659 155 689 155 l 556 155 q 507 134 526 155 q 487 87 487 114 q 507 39 487 60 q 556 19 526 19 m 122 193 l 225 193 q 275 213 255 193 q 294 260 294 233 q 275 308 294 288 q 225 328 255 328 l 122 328 q 73 308 92 328 q 53 260 53 288 q 73 213 53 233 q 122 193 92 193 m 469 193 l 572 193 q 622 213 602 193 q 642 260 642 233 q 622 308 642 288 q 572 328 602 328 l 469 328 q 420 308 439 328 q 400 260 400 288 q 420 213 400 233 q 469 193 439 193 m 308 366 l 560 366 q 620 387 598 366 q 642 434 642 407 q 620 481 642 461 q 560 502 598 502 l 308 502 q 248 481 270 502 q 227 434 227 461 q 248 387 227 407 q 308 366 270 366 m 469 540 l 572 540 q 622 560 602 540 q 642 608 642 581 q 622 655 642 635 q 572 675 602 675 l 469 675 q 420 655 439 675 q 400 608 400 635 q 420 560 400 581 q 469 540 439 540 m 221 713 l 473 713 q 533 734 511 713 q 555 781 555 754 q 533 829 555 808 q 473 849 511 849 l 221 849 q 161 829 183 849 q 140 781 140 808 q 161 734 140 754 q 221 713 183 713 m 368 887 l 414 887 q 452 907 437 887 q 468 955 468 928 q 452 1002 468 982 q 414 1023 437 1023 l 368 1023 q 329 1002 345 1023 q 313 955 313 982 q 329 907 313 928 q 368 887 345 887 m 209 1061 l 312 1061 q 361 1081 342 1061 q 381 1128 381 1101 q 361 1176 381 1156 q 312 1196 342 1196 l 209 1196 q 159 1176 179 1196 q 140 1128 140 1156 q 159 1081 140 1101 q 209 1061 179 1061 z "},"å":{"ha":694,"x_min":53,"x_max":728,"o":"m 209 19 l 399 19 q 448 39 429 19 q 468 87 468 60 q 448 134 468 114 q 399 155 429 155 l 209 155 q 159 134 179 155 q 140 87 140 114 q 159 39 140 60 q 209 19 179 19 m 556 19 l 659 19 q 709 39 689 19 q 728 87 728 60 q 709 134 728 114 q 659 155 689 155 l 556 155 q 507 134 526 155 q 487 87 487 114 q 507 39 487 60 q 556 19 526 19 m 122 193 l 225 193 q 275 213 255 193 q 294 260 294 233 q 275 308 294 288 q 225 328 255 328 l 122 328 q 73 308 92 328 q 53 260 53 288 q 73 213 53 233 q 122 193 92 193 m 469 193 l 572 193 q 622 213 602 193 q 642 260 642 233 q 622 308 642 288 q 572 328 602 328 l 469 328 q 420 308 439 328 q 400 260 400 288 q 420 213 400 233 q 469 193 439 193 m 308 366 l 560 366 q 620 387 598 366 q 642 434 642 407 q 620 481 642 461 q 560 502 598 502 l 308 502 q 248 481 270 502 q 227 434 227 461 q 248 387 227 407 q 308 366 270 366 m 469 540 l 572 540 q 622 560 602 540 q 642 608 642 581 q 622 655 642 635 q 572 675 602 675 l 469 675 q 420 655 439 675 q 400 608 400 635 q 420 560 400 581 q 469 540 439 540 m 221 713 l 473 713 q 533 734 511 713 q 555 781 555 754 q 533 829 555 808 q 473 849 511 849 l 221 849 q 161 829 183 849 q 140 781 140 808 q 161 734 140 754 q 221 713 183 713 m 122 887 l 225 887 q 275 907 255 887 q 294 955 294 928 q 275 1002 294 982 q 225 1023 255 1023 l 122 1023 q 73 1002 92 1023 q 53 955 53 982 q 73 907 53 928 q 122 887 92 887 m 469 887 l 572 887 q 622 907 602 887 q 642 955 642 928 q 622 1002 642 982 q 572 1023 602 1023 l 469 1023 q 420 1002 439 1023 q 400 955 400 982 q 420 907 400 928 q 469 887 439 887 m 221 1061 l 473 1061 q 533 1081 511 1061 q 555 1128 555 1101 q 533 1176 555 1156 q 473 1196 511 1196 l 221 1196 q 161 1176 183 1196 q 140 1128 140 1156 q 161 1081 140 1101 q 221 1061 183 1061 z "},"ã":{"ha":694,"x_min":-34,"x_max":728,"o":"m 209 19 l 399 19 q 448 39 429 19 q 468 87 468 60 q 448 134 468 114 q 399 155 429 155 l 209 155 q 159 134 179 155 q 140 87 140 114 q 159 39 140 60 q 209 19 179 19 m 556 19 l 659 19 q 709 39 689 19 q 728 87 728 60 q 709 134 728 114 q 659 155 689 155 l 556 155 q 507 134 526 155 q 487 87 487 114 q 507 39 487 60 q 556 19 526 19 m 122 193 l 225 193 q 275 213 255 193 q 294 260 294 233 q 275 308 294 288 q 225 328 255 328 l 122 328 q 73 308 92 328 q 53 260 53 288 q 73 213 53 233 q 122 193 92 193 m 469 193 l 572 193 q 622 213 602 193 q 642 260 642 233 q 622 308 642 288 q 572 328 602 328 l 469 328 q 420 308 439 328 q 400 260 400 288 q 420 213 400 233 q 469 193 439 193 m 308 366 l 560 366 q 620 387 598 366 q 642 434 642 407 q 620 481 642 461 q 560 502 598 502 l 308 502 q 248 481 270 502 q 227 434 227 461 q 248 387 227 407 q 308 366 270 366 m 469 540 l 572 540 q 622 560 602 540 q 642 608 642 581 q 622 655 642 635 q 572 675 602 675 l 469 675 q 420 655 439 675 q 400 608 400 635 q 420 560 400 581 q 469 540 439 540 m 221 713 l 473 713 q 533 734 511 713 q 555 781 555 754 q 533 829 555 808 q 473 849 511 849 l 221 849 q 161 829 183 849 q 140 781 140 808 q 161 734 140 754 q 221 713 183 713 m 20 887 l 66 887 q 105 907 90 887 q 121 955 121 928 q 105 1002 121 982 q 66 1023 90 1023 l 20 1023 q -18 1002 -3 1023 q -34 955 -34 982 q -18 907 -34 928 q 20 887 -3 887 m 382 887 l 572 887 q 622 907 602 887 q 642 955 642 928 q 622 1002 642 982 q 572 1023 602 1023 l 382 1023 q 333 1002 353 1023 q 313 955 313 982 q 333 907 313 928 q 382 887 353 887 m 122 1061 l 312 1061 q 361 1081 342 1061 q 381 1128 381 1101 q 361 1176 381 1156 q 312 1196 342 1196 l 122 1196 q 73 1176 92 1196 q 53 1128 53 1156 q 73 1081 53 1101 q 122 1061 92 1061 m 628 1061 l 674 1061 q 713 1081 697 1061 q 728 1128 728 1101 q 713 1176 728 1156 q 674 1196 697 1196 l 628 1196 q 589 1176 605 1196 q 574 1128 574 1156 q 589 1081 574 1101 q 628 1061 605 1061 z "},"æ":{"ha":694,"x_min":-34,"x_max":728,"o":"m 122 19 l 312 19 q 361 39 342 19 q 381 87 381 60 q 361 134 381 114 q 312 155 342 155 l 122 155 q 73 134 92 155 q 53 87 53 114 q 73 39 53 60 q 122 19 92 19 m 469 19 l 659 19 q 709 39 689 19 q 728 87 728 60 q 709 134 728 114 q 659 155 689 155 l 469 155 q 420 134 439 155 q 400 87 400 114 q 420 39 400 60 q 469 19 439 19 m 35 193 l 138 193 q 188 213 168 193 q 208 260 208 233 q 188 308 208 288 q 138 328 168 328 l 35 328 q -14 308 5 328 q -34 260 -34 288 q -14 213 -34 233 q 35 193 5 193 m 296 193 l 399 193 q 448 213 429 193 q 468 260 468 233 q 448 308 468 288 q 399 328 429 328 l 296 328 q 246 308 266 328 q 227 260 227 288 q 246 213 227 233 q 296 193 266 193 m 134 366 l 647 366 q 707 387 685 366 q 728 434 728 407 q 707 481 728 461 q 647 502 685 502 l 134 502 q 75 481 96 502 q 53 434 53 461 q 75 387 53 407 q 134 366 96 366 m 296 540 l 399 540 q 448 560 429 540 q 468 608 468 581 q 448 655 468 635 q 399 675 429 675 l 296 675 q 246 655 266 675 q 227 608 227 635 q 246 560 227 581 q 296 540 266 540 m 556 540 l 659 540 q 709 560 689 540 q 728 608 728 581 q 709 655 728 635 q 659 675 689 675 l 556 675 q 507 655 526 675 q 487 608 487 635 q 507 560 487 581 q 556 540 526 540 m 134 713 l 560 713 q 620 734 598 713 q 642 781 642 754 q 620 829 642 808 q 560 849 598 849 l 134 849 q 75 829 96 849 q 53 781 53 808 q 75 734 53 754 q 134 713 96 713 z "},"b":{"ha":694,"x_min":-34,"x_max":642,"o":"m 221 19 l 473 19 q 533 39 511 19 q 555 87 555 60 q 533 134 555 114 q 473 155 511 155 l 221 155 q 161 134 183 155 q 140 87 140 114 q 161 39 140 60 q 221 19 183 19 m 122 193 l 225 193 q 275 213 255 193 q 294 260 294 233 q 275 308 294 288 q 225 328 255 328 l 122 328 q 73 308 92 328 q 53 260 53 288 q 73 213 53 233 q 122 193 92 193 m 469 193 l 572 193 q 622 213 602 193 q 642 260 642 233 q 622 308 642 288 q 572 328 602 328 l 469 328 q 420 308 439 328 q 400 260 400 288 q 420 213 400 233 q 469 193 439 193 m 122 366 l 225 366 q 275 387 255 366 q 294 434 294 407 q 275 481 294 461 q 225 502 255 502 l 122 502 q 73 481 92 502 q 53 434 53 461 q 73 387 53 407 q 122 366 92 366 m 469 366 l 572 366 q 622 387 602 366 q 642 434 642 407 q 622 481 642 461 q 572 502 602 502 l 469 502 q 420 481 439 502 q 400 434 400 461 q 420 387 400 407 q 469 366 439 366 m 122 540 l 312 540 q 361 560 342 540 q 381 608 381 581 q 361 655 381 635 q 312 675 342 675 l 122 675 q 73 655 92 675 q 53 608 53 635 q 73 560 53 581 q 122 540 92 540 m 469 540 l 572 540 q 622 560 602 540 q 642 608 642 581 q 622 655 642 635 q 572 675 602 675 l 469 675 q 420 655 439 675 q 400 608 400 635 q 420 560 400 581 q 469 540 439 540 m 122 713 l 225 713 q 275 734 255 713 q 294 781 294 754 q 275 829 294 808 q 225 849 255 849 l 122 849 q 73 829 92 849 q 53 781 53 808 q 73 734 53 754 q 122 713 92 713 m 382 713 l 486 713 q 535 734 515 713 q 555 781 555 754 q 535 829 555 808 q 486 849 515 849 l 382 849 q 333 829 353 849 q 313 781 313 808 q 333 734 313 754 q 382 713 353 713 m 122 887 l 225 887 q 275 907 255 887 q 294 955 294 928 q 275 1002 294 982 q 225 1023 255 1023 l 122 1023 q 73 1002 92 1023 q 53 955 53 982 q 73 907 53 928 q 122 887 92 887 m 35 1061 l 225 1061 q 275 1081 255 1061 q 294 1128 294 1101 q 275 1176 294 1156 q 225 1196 255 1196 l 35 1196 q -14 1176 5 1196 q -34 1128 -34 1156 q -14 1081 -34 1101 q 35 1061 5 1061 z "},"c":{"ha":694,"x_min":53,"x_max":642,"o":"m 221 19 l 473 19 q 533 39 511 19 q 555 87 555 60 q 533 134 555 114 q 473 155 511 155 l 221 155 q 161 134 183 155 q 140 87 140 114 q 161 39 140 60 q 221 19 183 19 m 122 193 l 225 193 q 275 213 255 193 q 294 260 294 233 q 275 308 294 288 q 225 328 255 328 l 122 328 q 73 308 92 328 q 53 260 53 288 q 73 213 53 233 q 122 193 92 193 m 469 193 l 572 193 q 622 213 602 193 q 642 260 642 233 q 622 308 642 288 q 572 328 602 328 l 469 328 q 420 308 439 328 q 400 260 400 288 q 420 213 400 233 q 469 193 439 193 m 122 366 l 225 366 q 275 387 255 366 q 294 434 294 407 q 275 481 294 461 q 225 502 255 502 l 122 502 q 73 481 92 502 q 53 434 53 461 q 73 387 53 407 q 122 366 92 366 m 122 540 l 225 540 q 275 560 255 540 q 294 608 294 581 q 275 655 294 635 q 225 675 255 675 l 122 675 q 73 655 92 675 q 53 608 53 635 q 73 560 53 581 q 122 540 92 540 m 469 540 l 572 540 q 622 560 602 540 q 642 608 642 581 q 622 655 642 635 q 572 675 602 675 l 469 675 q 420 655 439 675 q 400 608 400 635 q 420 560 400 581 q 469 540 439 540 m 221 713 l 473 713 q 533 734 511 713 q 555 781 555 754 q 533 829 555 808 q 473 849 511 849 l 221 849 q 161 829 183 849 q 140 781 140 808 q 161 734 140 754 q 221 713 183 713 z "},"ç":{"ha":694,"x_min":53,"x_max":642,"o":"m 281 -155 l 327 -155 q 366 -134 350 -155 q 381 -87 381 -114 q 366 -39 381 -60 q 327 -19 350 -19 l 281 -19 q 242 -39 258 -19 q 227 -87 227 -60 q 242 -134 227 -114 q 281 -155 258 -155 m 221 19 l 473 19 q 533 39 511 19 q 555 87 555 60 q 533 134 555 114 q 473 155 511 155 l 221 155 q 161 134 183 155 q 140 87 140 114 q 161 39 140 60 q 221 19 183 19 m 122 193 l 225 193 q 275 213 255 193 q 294 260 294 233 q 275 308 294 288 q 225 328 255 328 l 122 328 q 73 308 92 328 q 53 260 53 288 q 73 213 53 233 q 122 193 92 193 m 469 193 l 572 193 q 622 213 602 193 q 642 260 642 233 q 622 308 642 288 q 572 328 602 328 l 469 328 q 420 308 439 328 q 400 260 400 288 q 420 213 400 233 q 469 193 439 193 m 122 366 l 225 366 q 275 387 255 366 q 294 434 294 407 q 275 481 294 461 q 225 502 255 502 l 122 502 q 73 481 92 502 q 53 434 53 461 q 73 387 53 407 q 122 366 92 366 m 122 540 l 225 540 q 275 560 255 540 q 294 608 294 581 q 275 655 294 635 q 225 675 255 675 l 122 675 q 73 655 92 675 q 53 608 53 635 q 73 560 53 581 q 122 540 92 540 m 469 540 l 572 540 q 622 560 602 540 q 642 608 642 581 q 622 655 642 635 q 572 675 602 675 l 469 675 q 420 655 439 675 q 400 608 400 635 q 420 560 400 581 q 469 540 439 540 m 221 713 l 473 713 q 533 734 511 713 q 555 781 555 754 q 533 829 555 808 q 473 849 511 849 l 221 849 q 161 829 183 849 q 140 781 140 808 q 161 734 140 754 q 221 713 183 713 z "},"d":{"ha":694,"x_min":53,"x_max":728,"o":"m 209 19 l 399 19 q 448 39 429 19 q 468 87 468 60 q 448 134 468 114 q 399 155 429 155 l 209 155 q 159 134 179 155 q 140 87 140 114 q 159 39 140 60 q 209 19 179 19 m 556 19 l 659 19 q 709 39 689 19 q 728 87 728 60 q 709 134 728 114 q 659 155 689 155 l 556 155 q 507 134 526 155 q 487 87 487 114 q 507 39 487 60 q 556 19 526 19 m 122 193 l 225 193 q 275 213 255 193 q 294 260 294 233 q 275 308 294 288 q 225 328 255 328 l 122 328 q 73 308 92 328 q 53 260 53 288 q 73 213 53 233 q 122 193 92 193 m 469 193 l 572 193 q 622 213 602 193 q 642 260 642 233 q 622 308 642 288 q 572 328 602 328 l 469 328 q 420 308 439 328 q 400 260 400 288 q 420 213 400 233 q 469 193 439 193 m 122 366 l 225 366 q 275 387 255 366 q 294 434 294 407 q 275 481 294 461 q 225 502 255 502 l 122 502 q 73 481 92 502 q 53 434 53 461 q 73 387 53 407 q 122 366 92 366 m 469 366 l 572 366 q 622 387 602 366 q 642 434 642 407 q 622 481 642 461 q 572 502 602 502 l 469 502 q 420 481 439 502 q 400 434 400 461 q 420 387 400 407 q 469 366 439 366 m 122 540 l 225 540 q 275 560 255 540 q 294 608 294 581 q 275 655 294 635 q 225 675 255 675 l 122 675 q 73 655 92 675 q 53 608 53 635 q 73 560 53 581 q 122 540 92 540 m 382 540 l 572 540 q 622 560 602 540 q 642 608 642 581 q 622 655 642 635 q 572 675 602 675 l 382 675 q 333 655 353 675 q 313 608 313 635 q 333 560 313 581 q 382 540 353 540 m 209 713 l 312 713 q 361 734 342 713 q 381 781 381 754 q 361 829 381 808 q 312 849 342 849 l 209 849 q 159 829 179 849 q 140 781 140 808 q 159 734 140 754 q 209 713 179 713 m 469 713 l 572 713 q 622 734 602 713 q 642 781 642 754 q 622 829 642 808 q 572 849 602 849 l 469 849 q 420 829 439 849 q 400 781 400 808 q 420 734 400 754 q 469 713 439 713 m 469 887 l 572 887 q 622 907 602 887 q 642 955 642 928 q 622 1002 642 982 q 572 1023 602 1023 l 469 1023 q 420 1002 439 1023 q 400 955 400 982 q 420 907 400 928 q 469 887 439 887 m 382 1061 l 572 1061 q 622 1081 602 1061 q 642 1128 642 1101 q 622 1176 642 1156 q 572 1196 602 1196 l 382 1196 q 333 1176 353 1196 q 313 1128 313 1156 q 333 1081 313 1101 q 382 1061 353 1061 z "},"ð":{"ha":694,"x_min":-34,"x_max":642,"o":"m 134 19 l 473 19 q 533 39 511 19 q 555 87 555 60 q 533 134 555 114 q 473 155 511 155 l 134 155 q 75 134 96 155 q 53 87 53 114 q 75 39 53 60 q 134 19 96 19 m 35 193 l 138 193 q 188 213 168 193 q 208 260 208 233 q 188 308 208 288 q 138 328 168 328 l 35 328 q -14 308 5 328 q -34 260 -34 288 q -14 213 -34 233 q 35 193 5 193 m 469 193 l 572 193 q 622 213 602 193 q 642 260 642 233 q 622 308 642 288 q 572 328 602 328 l 469 328 q 420 308 439 328 q 400 260 400 288 q 420 213 400 233 q 469 193 439 193 m 35 366 l 138 366 q 188 387 168 366 q 208 434 208 407 q 188 481 208 461 q 138 502 168 502 l 35 502 q -14 481 5 502 q -34 434 -34 461 q -14 387 -34 407 q 35 366 5 366 m 469 366 l 572 366 q 622 387 602 366 q 642 434 642 407 q 622 481 642 461 q 572 502 602 502 l 469 502 q 420 481 439 502 q 400 434 400 461 q 420 387 400 407 q 469 366 439 366 m 134 540 l 473 540 q 533 560 511 540 q 555 608 555 581 q 533 655 555 635 q 473 675 511 675 l 134 675 q 75 655 96 675 q 53 608 53 635 q 75 560 53 581 q 134 540 96 540 m 296 713 l 399 713 q 448 734 429 713 q 468 781 468 754 q 448 829 468 808 q 399 849 429 849 l 296 849 q 246 829 266 849 q 227 781 227 808 q 246 734 227 754 q 296 713 266 713 m 47 887 l 473 887 q 533 907 511 887 q 555 955 555 928 q 533 1002 555 982 q 473 1023 511 1023 l 47 1023 q -12 1002 9 1023 q -34 955 -34 982 q -12 907 -34 928 q 47 887 9 887 m 122 1061 l 225 1061 q 275 1081 255 1061 q 294 1128 294 1101 q 275 1176 294 1156 q 225 1196 255 1196 l 122 1196 q 73 1176 92 1196 q 53 1128 53 1156 q 73 1081 53 1101 q 122 1061 92 1061 z "},"e":{"ha":694,"x_min":53,"x_max":642,"o":"m 221 19 l 473 19 q 533 39 511 19 q 555 87 555 60 q 533 134 555 114 q 473 155 511 155 l 221 155 q 161 134 183 155 q 140 87 140 114 q 161 39 140 60 q 221 19 183 19 m 122 193 l 225 193 q 275 213 255 193 q 294 260 294 233 q 275 308 294 288 q 225 328 255 328 l 122 328 q 73 308 92 328 q 53 260 53 288 q 73 213 53 233 q 122 193 92 193 m 134 366 l 560 366 q 620 387 598 366 q 642 434 642 407 q 620 481 642 461 q 560 502 598 502 l 134 502 q 75 481 96 502 q 53 434 53 461 q 75 387 53 407 q 134 366 96 366 m 122 540 l 225 540 q 275 560 255 540 q 294 608 294 581 q 275 655 294 635 q 225 675 255 675 l 122 675 q 73 655 92 675 q 53 608 53 635 q 73 560 53 581 q 122 540 92 540 m 469 540 l 572 540 q 622 560 602 540 q 642 608 642 581 q 622 655 642 635 q 572 675 602 675 l 469 675 q 420 655 439 675 q 400 608 400 635 q 420 560 400 581 q 469 540 439 540 m 221 713 l 473 713 q 533 734 511 713 q 555 781 555 754 q 533 829 555 808 q 473 849 511 849 l 221 849 q 161 829 183 849 q 140 781 140 808 q 161 734 140 754 q 221 713 183 713 z "},"é":{"ha":694,"x_min":53,"x_max":642,"o":"m 221 19 l 473 19 q 533 39 511 19 q 555 87 555 60 q 533 134 555 114 q 473 155 511 155 l 221 155 q 161 134 183 155 q 140 87 140 114 q 161 39 140 60 q 221 19 183 19 m 122 193 l 225 193 q 275 213 255 193 q 294 260 294 233 q 275 308 294 288 q 225 328 255 328 l 122 328 q 73 308 92 328 q 53 260 53 288 q 73 213 53 233 q 122 193 92 193 m 134 366 l 560 366 q 620 387 598 366 q 642 434 642 407 q 620 481 642 461 q 560 502 598 502 l 134 502 q 75 481 96 502 q 53 434 53 461 q 75 387 53 407 q 134 366 96 366 m 122 540 l 225 540 q 275 560 255 540 q 294 608 294 581 q 275 655 294 635 q 225 675 255 675 l 122 675 q 73 655 92 675 q 53 608 53 635 q 73 560 53 581 q 122 540 92 540 m 469 540 l 572 540 q 622 560 602 540 q 642 608 642 581 q 622 655 642 635 q 572 675 602 675 l 469 675 q 420 655 439 675 q 400 608 400 635 q 420 560 400 581 q 469 540 439 540 m 221 713 l 473 713 q 533 734 511 713 q 555 781 555 754 q 533 829 555 808 q 473 849 511 849 l 221 849 q 161 829 183 849 q 140 781 140 808 q 161 734 140 754 q 221 713 183 713 m 281 887 l 327 887 q 366 907 350 887 q 381 955 381 928 q 366 1002 381 982 q 327 1023 350 1023 l 281 1023 q 242 1002 258 1023 q 227 955 227 982 q 242 907 227 928 q 281 887 258 887 m 382 1061 l 486 1061 q 535 1081 515 1061 q 555 1128 555 1101 q 535 1176 555 1156 q 486 1196 515 1196 l 382 1196 q 333 1176 353 1196 q 313 1128 313 1156 q 333 1081 313 1101 q 382 1061 353 1061 z "},"ê":{"ha":694,"x_min":53,"x_max":642,"o":"m 221 19 l 473 19 q 533 39 511 19 q 555 87 555 60 q 533 134 555 114 q 473 155 511 155 l 221 155 q 161 134 183 155 q 140 87 140 114 q 161 39 140 60 q 221 19 183 19 m 122 193 l 225 193 q 275 213 255 193 q 294 260 294 233 q 275 308 294 288 q 225 328 255 328 l 122 328 q 73 308 92 328 q 53 260 53 288 q 73 213 53 233 q 122 193 92 193 m 134 366 l 560 366 q 620 387 598 366 q 642 434 642 407 q 620 481 642 461 q 560 502 598 502 l 134 502 q 75 481 96 502 q 53 434 53 461 q 75 387 53 407 q 134 366 96 366 m 122 540 l 225 540 q 275 560 255 540 q 294 608 294 581 q 275 655 294 635 q 225 675 255 675 l 122 675 q 73 655 92 675 q 53 608 53 635 q 73 560 53 581 q 122 540 92 540 m 469 540 l 572 540 q 622 560 602 540 q 642 608 642 581 q 622 655 642 635 q 572 675 602 675 l 469 675 q 420 655 439 675 q 400 608 400 635 q 420 560 400 581 q 469 540 439 540 m 221 713 l 473 713 q 533 734 511 713 q 555 781 555 754 q 533 829 555 808 q 473 849 511 849 l 221 849 q 161 829 183 849 q 140 781 140 808 q 161 734 140 754 q 221 713 183 713 m 194 887 l 240 887 q 279 907 263 887 q 294 955 294 928 q 279 1002 294 982 q 240 1023 263 1023 l 194 1023 q 155 1002 171 1023 q 140 955 140 982 q 155 907 140 928 q 194 887 171 887 m 454 887 l 500 887 q 539 907 524 887 q 555 955 555 928 q 539 1002 555 982 q 500 1023 524 1023 l 454 1023 q 416 1002 431 1023 q 400 955 400 982 q 416 907 400 928 q 454 887 431 887 m 296 1061 l 399 1061 q 448 1081 429 1061 q 468 1128 468 1101 q 448 1176 468 1156 q 399 1196 429 1196 l 296 1196 q 246 1176 266 1196 q 227 1128 227 1156 q 246 1081 227 1101 q 296 1061 266 1061 z "},"ë":{"ha":694,"x_min":53,"x_max":642,"o":"m 221 19 l 473 19 q 533 39 511 19 q 555 87 555 60 q 533 134 555 114 q 473 155 511 155 l 221 155 q 161 134 183 155 q 140 87 140 114 q 161 39 140 60 q 221 19 183 19 m 122 193 l 225 193 q 275 213 255 193 q 294 260 294 233 q 275 308 294 288 q 225 328 255 328 l 122 328 q 73 308 92 328 q 53 260 53 288 q 73 213 53 233 q 122 193 92 193 m 134 366 l 560 366 q 620 387 598 366 q 642 434 642 407 q 620 481 642 461 q 560 502 598 502 l 134 502 q 75 481 96 502 q 53 434 53 461 q 75 387 53 407 q 134 366 96 366 m 122 540 l 225 540 q 275 560 255 540 q 294 608 294 581 q 275 655 294 635 q 225 675 255 675 l 122 675 q 73 655 92 675 q 53 608 53 635 q 73 560 53 581 q 122 540 92 540 m 469 540 l 572 540 q 622 560 602 540 q 642 608 642 581 q 622 655 642 635 q 572 675 602 675 l 469 675 q 420 655 439 675 q 400 608 400 635 q 420 560 400 581 q 469 540 439 540 m 221 713 l 473 713 q 533 734 511 713 q 555 781 555 754 q 533 829 555 808 q 473 849 511 849 l 221 849 q 161 829 183 849 q 140 781 140 808 q 161 734 140 754 q 221 713 183 713 m 122 1061 l 225 1061 q 275 1081 255 1061 q 294 1128 294 1101 q 275 1176 294 1156 q 225 1196 255 1196 l 122 1196 q 73 1176 92 1196 q 53 1128 53 1156 q 73 1081 53 1101 q 122 1061 92 1061 m 469 1061 l 572 1061 q 622 1081 602 1061 q 642 1128 642 1101 q 622 1176 642 1156 q 572 1196 602 1196 l 469 1196 q 420 1176 439 1196 q 400 1128 400 1156 q 420 1081 400 1101 q 469 1061 439 1061 z "},"è":{"ha":694,"x_min":53,"x_max":642,"o":"m 221 19 l 473 19 q 533 39 511 19 q 555 87 555 60 q 533 134 555 114 q 473 155 511 155 l 221 155 q 161 134 183 155 q 140 87 140 114 q 161 39 140 60 q 221 19 183 19 m 122 193 l 225 193 q 275 213 255 193 q 294 260 294 233 q 275 308 294 288 q 225 328 255 328 l 122 328 q 73 308 92 328 q 53 260 53 288 q 73 213 53 233 q 122 193 92 193 m 134 366 l 560 366 q 620 387 598 366 q 642 434 642 407 q 620 481 642 461 q 560 502 598 502 l 134 502 q 75 481 96 502 q 53 434 53 461 q 75 387 53 407 q 134 366 96 366 m 122 540 l 225 540 q 275 560 255 540 q 294 608 294 581 q 275 655 294 635 q 225 675 255 675 l 122 675 q 73 655 92 675 q 53 608 53 635 q 73 560 53 581 q 122 540 92 540 m 469 540 l 572 540 q 622 560 602 540 q 642 608 642 581 q 622 655 642 635 q 572 675 602 675 l 469 675 q 420 655 439 675 q 400 608 400 635 q 420 560 400 581 q 469 540 439 540 m 221 713 l 473 713 q 533 734 511 713 q 555 781 555 754 q 533 829 555 808 q 473 849 511 849 l 221 849 q 161 829 183 849 q 140 781 140 808 q 161 734 140 754 q 221 713 183 713 m 368 887 l 414 887 q 452 907 437 887 q 468 955 468 928 q 452 1002 468 982 q 414 1023 437 1023 l 368 1023 q 329 1002 345 1023 q 313 955 313 982 q 329 907 313 928 q 368 887 345 887 m 209 1061 l 312 1061 q 361 1081 342 1061 q 381 1128 381 1101 q 361 1176 381 1156 q 312 1196 342 1196 l 209 1196 q 159 1176 179 1196 q 140 1128 140 1156 q 159 1081 140 1101 q 209 1061 179 1061 z "},"f":{"ha":694,"x_min":53,"x_max":642,"o":"m 134 19 l 387 19 q 446 39 425 19 q 468 87 468 60 q 446 134 468 114 q 387 155 425 155 l 134 155 q 75 134 96 155 q 53 87 53 114 q 75 39 53 60 q 134 19 96 19 m 209 193 l 312 193 q 361 213 342 193 q 381 260 381 233 q 361 308 381 288 q 312 328 342 328 l 209 328 q 159 308 179 328 q 140 260 140 288 q 159 213 140 233 q 209 193 179 193 m 209 366 l 312 366 q 361 387 342 366 q 381 434 381 407 q 361 481 381 461 q 312 502 342 502 l 209 502 q 159 481 179 502 q 140 434 140 461 q 159 387 140 407 q 209 366 179 366 m 134 540 l 387 540 q 446 560 425 540 q 468 608 468 581 q 446 655 468 635 q 387 675 425 675 l 134 675 q 75 655 96 675 q 53 608 53 635 q 75 560 53 581 q 134 540 96 540 m 209 713 l 312 713 q 361 734 342 713 q 381 781 381 754 q 361 829 381 808 q 312 849 342 849 l 209 849 q 159 829 179 849 q 140 781 140 808 q 159 734 140 754 q 209 713 179 713 m 209 887 l 312 887 q 361 907 342 887 q 381 955 381 928 q 361 1002 381 982 q 312 1023 342 1023 l 209 1023 q 159 1002 179 1023 q 140 955 140 982 q 159 907 140 928 q 209 887 179 887 m 469 887 l 572 887 q 622 907 602 887 q 642 955 642 928 q 622 1002 642 982 q 572 1023 602 1023 l 469 1023 q 420 1002 439 1023 q 400 955 400 982 q 420 907 400 928 q 469 887 439 887 m 296 1061 l 486 1061 q 535 1081 515 1061 q 555 1128 555 1101 q 535 1176 555 1156 q 486 1196 515 1196 l 296 1196 q 246 1176 266 1196 q 227 1128 227 1156 q 246 1081 227 1101 q 296 1061 266 1061 z "},"g":{"ha":694,"x_min":-34,"x_max":728,"o":"m 134 -155 l 473 -155 q 533 -134 511 -155 q 555 -87 555 -114 q 533 -39 555 -60 q 473 -19 511 -19 l 134 -19 q 75 -39 96 -19 q 53 -87 53 -60 q 75 -134 53 -114 q 134 -155 96 -155 m 35 19 l 138 19 q 188 39 168 19 q 208 87 208 60 q 188 134 208 114 q 138 155 168 155 l 35 155 q -14 134 5 155 q -34 87 -34 114 q -14 39 -34 60 q 35 19 5 19 m 469 19 l 572 19 q 622 39 602 19 q 642 87 642 60 q 622 134 642 114 q 572 155 602 155 l 469 155 q 420 134 439 155 q 400 87 400 114 q 420 39 400 60 q 469 19 439 19 m 221 193 l 473 193 q 533 213 511 193 q 555 260 555 233 q 533 308 555 288 q 473 328 511 328 l 221 328 q 161 308 183 328 q 140 260 140 288 q 161 213 140 233 q 221 193 183 193 m 122 366 l 225 366 q 275 387 255 366 q 294 434 294 407 q 275 481 294 461 q 225 502 255 502 l 122 502 q 73 481 92 502 q 53 434 53 461 q 73 387 53 407 q 122 366 92 366 m 469 366 l 572 366 q 622 387 602 366 q 642 434 642 407 q 622 481 642 461 q 572 502 602 502 l 469 502 q 420 481 439 502 q 400 434 400 461 q 420 387 400 407 q 469 366 439 366 m 122 540 l 225 540 q 275 560 255 540 q 294 608 294 581 q 275 655 294 635 q 225 675 255 675 l 122 675 q 73 655 92 675 q 53 608 53 635 q 73 560 53 581 q 122 540 92 540 m 469 540 l 572 540 q 622 560 602 540 q 642 608 642 581 q 622 655 642 635 q 572 675 602 675 l 469 675 q 420 655 439 675 q 400 608 400 635 q 420 560 400 581 q 469 540 439 540 m 209 713 l 399 713 q 448 734 429 713 q 468 781 468 754 q 448 829 468 808 q 399 849 429 849 l 209 849 q 159 829 179 849 q 140 781 140 808 q 159 734 140 754 q 209 713 179 713 m 556 713 l 659 713 q 709 734 689 713 q 728 781 728 754 q 709 829 728 808 q 659 849 689 849 l 556 849 q 507 829 526 849 q 487 781 487 808 q 507 734 487 754 q 556 713 526 713 z "},"h":{"ha":694,"x_min":-34,"x_max":642,"o":"m 35 19 l 225 19 q 275 39 255 19 q 294 87 294 60 q 275 134 294 114 q 225 155 255 155 l 35 155 q -14 134 5 155 q -34 87 -34 114 q -14 39 -34 60 q 35 19 5 19 m 469 19 l 572 19 q 622 39 602 19 q 642 87 642 60 q 622 134 642 114 q 572 155 602 155 l 469 155 q 420 134 439 155 q 400 87 400 114 q 420 39 400 60 q 469 19 439 19 m 122 193 l 225 193 q 275 213 255 193 q 294 260 294 233 q 275 308 294 288 q 225 328 255 328 l 122 328 q 73 308 92 328 q 53 260 53 288 q 73 213 53 233 q 122 193 92 193 m 469 193 l 572 193 q 622 213 602 193 q 642 260 642 233 q 622 308 642 288 q 572 328 602 328 l 469 328 q 420 308 439 328 q 400 260 400 288 q 420 213 400 233 q 469 193 439 193 m 122 366 l 225 366 q 275 387 255 366 q 294 434 294 407 q 275 481 294 461 q 225 502 255 502 l 122 502 q 73 481 92 502 q 53 434 53 461 q 73 387 53 407 q 122 366 92 366 m 469 366 l 572 366 q 622 387 602 366 q 642 434 642 407 q 622 481 642 461 q 572 502 602 502 l 469 502 q 420 481 439 502 q 400 434 400 461 q 420 387 400 407 q 469 366 439 366 m 122 540 l 312 540 q 361 560 342 540 q 381 608 381 581 q 361 655 381 635 q 312 675 342 675 l 122 675 q 73 655 92 675 q 53 608 53 635 q 73 560 53 581 q 122 540 92 540 m 469 540 l 572 540 q 622 560 602 540 q 642 608 642 581 q 622 655 642 635 q 572 675 602 675 l 469 675 q 420 655 439 675 q 400 608 400 635 q 420 560 400 581 q 469 540 439 540 m 122 713 l 225 713 q 275 734 255 713 q 294 781 294 754 q 275 829 294 808 q 225 849 255 849 l 122 849 q 73 829 92 849 q 53 781 53 808 q 73 734 53 754 q 122 713 92 713 m 382 713 l 486 713 q 535 734 515 713 q 555 781 555 754 q 535 829 555 808 q 486 849 515 849 l 382 849 q 333 829 353 849 q 313 781 313 808 q 333 734 313 754 q 382 713 353 713 m 122 887 l 225 887 q 275 907 255 887 q 294 955 294 928 q 275 1002 294 982 q 225 1023 255 1023 l 122 1023 q 73 1002 92 1023 q 53 955 53 982 q 73 907 53 928 q 122 887 92 887 m 35 1061 l 225 1061 q 275 1081 255 1061 q 294 1128 294 1101 q 275 1176 294 1156 q 225 1196 255 1196 l 35 1196 q -14 1176 5 1196 q -34 1128 -34 1156 q -14 1081 -34 1101 q 35 1061 5 1061 z "},"i":{"ha":694,"x_min":140,"x_max":555,"o":"m 221 19 l 473 19 q 533 39 511 19 q 555 87 555 60 q 533 134 555 114 q 473 155 511 155 l 221 155 q 161 134 183 155 q 140 87 140 114 q 161 39 140 60 q 221 19 183 19 m 296 193 l 399 193 q 448 213 429 193 q 468 260 468 233 q 448 308 468 288 q 399 328 429 328 l 296 328 q 246 308 266 328 q 227 260 227 288 q 246 213 227 233 q 296 193 266 193 m 296 366 l 399 366 q 448 387 429 366 q 468 434 468 407 q 448 481 468 461 q 399 502 429 502 l 296 502 q 246 481 266 502 q 227 434 227 461 q 246 387 227 407 q 296 366 266 366 m 296 540 l 399 540 q 448 560 429 540 q 468 608 468 581 q 448 655 468 635 q 399 675 429 675 l 296 675 q 246 655 266 675 q 227 608 227 635 q 246 560 227 581 q 296 540 266 540 m 209 713 l 399 713 q 448 734 429 713 q 468 781 468 754 q 448 829 468 808 q 399 849 429 849 l 209 849 q 159 829 179 849 q 140 781 140 808 q 159 734 140 754 q 209 713 179 713 m 296 1061 l 399 1061 q 448 1081 429 1061 q 468 1128 468 1101 q 448 1176 468 1156 q 399 1196 429 1196 l 296 1196 q 246 1176 266 1196 q 227 1128 227 1156 q 246 1081 227 1101 q 296 1061 266 1061 z "},"ı":{"ha":694,"x_min":140,"x_max":555,"o":"m 221 19 l 473 19 q 533 39 511 19 q 555 87 555 60 q 533 134 555 114 q 473 155 511 155 l 221 155 q 161 134 183 155 q 140 87 140 114 q 161 39 140 60 q 221 19 183 19 m 296 193 l 399 193 q 448 213 429 193 q 468 260 468 233 q 448 308 468 288 q 399 328 429 328 l 296 328 q 246 308 266 328 q 227 260 227 288 q 246 213 227 233 q 296 193 266 193 m 296 366 l 399 366 q 448 387 429 366 q 468 434 468 407 q 448 481 468 461 q 399 502 429 502 l 296 502 q 246 481 266 502 q 227 434 227 461 q 246 387 227 407 q 296 366 266 366 m 296 540 l 399 540 q 448 560 429 540 q 468 608 468 581 q 448 655 468 635 q 399 675 429 675 l 296 675 q 246 655 266 675 q 227 608 227 635 q 246 560 227 581 q 296 540 266 540 m 209 713 l 399 713 q 448 734 429 713 q 468 781 468 754 q 448 829 468 808 q 399 849 429 849 l 209 849 q 159 829 179 849 q 140 781 140 808 q 159 734 140 754 q 209 713 179 713 z "},"í":{"ha":694,"x_min":140,"x_max":555,"o":"m 221 19 l 473 19 q 533 39 511 19 q 555 87 555 60 q 533 134 555 114 q 473 155 511 155 l 221 155 q 161 134 183 155 q 140 87 140 114 q 161 39 140 60 q 221 19 183 19 m 296 193 l 399 193 q 448 213 429 193 q 468 260 468 233 q 448 308 468 288 q 399 328 429 328 l 296 328 q 246 308 266 328 q 227 260 227 288 q 246 213 227 233 q 296 193 266 193 m 296 366 l 399 366 q 448 387 429 366 q 468 434 468 407 q 448 481 468 461 q 399 502 429 502 l 296 502 q 246 481 266 502 q 227 434 227 461 q 246 387 227 407 q 296 366 266 366 m 296 540 l 399 540 q 448 560 429 540 q 468 608 468 581 q 448 655 468 635 q 399 675 429 675 l 296 675 q 246 655 266 675 q 227 608 227 635 q 246 560 227 581 q 296 540 266 540 m 209 713 l 399 713 q 448 734 429 713 q 468 781 468 754 q 448 829 468 808 q 399 849 429 849 l 209 849 q 159 829 179 849 q 140 781 140 808 q 159 734 140 754 q 209 713 179 713 m 281 887 l 327 887 q 366 907 350 887 q 381 955 381 928 q 366 1002 381 982 q 327 1023 350 1023 l 281 1023 q 242 1002 258 1023 q 227 955 227 982 q 242 907 227 928 q 281 887 258 887 m 382 1061 l 486 1061 q 535 1081 515 1061 q 555 1128 555 1101 q 535 1176 555 1156 q 486 1196 515 1196 l 382 1196 q 333 1176 353 1196 q 313 1128 313 1156 q 333 1081 313 1101 q 382 1061 353 1061 z "},"î":{"ha":694,"x_min":140,"x_max":555,"o":"m 221 19 l 473 19 q 533 39 511 19 q 555 87 555 60 q 533 134 555 114 q 473 155 511 155 l 221 155 q 161 134 183 155 q 140 87 140 114 q 161 39 140 60 q 221 19 183 19 m 296 193 l 399 193 q 448 213 429 193 q 468 260 468 233 q 448 308 468 288 q 399 328 429 328 l 296 328 q 246 308 266 328 q 227 260 227 288 q 246 213 227 233 q 296 193 266 193 m 296 366 l 399 366 q 448 387 429 366 q 468 434 468 407 q 448 481 468 461 q 399 502 429 502 l 296 502 q 246 481 266 502 q 227 434 227 461 q 246 387 227 407 q 296 366 266 366 m 296 540 l 399 540 q 448 560 429 540 q 468 608 468 581 q 448 655 468 635 q 399 675 429 675 l 296 675 q 246 655 266 675 q 227 608 227 635 q 246 560 227 581 q 296 540 266 540 m 209 713 l 399 713 q 448 734 429 713 q 468 781 468 754 q 448 829 468 808 q 399 849 429 849 l 209 849 q 159 829 179 849 q 140 781 140 808 q 159 734 140 754 q 209 713 179 713 m 194 887 l 240 887 q 279 907 263 887 q 294 955 294 928 q 279 1002 294 982 q 240 1023 263 1023 l 194 1023 q 155 1002 171 1023 q 140 955 140 982 q 155 907 140 928 q 194 887 171 887 m 454 887 l 500 887 q 539 907 524 887 q 555 955 555 928 q 539 1002 555 982 q 500 1023 524 1023 l 454 1023 q 416 1002 431 1023 q 400 955 400 982 q 416 907 400 928 q 454 887 431 887 m 296 1061 l 399 1061 q 448 1081 429 1061 q 468 1128 468 1101 q 448 1176 468 1156 q 399 1196 429 1196 l 296 1196 q 246 1176 266 1196 q 227 1128 227 1156 q 246 1081 227 1101 q 296 1061 266 1061 z "},"ï":{"ha":694,"x_min":53,"x_max":642,"o":"m 221 19 l 473 19 q 533 39 511 19 q 555 87 555 60 q 533 134 555 114 q 473 155 511 155 l 221 155 q 161 134 183 155 q 140 87 140 114 q 161 39 140 60 q 221 19 183 19 m 296 193 l 399 193 q 448 213 429 193 q 468 260 468 233 q 448 308 468 288 q 399 328 429 328 l 296 328 q 246 308 266 328 q 227 260 227 288 q 246 213 227 233 q 296 193 266 193 m 296 366 l 399 366 q 448 387 429 366 q 468 434 468 407 q 448 481 468 461 q 399 502 429 502 l 296 502 q 246 481 266 502 q 227 434 227 461 q 246 387 227 407 q 296 366 266 366 m 296 540 l 399 540 q 448 560 429 540 q 468 608 468 581 q 448 655 468 635 q 399 675 429 675 l 296 675 q 246 655 266 675 q 227 608 227 635 q 246 560 227 581 q 296 540 266 540 m 209 713 l 399 713 q 448 734 429 713 q 468 781 468 754 q 448 829 468 808 q 399 849 429 849 l 209 849 q 159 829 179 849 q 140 781 140 808 q 159 734 140 754 q 209 713 179 713 m 122 1061 l 225 1061 q 275 1081 255 1061 q 294 1128 294 1101 q 275 1176 294 1156 q 225 1196 255 1196 l 122 1196 q 73 1176 92 1196 q 53 1128 53 1156 q 73 1081 53 1101 q 122 1061 92 1061 m 469 1061 l 572 1061 q 622 1081 602 1061 q 642 1128 642 1101 q 622 1176 642 1156 q 572 1196 602 1196 l 469 1196 q 420 1176 439 1196 q 400 1128 400 1156 q 420 1081 400 1101 q 469 1061 439 1061 z "},"ì":{"ha":694,"x_min":140,"x_max":555,"o":"m 221 19 l 473 19 q 533 39 511 19 q 555 87 555 60 q 533 134 555 114 q 473 155 511 155 l 221 155 q 161 134 183 155 q 140 87 140 114 q 161 39 140 60 q 221 19 183 19 m 296 193 l 399 193 q 448 213 429 193 q 468 260 468 233 q 448 308 468 288 q 399 328 429 328 l 296 328 q 246 308 266 328 q 227 260 227 288 q 246 213 227 233 q 296 193 266 193 m 296 366 l 399 366 q 448 387 429 366 q 468 434 468 407 q 448 481 468 461 q 399 502 429 502 l 296 502 q 246 481 266 502 q 227 434 227 461 q 246 387 227 407 q 296 366 266 366 m 296 540 l 399 540 q 448 560 429 540 q 468 608 468 581 q 448 655 468 635 q 399 675 429 675 l 296 675 q 246 655 266 675 q 227 608 227 635 q 246 560 227 581 q 296 540 266 540 m 209 713 l 399 713 q 448 734 429 713 q 468 781 468 754 q 448 829 468 808 q 399 849 429 849 l 209 849 q 159 829 179 849 q 140 781 140 808 q 159 734 140 754 q 209 713 179 713 m 368 887 l 414 887 q 452 907 437 887 q 468 955 468 928 q 452 1002 468 982 q 414 1023 437 1023 l 368 1023 q 329 1002 345 1023 q 313 955 313 982 q 329 907 313 928 q 368 887 345 887 m 209 1061 l 312 1061 q 361 1081 342 1061 q 381 1128 381 1101 q 361 1176 381 1156 q 312 1196 342 1196 l 209 1196 q 159 1176 179 1196 q 140 1128 140 1156 q 159 1081 140 1101 q 209 1061 179 1061 z "},"j":{"ha":694,"x_min":53,"x_max":642,"o":"m 221 -155 l 473 -155 q 533 -134 511 -155 q 555 -87 555 -114 q 533 -39 555 -60 q 473 -19 511 -19 l 221 -19 q 161 -39 183 -19 q 140 -87 140 -60 q 161 -134 140 -114 q 221 -155 183 -155 m 122 19 l 225 19 q 275 39 255 19 q 294 87 294 60 q 275 134 294 114 q 225 155 255 155 l 122 155 q 73 134 92 155 q 53 87 53 114 q 73 39 53 60 q 122 19 92 19 m 469 19 l 572 19 q 622 39 602 19 q 642 87 642 60 q 622 134 642 114 q 572 155 602 155 l 469 155 q 420 134 439 155 q 400 87 400 114 q 420 39 400 60 q 469 19 439 19 m 469 193 l 572 193 q 622 213 602 193 q 642 260 642 233 q 622 308 642 288 q 572 328 602 328 l 469 328 q 420 308 439 328 q 400 260 400 288 q 420 213 400 233 q 469 193 439 193 m 469 366 l 572 366 q 622 387 602 366 q 642 434 642 407 q 622 481 642 461 q 572 502 602 502 l 469 502 q 420 481 439 502 q 400 434 400 461 q 420 387 400 407 q 469 366 439 366 m 469 540 l 572 540 q 622 560 602 540 q 642 608 642 581 q 622 655 642 635 q 572 675 602 675 l 469 675 q 420 655 439 675 q 400 608 400 635 q 420 560 400 581 q 469 540 439 540 m 469 713 l 572 713 q 622 734 602 713 q 642 781 642 754 q 622 829 642 808 q 572 849 602 849 l 469 849 q 420 829 439 849 q 400 781 400 808 q 420 734 400 754 q 469 713 439 713 m 469 1061 l 572 1061 q 622 1081 602 1061 q 642 1128 642 1101 q 622 1176 642 1156 q 572 1196 602 1196 l 469 1196 q 420 1176 439 1196 q 400 1128 400 1156 q 420 1081 400 1101 q 469 1061 439 1061 z "},"k":{"ha":694,"x_min":-34,"x_max":642,"o":"m 35 19 l 225 19 q 275 39 255 19 q 294 87 294 60 q 275 134 294 114 q 225 155 255 155 l 35 155 q -14 134 5 155 q -34 87 -34 114 q -14 39 -34 60 q 35 19 5 19 m 469 19 l 572 19 q 622 39 602 19 q 642 87 642 60 q 622 134 642 114 q 572 155 602 155 l 469 155 q 420 134 439 155 q 400 87 400 114 q 420 39 400 60 q 469 19 439 19 m 122 193 l 225 193 q 275 213 255 193 q 294 260 294 233 q 275 308 294 288 q 225 328 255 328 l 122 328 q 73 308 92 328 q 53 260 53 288 q 73 213 53 233 q 122 193 92 193 m 382 193 l 486 193 q 535 213 515 193 q 555 260 555 233 q 535 308 555 288 q 486 328 515 328 l 382 328 q 333 308 353 328 q 313 260 313 288 q 333 213 313 233 q 382 193 353 193 m 134 366 l 387 366 q 446 387 425 366 q 468 434 468 407 q 446 481 468 461 q 387 502 425 502 l 134 502 q 75 481 96 502 q 53 434 53 461 q 75 387 53 407 q 134 366 96 366 m 122 540 l 225 540 q 275 560 255 540 q 294 608 294 581 q 275 655 294 635 q 225 675 255 675 l 122 675 q 73 655 92 675 q 53 608 53 635 q 73 560 53 581 q 122 540 92 540 m 382 540 l 486 540 q 535 560 515 540 q 555 608 555 581 q 535 655 555 635 q 486 675 515 675 l 382 675 q 333 655 353 675 q 313 608 313 635 q 333 560 313 581 q 382 540 353 540 m 122 713 l 225 713 q 275 734 255 713 q 294 781 294 754 q 275 829 294 808 q 225 849 255 849 l 122 849 q 73 829 92 849 q 53 781 53 808 q 73 734 53 754 q 122 713 92 713 m 469 713 l 572 713 q 622 734 602 713 q 642 781 642 754 q 622 829 642 808 q 572 849 602 849 l 469 849 q 420 829 439 849 q 400 781 400 808 q 420 734 400 754 q 469 713 439 713 m 122 887 l 225 887 q 275 907 255 887 q 294 955 294 928 q 275 1002 294 982 q 225 1023 255 1023 l 122 1023 q 73 1002 92 1023 q 53 955 53 982 q 73 907 53 928 q 122 887 92 887 m 35 1061 l 225 1061 q 275 1081 255 1061 q 294 1128 294 1101 q 275 1176 294 1156 q 225 1196 255 1196 l 35 1196 q -14 1176 5 1196 q -34 1128 -34 1156 q -14 1081 -34 1101 q 35 1061 5 1061 z "},"l":{"ha":694,"x_min":140,"x_max":555,"o":"m 221 19 l 473 19 q 533 39 511 19 q 555 87 555 60 q 533 134 555 114 q 473 155 511 155 l 221 155 q 161 134 183 155 q 140 87 140 114 q 161 39 140 60 q 221 19 183 19 m 296 193 l 399 193 q 448 213 429 193 q 468 260 468 233 q 448 308 468 288 q 399 328 429 328 l 296 328 q 246 308 266 328 q 227 260 227 288 q 246 213 227 233 q 296 193 266 193 m 296 366 l 399 366 q 448 387 429 366 q 468 434 468 407 q 448 481 468 461 q 399 502 429 502 l 296 502 q 246 481 266 502 q 227 434 227 461 q 246 387 227 407 q 296 366 266 366 m 296 540 l 399 540 q 448 560 429 540 q 468 608 468 581 q 448 655 468 635 q 399 675 429 675 l 296 675 q 246 655 266 675 q 227 608 227 635 q 246 560 227 581 q 296 540 266 540 m 296 713 l 399 713 q 448 734 429 713 q 468 781 468 754 q 448 829 468 808 q 399 849 429 849 l 296 849 q 246 829 266 849 q 227 781 227 808 q 246 734 227 754 q 296 713 266 713 m 296 887 l 399 887 q 448 907 429 887 q 468 955 468 928 q 448 1002 468 982 q 399 1023 429 1023 l 296 1023 q 246 1002 266 1023 q 227 955 227 982 q 246 907 227 928 q 296 887 266 887 m 209 1061 l 399 1061 q 448 1081 429 1061 q 468 1128 468 1101 q 448 1176 468 1156 q 399 1196 429 1196 l 209 1196 q 159 1176 179 1196 q 140 1128 140 1156 q 159 1081 140 1101 q 209 1061 179 1061 z "},"m":{"ha":694,"x_min":53,"x_max":728,"o":"m 122 19 l 225 19 q 275 39 255 19 q 294 87 294 60 q 275 134 294 114 q 225 155 255 155 l 122 155 q 73 134 92 155 q 53 87 53 114 q 73 39 53 60 q 122 19 92 19 m 556 19 l 659 19 q 709 39 689 19 q 728 87 728 60 q 709 134 728 114 q 659 155 689 155 l 556 155 q 507 134 526 155 q 487 87 487 114 q 507 39 487 60 q 556 19 526 19 m 122 193 l 225 193 q 275 213 255 193 q 294 260 294 233 q 275 308 294 288 q 225 328 255 328 l 122 328 q 73 308 92 328 q 53 260 53 288 q 73 213 53 233 q 122 193 92 193 m 556 193 l 659 193 q 709 213 689 193 q 728 260 728 233 q 709 308 728 288 q 659 328 689 328 l 556 328 q 507 308 526 328 q 487 260 487 288 q 507 213 487 233 q 556 193 526 193 m 122 366 l 225 366 q 275 387 255 366 q 294 434 294 407 q 275 481 294 461 q 225 502 255 502 l 122 502 q 73 481 92 502 q 53 434 53 461 q 73 387 53 407 q 122 366 92 366 m 368 366 l 414 366 q 452 387 437 366 q 468 434 468 407 q 452 481 468 461 q 414 502 437 502 l 368 502 q 329 481 345 502 q 313 434 313 461 q 329 387 313 407 q 368 366 345 366 m 556 366 l 659 366 q 709 387 689 366 q 728 434 728 407 q 709 481 728 461 q 659 502 689 502 l 556 502 q 507 481 526 502 q 487 434 487 461 q 507 387 487 407 q 556 366 526 366 m 122 540 l 312 540 q 361 560 342 540 q 381 608 381 581 q 361 655 381 635 q 312 675 342 675 l 122 675 q 73 655 92 675 q 53 608 53 635 q 73 560 53 581 q 122 540 92 540 m 469 540 l 659 540 q 709 560 689 540 q 728 608 728 581 q 709 655 728 635 q 659 675 689 675 l 469 675 q 420 655 439 675 q 400 608 400 635 q 420 560 400 581 q 469 540 439 540 m 122 713 l 225 713 q 275 734 255 713 q 294 781 294 754 q 275 829 294 808 q 225 849 255 849 l 122 849 q 73 829 92 849 q 53 781 53 808 q 73 734 53 754 q 122 713 92 713 m 469 713 l 572 713 q 622 734 602 713 q 642 781 642 754 q 622 829 642 808 q 572 849 602 849 l 469 849 q 420 829 439 849 q 400 781 400 808 q 420 734 400 754 q 469 713 439 713 z "},"n":{"ha":694,"x_min":53,"x_max":642,"o":"m 122 19 l 225 19 q 275 39 255 19 q 294 87 294 60 q 275 134 294 114 q 225 155 255 155 l 122 155 q 73 134 92 155 q 53 87 53 114 q 73 39 53 60 q 122 19 92 19 m 469 19 l 572 19 q 622 39 602 19 q 642 87 642 60 q 622 134 642 114 q 572 155 602 155 l 469 155 q 420 134 439 155 q 400 87 400 114 q 420 39 400 60 q 469 19 439 19 m 122 193 l 225 193 q 275 213 255 193 q 294 260 294 233 q 275 308 294 288 q 225 328 255 328 l 122 328 q 73 308 92 328 q 53 260 53 288 q 73 213 53 233 q 122 193 92 193 m 469 193 l 572 193 q 622 213 602 193 q 642 260 642 233 q 622 308 642 288 q 572 328 602 328 l 469 328 q 420 308 439 328 q 400 260 400 288 q 420 213 400 233 q 469 193 439 193 m 122 366 l 225 366 q 275 387 255 366 q 294 434 294 407 q 275 481 294 461 q 225 502 255 502 l 122 502 q 73 481 92 502 q 53 434 53 461 q 73 387 53 407 q 122 366 92 366 m 469 366 l 572 366 q 622 387 602 366 q 642 434 642 407 q 622 481 642 461 q 572 502 602 502 l 469 502 q 420 481 439 502 q 400 434 400 461 q 420 387 400 407 q 469 366 439 366 m 122 540 l 225 540 q 275 560 255 540 q 294 608 294 581 q 275 655 294 635 q 225 675 255 675 l 122 675 q 73 655 92 675 q 53 608 53 635 q 73 560 53 581 q 122 540 92 540 m 469 540 l 572 540 q 622 560 602 540 q 642 608 642 581 q 622 655 642 635 q 572 675 602 675 l 469 675 q 420 655 439 675 q 400 608 400 635 q 420 560 400 581 q 469 540 439 540 m 134 713 l 473 713 q 533 734 511 713 q 555 781 555 754 q 533 829 555 808 q 473 849 511 849 l 134 849 q 75 829 96 849 q 53 781 53 808 q 75 734 53 754 q 134 713 96 713 z "},"ñ":{"ha":694,"x_min":-34,"x_max":728,"o":"m 122 19 l 225 19 q 275 39 255 19 q 294 87 294 60 q 275 134 294 114 q 225 155 255 155 l 122 155 q 73 134 92 155 q 53 87 53 114 q 73 39 53 60 q 122 19 92 19 m 469 19 l 572 19 q 622 39 602 19 q 642 87 642 60 q 622 134 642 114 q 572 155 602 155 l 469 155 q 420 134 439 155 q 400 87 400 114 q 420 39 400 60 q 469 19 439 19 m 122 193 l 225 193 q 275 213 255 193 q 294 260 294 233 q 275 308 294 288 q 225 328 255 328 l 122 328 q 73 308 92 328 q 53 260 53 288 q 73 213 53 233 q 122 193 92 193 m 469 193 l 572 193 q 622 213 602 193 q 642 260 642 233 q 622 308 642 288 q 572 328 602 328 l 469 328 q 420 308 439 328 q 400 260 400 288 q 420 213 400 233 q 469 193 439 193 m 122 366 l 225 366 q 275 387 255 366 q 294 434 294 407 q 275 481 294 461 q 225 502 255 502 l 122 502 q 73 481 92 502 q 53 434 53 461 q 73 387 53 407 q 122 366 92 366 m 469 366 l 572 366 q 622 387 602 366 q 642 434 642 407 q 622 481 642 461 q 572 502 602 502 l 469 502 q 420 481 439 502 q 400 434 400 461 q 420 387 400 407 q 469 366 439 366 m 122 540 l 225 540 q 275 560 255 540 q 294 608 294 581 q 275 655 294 635 q 225 675 255 675 l 122 675 q 73 655 92 675 q 53 608 53 635 q 73 560 53 581 q 122 540 92 540 m 469 540 l 572 540 q 622 560 602 540 q 642 608 642 581 q 622 655 642 635 q 572 675 602 675 l 469 675 q 420 655 439 675 q 400 608 400 635 q 420 560 400 581 q 469 540 439 540 m 134 713 l 473 713 q 533 734 511 713 q 555 781 555 754 q 533 829 555 808 q 473 849 511 849 l 134 849 q 75 829 96 849 q 53 781 53 808 q 75 734 53 754 q 134 713 96 713 m 20 887 l 66 887 q 105 907 90 887 q 121 955 121 928 q 105 1002 121 982 q 66 1023 90 1023 l 20 1023 q -18 1002 -3 1023 q -34 955 -34 982 q -18 907 -34 928 q 20 887 -3 887 m 382 887 l 572 887 q 622 907 602 887 q 642 955 642 928 q 622 1002 642 982 q 572 1023 602 1023 l 382 1023 q 333 1002 353 1023 q 313 955 313 982 q 333 907 313 928 q 382 887 353 887 m 122 1061 l 312 1061 q 361 1081 342 1061 q 381 1128 381 1101 q 361 1176 381 1156 q 312 1196 342 1196 l 122 1196 q 73 1176 92 1196 q 53 1128 53 1156 q 73 1081 53 1101 q 122 1061 92 1061 m 628 1061 l 674 1061 q 713 1081 697 1061 q 728 1128 728 1101 q 713 1176 728 1156 q 674 1196 697 1196 l 628 1196 q 589 1176 605 1196 q 574 1128 574 1156 q 589 1081 574 1101 q 628 1061 605 1061 z "},"o":{"ha":694,"x_min":53,"x_max":642,"o":"m 221 19 l 473 19 q 533 39 511 19 q 555 87 555 60 q 533 134 555 114 q 473 155 511 155 l 221 155 q 161 134 183 155 q 140 87 140 114 q 161 39 140 60 q 221 19 183 19 m 122 193 l 225 193 q 275 213 255 193 q 294 260 294 233 q 275 308 294 288 q 225 328 255 328 l 122 328 q 73 308 92 328 q 53 260 53 288 q 73 213 53 233 q 122 193 92 193 m 469 193 l 572 193 q 622 213 602 193 q 642 260 642 233 q 622 308 642 288 q 572 328 602 328 l 469 328 q 420 308 439 328 q 400 260 400 288 q 420 213 400 233 q 469 193 439 193 m 122 366 l 225 366 q 275 387 255 366 q 294 434 294 407 q 275 481 294 461 q 225 502 255 502 l 122 502 q 73 481 92 502 q 53 434 53 461 q 73 387 53 407 q 122 366 92 366 m 469 366 l 572 366 q 622 387 602 366 q 642 434 642 407 q 622 481 642 461 q 572 502 602 502 l 469 502 q 420 481 439 502 q 400 434 400 461 q 420 387 400 407 q 469 366 439 366 m 122 540 l 225 540 q 275 560 255 540 q 294 608 294 581 q 275 655 294 635 q 225 675 255 675 l 122 675 q 73 655 92 675 q 53 608 53 635 q 73 560 53 581 q 122 540 92 540 m 469 540 l 572 540 q 622 560 602 540 q 642 608 642 581 q 622 655 642 635 q 572 675 602 675 l 469 675 q 420 655 439 675 q 400 608 400 635 q 420 560 400 581 q 469 540 439 540 m 221 713 l 473 713 q 533 734 511 713 q 555 781 555 754 q 533 829 555 808 q 473 849 511 849 l 221 849 q 161 829 183 849 q 140 781 140 808 q 161 734 140 754 q 221 713 183 713 z "},"ó":{"ha":694,"x_min":53,"x_max":642,"o":"m 221 19 l 473 19 q 533 39 511 19 q 555 87 555 60 q 533 134 555 114 q 473 155 511 155 l 221 155 q 161 134 183 155 q 140 87 140 114 q 161 39 140 60 q 221 19 183 19 m 122 193 l 225 193 q 275 213 255 193 q 294 260 294 233 q 275 308 294 288 q 225 328 255 328 l 122 328 q 73 308 92 328 q 53 260 53 288 q 73 213 53 233 q 122 193 92 193 m 469 193 l 572 193 q 622 213 602 193 q 642 260 642 233 q 622 308 642 288 q 572 328 602 328 l 469 328 q 420 308 439 328 q 400 260 400 288 q 420 213 400 233 q 469 193 439 193 m 122 366 l 225 366 q 275 387 255 366 q 294 434 294 407 q 275 481 294 461 q 225 502 255 502 l 122 502 q 73 481 92 502 q 53 434 53 461 q 73 387 53 407 q 122 366 92 366 m 469 366 l 572 366 q 622 387 602 366 q 642 434 642 407 q 622 481 642 461 q 572 502 602 502 l 469 502 q 420 481 439 502 q 400 434 400 461 q 420 387 400 407 q 469 366 439 366 m 122 540 l 225 540 q 275 560 255 540 q 294 608 294 581 q 275 655 294 635 q 225 675 255 675 l 122 675 q 73 655 92 675 q 53 608 53 635 q 73 560 53 581 q 122 540 92 540 m 469 540 l 572 540 q 622 560 602 540 q 642 608 642 581 q 622 655 642 635 q 572 675 602 675 l 469 675 q 420 655 439 675 q 400 608 400 635 q 420 560 400 581 q 469 540 439 540 m 221 713 l 473 713 q 533 734 511 713 q 555 781 555 754 q 533 829 555 808 q 473 849 511 849 l 221 849 q 161 829 183 849 q 140 781 140 808 q 161 734 140 754 q 221 713 183 713 m 281 887 l 327 887 q 366 907 350 887 q 381 955 381 928 q 366 1002 381 982 q 327 1023 350 1023 l 281 1023 q 242 1002 258 1023 q 227 955 227 982 q 242 907 227 928 q 281 887 258 887 m 382 1061 l 486 1061 q 535 1081 515 1061 q 555 1128 555 1101 q 535 1176 555 1156 q 486 1196 515 1196 l 382 1196 q 333 1176 353 1196 q 313 1128 313 1156 q 333 1081 313 1101 q 382 1061 353 1061 z "},"ô":{"ha":694,"x_min":53,"x_max":642,"o":"m 221 19 l 473 19 q 533 39 511 19 q 555 87 555 60 q 533 134 555 114 q 473 155 511 155 l 221 155 q 161 134 183 155 q 140 87 140 114 q 161 39 140 60 q 221 19 183 19 m 122 193 l 225 193 q 275 213 255 193 q 294 260 294 233 q 275 308 294 288 q 225 328 255 328 l 122 328 q 73 308 92 328 q 53 260 53 288 q 73 213 53 233 q 122 193 92 193 m 469 193 l 572 193 q 622 213 602 193 q 642 260 642 233 q 622 308 642 288 q 572 328 602 328 l 469 328 q 420 308 439 328 q 400 260 400 288 q 420 213 400 233 q 469 193 439 193 m 122 366 l 225 366 q 275 387 255 366 q 294 434 294 407 q 275 481 294 461 q 225 502 255 502 l 122 502 q 73 481 92 502 q 53 434 53 461 q 73 387 53 407 q 122 366 92 366 m 469 366 l 572 366 q 622 387 602 366 q 642 434 642 407 q 622 481 642 461 q 572 502 602 502 l 469 502 q 420 481 439 502 q 400 434 400 461 q 420 387 400 407 q 469 366 439 366 m 122 540 l 225 540 q 275 560 255 540 q 294 608 294 581 q 275 655 294 635 q 225 675 255 675 l 122 675 q 73 655 92 675 q 53 608 53 635 q 73 560 53 581 q 122 540 92 540 m 469 540 l 572 540 q 622 560 602 540 q 642 608 642 581 q 622 655 642 635 q 572 675 602 675 l 469 675 q 420 655 439 675 q 400 608 400 635 q 420 560 400 581 q 469 540 439 540 m 221 713 l 473 713 q 533 734 511 713 q 555 781 555 754 q 533 829 555 808 q 473 849 511 849 l 221 849 q 161 829 183 849 q 140 781 140 808 q 161 734 140 754 q 221 713 183 713 m 194 887 l 240 887 q 279 907 263 887 q 294 955 294 928 q 279 1002 294 982 q 240 1023 263 1023 l 194 1023 q 155 1002 171 1023 q 140 955 140 982 q 155 907 140 928 q 194 887 171 887 m 454 887 l 500 887 q 539 907 524 887 q 555 955 555 928 q 539 1002 555 982 q 500 1023 524 1023 l 454 1023 q 416 1002 431 1023 q 400 955 400 982 q 416 907 400 928 q 454 887 431 887 m 296 1061 l 399 1061 q 448 1081 429 1061 q 468 1128 468 1101 q 448 1176 468 1156 q 399 1196 429 1196 l 296 1196 q 246 1176 266 1196 q 227 1128 227 1156 q 246 1081 227 1101 q 296 1061 266 1061 z "},"ö":{"ha":694,"x_min":53,"x_max":642,"o":"m 221 19 l 473 19 q 533 39 511 19 q 555 87 555 60 q 533 134 555 114 q 473 155 511 155 l 221 155 q 161 134 183 155 q 140 87 140 114 q 161 39 140 60 q 221 19 183 19 m 122 193 l 225 193 q 275 213 255 193 q 294 260 294 233 q 275 308 294 288 q 225 328 255 328 l 122 328 q 73 308 92 328 q 53 260 53 288 q 73 213 53 233 q 122 193 92 193 m 469 193 l 572 193 q 622 213 602 193 q 642 260 642 233 q 622 308 642 288 q 572 328 602 328 l 469 328 q 420 308 439 328 q 400 260 400 288 q 420 213 400 233 q 469 193 439 193 m 122 366 l 225 366 q 275 387 255 366 q 294 434 294 407 q 275 481 294 461 q 225 502 255 502 l 122 502 q 73 481 92 502 q 53 434 53 461 q 73 387 53 407 q 122 366 92 366 m 469 366 l 572 366 q 622 387 602 366 q 642 434 642 407 q 622 481 642 461 q 572 502 602 502 l 469 502 q 420 481 439 502 q 400 434 400 461 q 420 387 400 407 q 469 366 439 366 m 122 540 l 225 540 q 275 560 255 540 q 294 608 294 581 q 275 655 294 635 q 225 675 255 675 l 122 675 q 73 655 92 675 q 53 608 53 635 q 73 560 53 581 q 122 540 92 540 m 469 540 l 572 540 q 622 560 602 540 q 642 608 642 581 q 622 655 642 635 q 572 675 602 675 l 469 675 q 420 655 439 675 q 400 608 400 635 q 420 560 400 581 q 469 540 439 540 m 221 713 l 473 713 q 533 734 511 713 q 555 781 555 754 q 533 829 555 808 q 473 849 511 849 l 221 849 q 161 829 183 849 q 140 781 140 808 q 161 734 140 754 q 221 713 183 713 m 122 1061 l 225 1061 q 275 1081 255 1061 q 294 1128 294 1101 q 275 1176 294 1156 q 225 1196 255 1196 l 122 1196 q 73 1176 92 1196 q 53 1128 53 1156 q 73 1081 53 1101 q 122 1061 92 1061 m 469 1061 l 572 1061 q 622 1081 602 1061 q 642 1128 642 1101 q 622 1176 642 1156 q 572 1196 602 1196 l 469 1196 q 420 1176 439 1196 q 400 1128 400 1156 q 420 1081 400 1101 q 469 1061 439 1061 z "},"ò":{"ha":694,"x_min":53,"x_max":642,"o":"m 221 19 l 473 19 q 533 39 511 19 q 555 87 555 60 q 533 134 555 114 q 473 155 511 155 l 221 155 q 161 134 183 155 q 140 87 140 114 q 161 39 140 60 q 221 19 183 19 m 122 193 l 225 193 q 275 213 255 193 q 294 260 294 233 q 275 308 294 288 q 225 328 255 328 l 122 328 q 73 308 92 328 q 53 260 53 288 q 73 213 53 233 q 122 193 92 193 m 469 193 l 572 193 q 622 213 602 193 q 642 260 642 233 q 622 308 642 288 q 572 328 602 328 l 469 328 q 420 308 439 328 q 400 260 400 288 q 420 213 400 233 q 469 193 439 193 m 122 366 l 225 366 q 275 387 255 366 q 294 434 294 407 q 275 481 294 461 q 225 502 255 502 l 122 502 q 73 481 92 502 q 53 434 53 461 q 73 387 53 407 q 122 366 92 366 m 469 366 l 572 366 q 622 387 602 366 q 642 434 642 407 q 622 481 642 461 q 572 502 602 502 l 469 502 q 420 481 439 502 q 400 434 400 461 q 420 387 400 407 q 469 366 439 366 m 122 540 l 225 540 q 275 560 255 540 q 294 608 294 581 q 275 655 294 635 q 225 675 255 675 l 122 675 q 73 655 92 675 q 53 608 53 635 q 73 560 53 581 q 122 540 92 540 m 469 540 l 572 540 q 622 560 602 540 q 642 608 642 581 q 622 655 642 635 q 572 675 602 675 l 469 675 q 420 655 439 675 q 400 608 400 635 q 420 560 400 581 q 469 540 439 540 m 221 713 l 473 713 q 533 734 511 713 q 555 781 555 754 q 533 829 555 808 q 473 849 511 849 l 221 849 q 161 829 183 849 q 140 781 140 808 q 161 734 140 754 q 221 713 183 713 m 368 887 l 414 887 q 452 907 437 887 q 468 955 468 928 q 452 1002 468 982 q 414 1023 437 1023 l 368 1023 q 329 1002 345 1023 q 313 955 313 982 q 329 907 313 928 q 368 887 345 887 m 209 1061 l 312 1061 q 361 1081 342 1061 q 381 1128 381 1101 q 361 1176 381 1156 q 312 1196 342 1196 l 209 1196 q 159 1176 179 1196 q 140 1128 140 1156 q 159 1081 140 1101 q 209 1061 179 1061 z "},"ø":{"ha":694,"x_min":53,"x_max":728,"o":"m 107 -155 l 153 -155 q 192 -134 176 -155 q 208 -87 208 -114 q 192 -39 208 -60 q 153 -19 176 -19 l 107 -19 q 68 -39 84 -19 q 53 -87 53 -60 q 68 -134 53 -114 q 107 -155 84 -155 m 221 19 l 560 19 q 620 39 598 19 q 642 87 642 60 q 620 134 642 114 q 560 155 598 155 l 221 155 q 161 134 183 155 q 140 87 140 114 q 161 39 140 60 q 221 19 183 19 m 122 193 l 312 193 q 361 213 342 193 q 381 260 381 233 q 361 308 381 288 q 312 328 342 328 l 122 328 q 73 308 92 328 q 53 260 53 288 q 73 213 53 233 q 122 193 92 193 m 556 193 l 659 193 q 709 213 689 193 q 728 260 728 233 q 709 308 728 288 q 659 328 689 328 l 556 328 q 507 308 526 328 q 487 260 487 288 q 507 213 487 233 q 556 193 526 193 m 122 366 l 225 366 q 275 387 255 366 q 294 434 294 407 q 275 481 294 461 q 225 502 255 502 l 122 502 q 73 481 92 502 q 53 434 53 461 q 73 387 53 407 q 122 366 92 366 m 368 366 l 414 366 q 452 387 437 366 q 468 434 468 407 q 452 481 468 461 q 414 502 437 502 l 368 502 q 329 481 345 502 q 313 434 313 461 q 329 387 313 407 q 368 366 345 366 m 556 366 l 659 366 q 709 387 689 366 q 728 434 728 407 q 709 481 728 461 q 659 502 689 502 l 556 502 q 507 481 526 502 q 487 434 487 461 q 507 387 487 407 q 556 366 526 366 m 122 540 l 225 540 q 275 560 255 540 q 294 608 294 581 q 275 655 294 635 q 225 675 255 675 l 122 675 q 73 655 92 675 q 53 608 53 635 q 73 560 53 581 q 122 540 92 540 m 469 540 l 659 540 q 709 560 689 540 q 728 608 728 581 q 709 655 728 635 q 659 675 689 675 l 469 675 q 420 655 439 675 q 400 608 400 635 q 420 560 400 581 q 469 540 439 540 m 221 713 l 560 713 q 620 734 598 713 q 642 781 642 754 q 620 829 642 808 q 560 849 598 849 l 221 849 q 161 829 183 849 q 140 781 140 808 q 161 734 140 754 q 221 713 183 713 m 628 887 l 674 887 q 713 907 697 887 q 728 955 728 928 q 713 1002 728 982 q 674 1023 697 1023 l 628 1023 q 589 1002 605 1023 q 574 955 574 982 q 589 907 574 928 q 628 887 605 887 z "},"õ":{"ha":694,"x_min":-34,"x_max":728,"o":"m 221 19 l 473 19 q 533 39 511 19 q 555 87 555 60 q 533 134 555 114 q 473 155 511 155 l 221 155 q 161 134 183 155 q 140 87 140 114 q 161 39 140 60 q 221 19 183 19 m 122 193 l 225 193 q 275 213 255 193 q 294 260 294 233 q 275 308 294 288 q 225 328 255 328 l 122 328 q 73 308 92 328 q 53 260 53 288 q 73 213 53 233 q 122 193 92 193 m 469 193 l 572 193 q 622 213 602 193 q 642 260 642 233 q 622 308 642 288 q 572 328 602 328 l 469 328 q 420 308 439 328 q 400 260 400 288 q 420 213 400 233 q 469 193 439 193 m 122 366 l 225 366 q 275 387 255 366 q 294 434 294 407 q 275 481 294 461 q 225 502 255 502 l 122 502 q 73 481 92 502 q 53 434 53 461 q 73 387 53 407 q 122 366 92 366 m 469 366 l 572 366 q 622 387 602 366 q 642 434 642 407 q 622 481 642 461 q 572 502 602 502 l 469 502 q 420 481 439 502 q 400 434 400 461 q 420 387 400 407 q 469 366 439 366 m 122 540 l 225 540 q 275 560 255 540 q 294 608 294 581 q 275 655 294 635 q 225 675 255 675 l 122 675 q 73 655 92 675 q 53 608 53 635 q 73 560 53 581 q 122 540 92 540 m 469 540 l 572 540 q 622 560 602 540 q 642 608 642 581 q 622 655 642 635 q 572 675 602 675 l 469 675 q 420 655 439 675 q 400 608 400 635 q 420 560 400 581 q 469 540 439 540 m 221 713 l 473 713 q 533 734 511 713 q 555 781 555 754 q 533 829 555 808 q 473 849 511 849 l 221 849 q 161 829 183 849 q 140 781 140 808 q 161 734 140 754 q 221 713 183 713 m 20 887 l 66 887 q 105 907 90 887 q 121 955 121 928 q 105 1002 121 982 q 66 1023 90 1023 l 20 1023 q -18 1002 -3 1023 q -34 955 -34 982 q -18 907 -34 928 q 20 887 -3 887 m 382 887 l 572 887 q 622 907 602 887 q 642 955 642 928 q 622 1002 642 982 q 572 1023 602 1023 l 382 1023 q 333 1002 353 1023 q 313 955 313 982 q 333 907 313 928 q 382 887 353 887 m 122 1061 l 312 1061 q 361 1081 342 1061 q 381 1128 381 1101 q 361 1176 381 1156 q 312 1196 342 1196 l 122 1196 q 73 1176 92 1196 q 53 1128 53 1156 q 73 1081 53 1101 q 122 1061 92 1061 m 628 1061 l 674 1061 q 713 1081 697 1061 q 728 1128 728 1101 q 713 1176 728 1156 q 674 1196 697 1196 l 628 1196 q 589 1176 605 1196 q 574 1128 574 1156 q 589 1081 574 1101 q 628 1061 605 1061 z "},"œ":{"ha":694,"x_min":-34,"x_max":728,"o":"m 134 19 l 560 19 q 620 39 598 19 q 642 87 642 60 q 620 134 642 114 q 560 155 598 155 l 134 155 q 75 134 96 155 q 53 87 53 114 q 75 39 53 60 q 134 19 96 19 m 35 193 l 138 193 q 188 213 168 193 q 208 260 208 233 q 188 308 208 288 q 138 328 168 328 l 35 328 q -14 308 5 328 q -34 260 -34 288 q -14 213 -34 233 q 35 193 5 193 m 296 193 l 399 193 q 448 213 429 193 q 468 260 468 233 q 448 308 468 288 q 399 328 429 328 l 296 328 q 246 308 266 328 q 227 260 227 288 q 246 213 227 233 q 296 193 266 193 m 35 366 l 138 366 q 188 387 168 366 q 208 434 208 407 q 188 481 208 461 q 138 502 168 502 l 35 502 q -14 481 5 502 q -34 434 -34 461 q -14 387 -34 407 q 35 366 5 366 m 308 366 l 647 366 q 707 387 685 366 q 728 434 728 407 q 707 481 728 461 q 647 502 685 502 l 308 502 q 248 481 270 502 q 227 434 227 461 q 248 387 227 407 q 308 366 270 366 m 35 540 l 138 540 q 188 560 168 540 q 208 608 208 581 q 188 655 208 635 q 138 675 168 675 l 35 675 q -14 655 5 675 q -34 608 -34 635 q -14 560 -34 581 q 35 540 5 540 m 296 540 l 399 540 q 448 560 429 540 q 468 608 468 581 q 448 655 468 635 q 399 675 429 675 l 296 675 q 246 655 266 675 q 227 608 227 635 q 246 560 227 581 q 296 540 266 540 m 556 540 l 659 540 q 709 560 689 540 q 728 608 728 581 q 709 655 728 635 q 659 675 689 675 l 556 675 q 507 655 526 675 q 487 608 487 635 q 507 560 487 581 q 556 540 526 540 m 134 713 l 560 713 q 620 734 598 713 q 642 781 642 754 q 620 829 642 808 q 560 849 598 849 l 134 849 q 75 829 96 849 q 53 781 53 808 q 75 734 53 754 q 134 713 96 713 z "},"p":{"ha":694,"x_min":-34,"x_max":642,"o":"m 47 -155 l 300 -155 q 359 -134 338 -155 q 381 -87 381 -114 q 359 -39 381 -60 q 300 -19 338 -19 l 47 -19 q -12 -39 9 -19 q -34 -87 -34 -60 q -12 -134 -34 -114 q 47 -155 9 -155 m 122 19 l 225 19 q 275 39 255 19 q 294 87 294 60 q 275 134 294 114 q 225 155 255 155 l 122 155 q 73 134 92 155 q 53 87 53 114 q 73 39 53 60 q 122 19 92 19 m 134 193 l 473 193 q 533 213 511 193 q 555 260 555 233 q 533 308 555 288 q 473 328 511 328 l 134 328 q 75 308 96 328 q 53 260 53 288 q 75 213 53 233 q 134 193 96 193 m 122 366 l 225 366 q 275 387 255 366 q 294 434 294 407 q 275 481 294 461 q 225 502 255 502 l 122 502 q 73 481 92 502 q 53 434 53 461 q 73 387 53 407 q 122 366 92 366 m 469 366 l 572 366 q 622 387 602 366 q 642 434 642 407 q 622 481 642 461 q 572 502 602 502 l 469 502 q 420 481 439 502 q 400 434 400 461 q 420 387 400 407 q 469 366 439 366 m 122 540 l 225 540 q 275 560 255 540 q 294 608 294 581 q 275 655 294 635 q 225 675 255 675 l 122 675 q 73 655 92 675 q 53 608 53 635 q 73 560 53 581 q 122 540 92 540 m 469 540 l 572 540 q 622 560 602 540 q 642 608 642 581 q 622 655 642 635 q 572 675 602 675 l 469 675 q 420 655 439 675 q 400 608 400 635 q 420 560 400 581 q 469 540 439 540 m 35 713 l 138 713 q 188 734 168 713 q 208 781 208 754 q 188 829 208 808 q 138 849 168 849 l 35 849 q -14 829 5 849 q -34 781 -34 808 q -14 734 -34 754 q 35 713 5 713 m 296 713 l 486 713 q 535 734 515 713 q 555 781 555 754 q 535 829 555 808 q 486 849 515 849 l 296 849 q 246 829 266 849 q 227 781 227 808 q 246 734 227 754 q 296 713 266 713 z "},"þ":{"ha":694,"x_min":-34,"x_max":642,"o":"m 47 -155 l 300 -155 q 359 -134 338 -155 q 381 -87 381 -114 q 359 -39 381 -60 q 300 -19 338 -19 l 47 -19 q -12 -39 9 -19 q -34 -87 -34 -60 q -12 -134 -34 -114 q 47 -155 9 -155 m 122 19 l 225 19 q 275 39 255 19 q 294 87 294 60 q 275 134 294 114 q 225 155 255 155 l 122 155 q 73 134 92 155 q 53 87 53 114 q 73 39 53 60 q 122 19 92 19 m 134 193 l 473 193 q 533 213 511 193 q 555 260 555 233 q 533 308 555 288 q 473 328 511 328 l 134 328 q 75 308 96 328 q 53 260 53 288 q 75 213 53 233 q 134 193 96 193 m 122 366 l 225 366 q 275 387 255 366 q 294 434 294 407 q 275 481 294 461 q 225 502 255 502 l 122 502 q 73 481 92 502 q 53 434 53 461 q 73 387 53 407 q 122 366 92 366 m 469 366 l 572 366 q 622 387 602 366 q 642 434 642 407 q 622 481 642 461 q 572 502 602 502 l 469 502 q 420 481 439 502 q 400 434 400 461 q 420 387 400 407 q 469 366 439 366 m 122 540 l 225 540 q 275 560 255 540 q 294 608 294 581 q 275 655 294 635 q 225 675 255 675 l 122 675 q 73 655 92 675 q 53 608 53 635 q 73 560 53 581 q 122 540 92 540 m 469 540 l 572 540 q 622 560 602 540 q 642 608 642 581 q 622 655 642 635 q 572 675 602 675 l 469 675 q 420 655 439 675 q 400 608 400 635 q 420 560 400 581 q 469 540 439 540 m 134 713 l 473 713 q 533 734 511 713 q 555 781 555 754 q 533 829 555 808 q 473 849 511 849 l 134 849 q 75 829 96 849 q 53 781 53 808 q 75 734 53 754 q 134 713 96 713 m 122 887 l 225 887 q 275 907 255 887 q 294 955 294 928 q 275 1002 294 982 q 225 1023 255 1023 l 122 1023 q 73 1002 92 1023 q 53 955 53 982 q 73 907 53 928 q 122 887 92 887 m 47 1061 l 300 1061 q 359 1081 338 1061 q 381 1128 381 1101 q 359 1176 381 1156 q 300 1196 338 1196 l 47 1196 q -12 1176 9 1196 q -34 1128 -34 1156 q -12 1081 -34 1101 q 47 1061 9 1061 z "},"q":{"ha":694,"x_min":53,"x_max":728,"o":"m 395 -155 l 647 -155 q 707 -134 685 -155 q 728 -87 728 -114 q 707 -39 728 -60 q 647 -19 685 -19 l 395 -19 q 335 -39 357 -19 q 313 -87 313 -60 q 335 -134 313 -114 q 395 -155 357 -155 m 469 19 l 572 19 q 622 39 602 19 q 642 87 642 60 q 622 134 642 114 q 572 155 602 155 l 469 155 q 420 134 439 155 q 400 87 400 114 q 420 39 400 60 q 469 19 439 19 m 221 193 l 560 193 q 620 213 598 193 q 642 260 642 233 q 620 308 642 288 q 560 328 598 328 l 221 328 q 161 308 183 328 q 140 260 140 288 q 161 213 140 233 q 221 193 183 193 m 122 366 l 225 366 q 275 387 255 366 q 294 434 294 407 q 275 481 294 461 q 225 502 255 502 l 122 502 q 73 481 92 502 q 53 434 53 461 q 73 387 53 407 q 122 366 92 366 m 469 366 l 572 366 q 622 387 602 366 q 642 434 642 407 q 622 481 642 461 q 572 502 602 502 l 469 502 q 420 481 439 502 q 400 434 400 461 q 420 387 400 407 q 469 366 439 366 m 122 540 l 225 540 q 275 560 255 540 q 294 608 294 581 q 275 655 294 635 q 225 675 255 675 l 122 675 q 73 655 92 675 q 53 608 53 635 q 73 560 53 581 q 122 540 92 540 m 469 540 l 572 540 q 622 560 602 540 q 642 608 642 581 q 622 655 642 635 q 572 675 602 675 l 469 675 q 420 655 439 675 q 400 608 400 635 q 420 560 400 581 q 469 540 439 540 m 221 713 l 473 713 q 533 734 511 713 q 555 781 555 754 q 533 829 555 808 q 473 849 511 849 l 221 849 q 161 829 183 849 q 140 781 140 808 q 161 734 140 754 q 221 713 183 713 m 628 713 l 674 713 q 713 734 697 713 q 728 781 728 754 q 713 829 728 808 q 674 849 697 849 l 628 849 q 589 829 605 849 q 574 781 574 808 q 589 734 574 754 q 628 713 605 713 z "},"r":{"ha":694,"x_min":-34,"x_max":642,"o":"m 47 19 l 300 19 q 359 39 338 19 q 381 87 381 60 q 359 134 381 114 q 300 155 338 155 l 47 155 q -12 134 9 155 q -34 87 -34 114 q -12 39 -34 60 q 47 19 9 19 m 122 193 l 225 193 q 275 213 255 193 q 294 260 294 233 q 275 308 294 288 q 225 328 255 328 l 122 328 q 73 308 92 328 q 53 260 53 288 q 73 213 53 233 q 122 193 92 193 m 122 366 l 225 366 q 275 387 255 366 q 294 434 294 407 q 275 481 294 461 q 225 502 255 502 l 122 502 q 73 481 92 502 q 53 434 53 461 q 73 387 53 407 q 122 366 92 366 m 469 366 l 572 366 q 622 387 602 366 q 642 434 642 407 q 622 481 642 461 q 572 502 602 502 l 469 502 q 420 481 439 502 q 400 434 400 461 q 420 387 400 407 q 469 366 439 366 m 122 540 l 312 540 q 361 560 342 540 q 381 608 381 581 q 361 655 381 635 q 312 675 342 675 l 122 675 q 73 655 92 675 q 53 608 53 635 q 73 560 53 581 q 122 540 92 540 m 469 540 l 572 540 q 622 560 602 540 q 642 608 642 581 q 622 655 642 635 q 572 675 602 675 l 469 675 q 420 655 439 675 q 400 608 400 635 q 420 560 400 581 q 469 540 439 540 m 35 713 l 225 713 q 275 734 255 713 q 294 781 294 754 q 275 829 294 808 q 225 849 255 849 l 35 849 q -14 829 5 849 q -34 781 -34 808 q -14 734 -34 754 q 35 713 5 713 m 382 713 l 486 713 q 535 734 515 713 q 555 781 555 754 q 535 829 555 808 q 486 849 515 849 l 382 849 q 333 829 353 849 q 313 781 313 808 q 333 734 313 754 q 382 713 353 713 z "},"s":{"ha":694,"x_min":53,"x_max":642,"o":"m 134 19 l 473 19 q 533 39 511 19 q 555 87 555 60 q 533 134 555 114 q 473 155 511 155 l 134 155 q 75 134 96 155 q 53 87 53 114 q 75 39 53 60 q 134 19 96 19 m 469 193 l 572 193 q 622 213 602 193 q 642 260 642 233 q 622 308 642 288 q 572 328 602 328 l 469 328 q 420 308 439 328 q 400 260 400 288 q 420 213 400 233 q 469 193 439 193 m 221 366 l 473 366 q 533 387 511 366 q 555 434 555 407 q 533 481 555 461 q 473 502 511 502 l 221 502 q 161 481 183 502 q 140 434 140 461 q 161 387 140 407 q 221 366 183 366 m 122 540 l 225 540 q 275 560 255 540 q 294 608 294 581 q 275 655 294 635 q 225 675 255 675 l 122 675 q 73 655 92 675 q 53 608 53 635 q 73 560 53 581 q 122 540 92 540 m 221 713 l 560 713 q 620 734 598 713 q 642 781 642 754 q 620 829 642 808 q 560 849 598 849 l 221 849 q 161 829 183 849 q 140 781 140 808 q 161 734 140 754 q 221 713 183 713 z "},"ß":{"ha":694,"x_min":53,"x_max":642,"o":"m 122 -155 l 225 -155 q 275 -134 255 -155 q 294 -87 294 -114 q 275 -39 294 -60 q 225 -19 255 -19 l 122 -19 q 73 -39 92 -19 q 53 -87 53 -60 q 73 -134 53 -114 q 122 -155 92 -155 m 122 19 l 225 19 q 275 39 255 19 q 294 87 294 60 q 275 134 294 114 q 225 155 255 155 l 122 155 q 73 134 92 155 q 53 87 53 114 q 73 39 53 60 q 122 19 92 19 m 382 19 l 486 19 q 535 39 515 19 q 555 87 555 60 q 535 134 555 114 q 486 155 515 155 l 382 155 q 333 134 353 155 q 313 87 313 114 q 333 39 313 60 q 382 19 353 19 m 122 193 l 225 193 q 275 213 255 193 q 294 260 294 233 q 275 308 294 288 q 225 328 255 328 l 122 328 q 73 308 92 328 q 53 260 53 288 q 73 213 53 233 q 122 193 92 193 m 469 193 l 572 193 q 622 213 602 193 q 642 260 642 233 q 622 308 642 288 q 572 328 602 328 l 469 328 q 420 308 439 328 q 400 260 400 288 q 420 213 400 233 q 469 193 439 193 m 122 366 l 225 366 q 275 387 255 366 q 294 434 294 407 q 275 481 294 461 q 225 502 255 502 l 122 502 q 73 481 92 502 q 53 434 53 461 q 73 387 53 407 q 122 366 92 366 m 469 366 l 572 366 q 622 387 602 366 q 642 434 642 407 q 622 481 642 461 q 572 502 602 502 l 469 502 q 420 481 439 502 q 400 434 400 461 q 420 387 400 407 q 469 366 439 366 m 122 540 l 225 540 q 275 560 255 540 q 294 608 294 581 q 275 655 294 635 q 225 675 255 675 l 122 675 q 73 655 92 675 q 53 608 53 635 q 73 560 53 581 q 122 540 92 540 m 382 540 l 486 540 q 535 560 515 540 q 555 608 555 581 q 535 655 555 635 q 486 675 515 675 l 382 675 q 333 655 353 675 q 313 608 313 635 q 333 560 313 581 q 382 540 353 540 m 122 713 l 225 713 q 275 734 255 713 q 294 781 294 754 q 275 829 294 808 q 225 849 255 849 l 122 849 q 73 829 92 849 q 53 781 53 808 q 73 734 53 754 q 122 713 92 713 m 469 713 l 572 713 q 622 734 602 713 q 642 781 642 754 q 622 829 642 808 q 572 849 602 849 l 469 849 q 420 829 439 849 q 400 781 400 808 q 420 734 400 754 q 469 713 439 713 m 122 887 l 225 887 q 275 907 255 887 q 294 955 294 928 q 275 1002 294 982 q 225 1023 255 1023 l 122 1023 q 73 1002 92 1023 q 53 955 53 982 q 73 907 53 928 q 122 887 92 887 m 469 887 l 572 887 q 622 907 602 887 q 642 955 642 928 q 622 1002 642 982 q 572 1023 602 1023 l 469 1023 q 420 1002 439 1023 q 400 955 400 982 q 420 907 400 928 q 469 887 439 887 m 134 1061 l 473 1061 q 533 1081 511 1061 q 555 1128 555 1101 q 533 1176 555 1156 q 473 1196 511 1196 l 134 1196 q 75 1176 96 1196 q 53 1128 53 1156 q 75 1081 53 1101 q 134 1061 96 1061 z "},"t":{"ha":694,"x_min":140,"x_max":642,"o":"m 382 19 l 486 19 q 535 39 515 19 q 555 87 555 60 q 535 134 555 114 q 486 155 515 155 l 382 155 q 333 134 353 155 q 313 87 313 114 q 333 39 313 60 q 382 19 353 19 m 296 193 l 399 193 q 448 213 429 193 q 468 260 468 233 q 448 308 468 288 q 399 328 429 328 l 296 328 q 246 308 266 328 q 227 260 227 288 q 246 213 227 233 q 296 193 266 193 m 541 193 l 587 193 q 626 213 610 193 q 642 260 642 233 q 626 308 642 288 q 587 328 610 328 l 541 328 q 503 308 518 328 q 487 260 487 288 q 503 213 487 233 q 541 193 518 193 m 296 366 l 399 366 q 448 387 429 366 q 468 434 468 407 q 448 481 468 461 q 399 502 429 502 l 296 502 q 246 481 266 502 q 227 434 227 461 q 246 387 227 407 q 296 366 266 366 m 296 540 l 399 540 q 448 560 429 540 q 468 608 468 581 q 448 655 468 635 q 399 675 429 675 l 296 675 q 246 655 266 675 q 227 608 227 635 q 246 560 227 581 q 296 540 266 540 m 221 713 l 560 713 q 620 734 598 713 q 642 781 642 754 q 620 829 642 808 q 560 849 598 849 l 221 849 q 161 829 183 849 q 140 781 140 808 q 161 734 140 754 q 221 713 183 713 m 296 887 l 399 887 q 448 907 429 887 q 468 955 468 928 q 448 1002 468 982 q 399 1023 429 1023 l 296 1023 q 246 1002 266 1023 q 227 955 227 982 q 246 907 227 928 q 296 887 266 887 m 368 1061 l 414 1061 q 452 1081 437 1061 q 468 1128 468 1101 q 452 1176 468 1156 q 414 1196 437 1196 l 368 1196 q 329 1176 345 1196 q 313 1128 313 1156 q 329 1081 313 1101 q 368 1061 345 1061 z "}}}
